<svg width="452" height="71" viewBox="0 0 452 71" fill="none" xmlns="http://www.w3.org/2000/svg">
<g clip-path="url(#clip0_16_128)">
<path d="M26.329 6.3427C26.795 6.3427 27.028 6.57697 27.494 6.81123C24.698 7.98256 21.902 11.028 20.504 17.5875L15.378 18.9931C17.009 14.3077 20.271 6.3427 26.329 6.3427ZM28.892 8.68536C29.358 10.091 29.824 11.7308 29.824 14.3077C29.824 14.542 29.824 14.542 29.824 14.7763L23.067 16.6504C24.465 11.7308 26.795 9.62242 28.892 8.68536ZM34.95 12.9021L31.921 13.8392C31.921 13.6049 31.921 13.3707 31.921 13.1364C31.921 11.028 31.688 9.38816 31.222 7.98256C32.853 8.45109 34.251 10.5595 34.95 12.9021ZM50.095 16.6504C50.095 16.4161 49.862 16.1819 49.629 16.1819C49.163 16.1819 44.27 15.7133 44.27 15.7133C44.27 15.7133 40.775 12.1993 40.309 11.9651C39.843 11.4965 39.144 11.7308 38.911 11.7308C38.911 11.7308 38.212 11.9651 37.047 12.4336C35.882 9.15389 33.785 6.10843 30.29 6.10843H30.057C29.125 4.70284 27.727 4.23431 26.562 4.23431C18.174 4.00004 14.213 14.542 12.815 19.9301C10.951 20.3986 9.087 21.1014 6.99 21.8042C5.126 22.2728 5.126 22.507 4.893 24.1469C4.66 25.3182 0 62.3322 0 62.3322L37.047 69.3602L57.085 64.9091C57.085 64.9091 50.095 17.1189 50.095 16.6504Z" fill="#8DB849"/>
<path d="M49.396 16.1819C49.163 16.1819 44.27 15.7134 44.27 15.7134C44.27 15.7134 40.775 12.1994 40.309 11.9651C40.076 11.7308 40.076 11.7308 39.843 11.7308L37.047 69.3602L57.085 64.9092C57.085 64.9092 50.095 17.1189 50.095 16.6504C50.095 16.4161 49.629 16.1819 49.396 16.1819Z" fill="#5A863E"/>
<path d="M30.29 27.4267L27.727 34.9232C27.727 34.9232 25.63 33.7518 22.834 33.7518C18.873 33.7518 18.64 36.0945 18.64 36.7973C18.64 40.077 27.494 41.4826 27.494 49.4476C27.494 55.7728 23.533 59.7553 18.174 59.7553C11.883 59.7553 8.62097 55.7728 8.62097 55.7728L10.252 50.1504C10.252 50.1504 13.514 52.9616 16.31 52.9616C18.174 52.9616 18.873 51.556 18.873 50.3847C18.873 45.9336 11.65 45.6994 11.65 38.4371C11.65 32.3462 16.077 26.4896 24.698 26.4896C28.659 26.2553 30.29 27.4267 30.29 27.4267Z" fill="#FFFFFE"/>
<path d="M80.618 41.2483C78.521 40.077 77.589 39.1399 77.589 37.9686C77.589 36.3287 78.987 35.3916 81.317 35.3916C83.88 35.3916 86.21 36.563 86.21 36.563L88.074 30.9406C88.074 30.9406 86.443 29.535 81.55 29.535C74.56 29.535 69.9 33.5175 69.9 39.1399C69.9 42.4196 72.23 44.7623 75.026 46.4021C77.356 47.8077 78.288 48.7448 78.288 50.1504C78.288 51.556 77.123 52.9616 74.793 52.9616C71.531 52.9616 68.269 51.3217 68.269 51.3217L66.405 56.9441C66.405 56.9441 69.201 58.8182 74.094 58.8182C81.084 58.8182 86.21 55.3042 86.21 48.9791C86.21 45.4651 83.647 42.8881 80.618 41.2483ZM108.811 29.3007C105.316 29.3007 102.52 30.9406 100.423 33.5175L103.452 17.5874H95.53L87.841 58.1154H95.763L98.326 44.2937C99.258 39.1399 102.054 35.8602 104.617 35.8602C106.481 35.8602 107.18 37.0315 107.18 38.9056C107.18 40.077 107.18 41.2483 106.947 42.4196L103.918 58.3497H111.84L114.869 41.9511C115.102 40.3112 115.335 38.2028 115.335 36.7972C115.335 32.1119 113.005 29.3007 108.811 29.3007ZM129.082 52.493C126.286 52.493 125.354 50.1504 125.354 47.3392C125.354 42.8881 127.684 35.3916 131.878 35.3916C134.674 35.3916 135.606 37.7343 135.606 40.077C135.606 45.2308 133.276 52.493 129.082 52.493ZM133.043 29.3007C123.49 29.3007 117.199 37.9686 117.199 47.5735C117.199 53.6644 120.927 58.5839 128.15 58.5839C137.47 58.5839 143.761 50.1504 143.761 40.3112C143.761 34.6888 140.499 29.3007 133.043 29.3007ZM156.343 52.7273C154.246 52.7273 153.081 51.556 153.081 51.556L154.479 44.0595C155.411 39.1399 157.974 35.8602 160.77 35.8602C163.1 35.8602 164.032 38.2028 164.032 40.3112C163.799 45.4651 160.77 52.7273 156.343 52.7273ZM164.032 29.3007C158.673 29.3007 155.644 33.986 155.644 33.986L156.11 29.7693H149.12C148.887 32.5804 148.188 37.0315 147.489 40.3112L141.897 69.3602H149.819L151.916 57.6469H152.149C152.149 57.6469 153.78 58.5839 156.809 58.5839C166.129 58.5839 172.187 48.979 172.187 39.3742C172.187 34.2203 169.857 29.3007 164.032 29.3007ZM183.371 18.056C180.808 18.056 178.944 20.1644 178.944 22.7413C178.944 25.0839 180.342 26.7238 182.672 26.7238C185.235 26.7238 187.332 25.0839 187.332 22.0385C187.332 19.6958 185.701 18.056 183.371 18.056ZM172.42 58.1154H180.342L185.701 30.0035H177.779L172.42 58.1154ZM205.739 30.0035H200.147L200.38 28.5979C200.846 25.7867 202.477 23.4441 205.04 23.4441C206.438 23.4441 207.603 23.9126 207.603 23.9126L209.234 17.5874C209.234 17.5874 207.836 16.8846 205.04 16.8846C202.244 16.8846 199.448 17.5874 197.351 19.4616C194.555 21.8042 193.39 25.0839 192.691 28.3637L192.458 29.7693H188.73L187.565 35.8602H191.293L187.099 58.1154H195.021L199.215 35.8602H204.574L205.739 30.0035ZM224.612 30.0035C224.612 30.0035 219.719 42.4196 217.389 49.2133C217.156 47.1049 215.525 30.0035 215.525 30.0035H207.137L211.797 55.7728C211.797 56.2413 211.797 56.7098 211.564 57.1784C210.632 59.0525 209.001 60.6923 207.37 61.8637C205.972 63.035 204.108 63.7378 202.943 64.2063L205.04 71C206.671 70.7658 209.933 69.3602 212.729 66.7832C216.224 63.5035 219.719 58.1154 222.981 51.0874L232.534 30.2378L224.612 30.0035Z" fill="#1A1919"/>
</g>
<path d="M242.94 52.85C243.82 54.43 244.9 55.54 246.18 56.18C247.46 56.82 248.79 57.14 250.17 57.14C251.43 57.14 252.6 56.89 253.68 56.39C254.78 55.87 255.77 55.17 256.65 54.29C257.55 53.41 258.34 52.39 259.02 51.23C259.72 50.05 260.3 48.81 260.76 47.51C261.24 46.21 261.6 44.88 261.84 43.52C262.1 42.14 262.23 40.8 262.23 39.5C262.23 36.82 261.72 34.74 260.7 33.26C259.68 31.76 258.19 31.01 256.23 31.01C255.09 31.01 253.94 31.33 252.78 31.97C251.64 32.61 250.54 33.51 249.48 34.67C248.42 35.83 247.42 37.23 246.48 38.87C245.54 40.49 244.71 42.3 243.99 44.3L242.94 52.85ZM244.47 39.53C245.25 37.91 246.12 36.44 247.08 35.12C248.06 33.78 249.09 32.64 250.17 31.7C251.25 30.74 252.38 30 253.56 29.48C254.74 28.96 255.94 28.7 257.16 28.7C258.46 28.7 259.6 28.95 260.58 29.45C261.56 29.95 262.38 30.66 263.04 31.58C263.7 32.48 264.2 33.58 264.54 34.88C264.88 36.18 265.05 37.63 265.05 39.23C265.05 40.77 264.89 42.34 264.57 43.94C264.25 45.52 263.79 47.06 263.19 48.56C262.61 50.04 261.89 51.44 261.03 52.76C260.19 54.08 259.23 55.23 258.15 56.21C257.07 57.19 255.88 57.97 254.58 58.55C253.3 59.11 251.94 59.39 250.5 59.39C248.88 59.39 247.38 59.03 246 58.31C244.64 57.59 243.53 56.53 242.67 55.13L240.9 69.56H238.14L243.06 29.06H244.35C245.05 29.06 245.4 29.42 245.4 30.14L244.47 39.53ZM291.698 31.49C291.098 31.27 290.478 31.12 289.838 31.04C289.198 30.94 288.548 30.89 287.888 30.89C285.888 30.89 283.978 31.38 282.158 32.36C280.338 33.34 278.738 34.65 277.358 36.29C275.978 37.93 274.878 39.81 274.058 41.93C273.238 44.05 272.828 46.25 272.828 48.53C272.828 51.21 273.278 53.3 274.178 54.8C275.098 56.28 276.518 57.02 278.438 57.02C279.578 57.02 280.698 56.7 281.798 56.06C282.898 55.42 283.948 54.52 284.948 53.36C285.968 52.2 286.918 50.81 287.798 49.19C288.678 47.55 289.468 45.74 290.168 43.76L291.698 31.49ZM289.748 48.62C288.988 50.22 288.148 51.69 287.228 53.03C286.328 54.35 285.358 55.48 284.318 56.42C283.278 57.36 282.188 58.09 281.048 58.61C279.908 59.13 278.728 59.39 277.508 59.39C276.268 59.39 275.168 59.15 274.208 58.67C273.268 58.17 272.478 57.47 271.838 56.57C271.218 55.67 270.748 54.58 270.428 53.3C270.108 52.02 269.948 50.58 269.948 48.98C269.948 47.24 270.168 45.54 270.608 43.88C271.068 42.2 271.698 40.61 272.498 39.11C273.298 37.61 274.258 36.23 275.378 34.97C276.498 33.71 277.738 32.62 279.098 31.7C280.458 30.78 281.908 30.06 283.448 29.54C284.988 29.02 286.578 28.76 288.218 28.76C289.398 28.76 290.508 28.87 291.548 29.09C292.608 29.29 293.638 29.65 294.638 30.17L291.128 59H289.748C289.348 59 289.078 58.89 288.938 58.67C288.798 58.45 288.728 58.2 288.728 57.92L289.748 48.62ZM305.32 38.99C306.14 37.03 307.03 35.33 307.99 33.89C308.97 32.45 310 31.31 311.08 30.47C312.18 29.63 313.32 29.11 314.5 28.91C315.68 28.71 316.88 28.85 318.1 29.33L317.59 32C316.23 31.48 314.94 31.36 313.72 31.64C312.5 31.9 311.35 32.54 310.27 33.56C309.21 34.56 308.22 35.92 307.3 37.64C306.4 39.36 305.59 41.4 304.87 43.76L303.04 59H300.25L303.85 29.06H305.14C305.84 29.06 306.19 29.42 306.19 30.14L305.32 38.99ZM322.098 53.99C322.098 53.87 322.098 53.72 322.098 53.54C322.118 53.36 322.138 53.09 322.158 52.73C322.198 52.37 322.248 51.91 322.308 51.35C322.368 50.77 322.458 50.04 322.578 49.16L324.618 32.21H320.688C320.488 32.21 320.328 32.15 320.208 32.03C320.088 31.91 320.048 31.74 320.088 31.52L320.238 30.41L324.948 30.05L326.928 19.37C326.968 19.19 327.058 19.03 327.198 18.89C327.338 18.75 327.508 18.68 327.708 18.68H329.088L327.678 30.08H336.318L336.078 32.21H327.438L325.368 49.07C325.268 49.89 325.178 50.56 325.098 51.08C325.038 51.6 324.988 52.03 324.948 52.37C324.928 52.69 324.908 52.93 324.888 53.09C324.888 53.25 324.888 53.37 324.888 53.45C324.888 54.75 325.188 55.69 325.788 56.27C326.408 56.85 327.198 57.14 328.158 57.14C328.818 57.14 329.398 57.04 329.898 56.84C330.418 56.62 330.868 56.39 331.248 56.15C331.628 55.89 331.938 55.66 332.178 55.46C332.418 55.24 332.598 55.13 332.718 55.13C332.918 55.13 333.068 55.23 333.168 55.43L333.708 56.69C332.908 57.53 331.938 58.21 330.798 58.73C329.658 59.23 328.518 59.48 327.378 59.48C325.738 59.48 324.448 59.03 323.508 58.13C322.588 57.23 322.118 55.85 322.098 53.99ZM345.487 38.75C346.287 37.17 347.177 35.76 348.157 34.52C349.157 33.26 350.207 32.2 351.307 31.34C352.407 30.48 353.537 29.83 354.697 29.39C355.857 28.93 357.027 28.7 358.207 28.7C359.487 28.7 360.577 28.95 361.477 29.45C362.397 29.95 363.127 30.68 363.667 31.64C364.227 32.6 364.587 33.78 364.747 35.18C364.927 36.56 364.907 38.14 364.687 39.92L362.437 59H359.617L361.867 39.92C362.207 37.08 362.017 34.9 361.297 33.38C360.577 31.86 359.227 31.1 357.247 31.1C356.127 31.1 354.997 31.39 353.857 31.97C352.737 32.53 351.637 33.34 350.557 34.4C349.497 35.44 348.497 36.71 347.557 38.21C346.617 39.69 345.787 41.36 345.067 43.22L343.237 59H340.417L343.987 29.06H345.277C345.977 29.06 346.327 29.42 346.327 30.14L345.487 38.75ZM386.085 30.83C384.485 30.83 383.035 31.17 381.735 31.85C380.455 32.51 379.315 33.41 378.315 34.55C377.335 35.69 376.505 37.01 375.825 38.51C375.165 39.99 374.675 41.54 374.355 43.16C376.895 42.88 379.085 42.56 380.925 42.2C382.765 41.82 384.325 41.43 385.605 41.03C386.885 40.61 387.925 40.16 388.725 39.68C389.525 39.2 390.135 38.71 390.555 38.21C390.995 37.69 391.285 37.16 391.425 36.62C391.585 36.08 391.665 35.52 391.665 34.94C391.665 34.52 391.565 34.07 391.365 33.59C391.185 33.09 390.875 32.64 390.435 32.24C389.995 31.84 389.415 31.51 388.695 31.25C387.995 30.97 387.125 30.83 386.085 30.83ZM393.435 53.45C392.455 54.49 391.495 55.39 390.555 56.15C389.635 56.89 388.695 57.5 387.735 57.98C386.795 58.46 385.815 58.81 384.795 59.03C383.775 59.27 382.685 59.39 381.525 59.39C379.865 59.39 378.385 59.12 377.085 58.58C375.805 58.02 374.725 57.24 373.845 56.24C372.965 55.22 372.295 53.99 371.835 52.55C371.375 51.09 371.145 49.46 371.145 47.66C371.145 46.16 371.295 44.65 371.595 43.13C371.895 41.61 372.335 40.15 372.915 38.75C373.515 37.35 374.245 36.04 375.105 34.82C375.985 33.6 376.985 32.54 378.105 31.64C379.225 30.74 380.465 30.03 381.825 29.51C383.185 28.99 384.655 28.73 386.235 28.73C387.695 28.73 388.925 28.94 389.925 29.36C390.945 29.76 391.765 30.27 392.385 30.89C393.025 31.49 393.485 32.15 393.765 32.87C394.045 33.57 394.185 34.23 394.185 34.85C394.185 35.67 394.075 36.45 393.855 37.19C393.635 37.93 393.245 38.63 392.685 39.29C392.125 39.95 391.365 40.57 390.405 41.15C389.445 41.73 388.215 42.27 386.715 42.77C385.235 43.25 383.455 43.69 381.375 44.09C379.295 44.49 376.855 44.84 374.055 45.14C374.015 45.54 373.975 45.95 373.935 46.37C373.915 46.79 373.905 47.2 373.905 47.6C373.905 50.58 374.575 52.91 375.915 54.59C377.275 56.27 379.315 57.11 382.035 57.11C383.095 57.11 384.045 57 384.885 56.78C385.745 56.54 386.505 56.24 387.165 55.88C387.845 55.52 388.435 55.14 388.935 54.74C389.455 54.34 389.915 53.96 390.315 53.6C390.715 53.24 391.055 52.95 391.335 52.73C391.635 52.49 391.905 52.37 392.145 52.37C392.385 52.37 392.595 52.47 392.775 52.67L393.435 53.45ZM404.52 38.99C405.34 37.03 406.23 35.33 407.19 33.89C408.17 32.45 409.2 31.31 410.28 30.47C411.38 29.63 412.52 29.11 413.7 28.91C414.88 28.71 416.08 28.85 417.3 29.33L416.79 32C415.43 31.48 414.14 31.36 412.92 31.64C411.7 31.9 410.55 32.54 409.47 33.56C408.41 34.56 407.42 35.92 406.5 37.64C405.6 39.36 404.79 41.4 404.07 43.76L402.24 59H399.45L403.05 29.06H404.34C405.04 29.06 405.39 29.42 405.39 30.14L404.52 38.99ZM437.324 32.81C437.164 33.09 436.944 33.23 436.664 33.23C436.464 33.23 436.214 33.11 435.914 32.87C435.634 32.61 435.244 32.33 434.744 32.03C434.264 31.71 433.654 31.43 432.914 31.19C432.174 30.93 431.254 30.8 430.154 30.8C429.134 30.8 428.164 30.97 427.244 31.31C426.344 31.65 425.554 32.11 424.874 32.69C424.214 33.25 423.684 33.91 423.284 34.67C422.904 35.41 422.714 36.2 422.714 37.04C422.714 37.86 422.904 38.55 423.284 39.11C423.664 39.67 424.164 40.16 424.784 40.58C425.424 40.98 426.134 41.33 426.914 41.63C427.714 41.93 428.534 42.23 429.374 42.53C430.214 42.83 431.024 43.17 431.804 43.55C432.604 43.91 433.314 44.35 433.934 44.87C434.574 45.39 435.084 46.03 435.464 46.79C435.844 47.53 436.034 48.43 436.034 49.49C436.034 50.77 435.774 52.01 435.254 53.21C434.754 54.41 434.024 55.48 433.064 56.42C432.124 57.34 430.984 58.08 429.644 58.64C428.324 59.2 426.844 59.48 425.204 59.48C423.284 59.48 421.664 59.15 420.344 58.49C419.044 57.81 417.924 56.93 416.984 55.85L417.704 54.83C417.924 54.51 418.194 54.35 418.514 54.35C418.714 54.35 418.964 54.51 419.264 54.83C419.564 55.15 419.974 55.51 420.494 55.91C421.014 56.29 421.684 56.64 422.504 56.96C423.324 57.28 424.354 57.44 425.594 57.44C426.794 57.44 427.874 57.25 428.834 56.87C429.814 56.47 430.644 55.93 431.324 55.25C432.024 54.57 432.564 53.79 432.944 52.91C433.324 52.01 433.514 51.06 433.514 50.06C433.514 49.18 433.324 48.44 432.944 47.84C432.564 47.24 432.054 46.73 431.414 46.31C430.794 45.87 430.084 45.5 429.284 45.2C428.504 44.9 427.694 44.61 426.854 44.33C426.014 44.03 425.194 43.71 424.394 43.37C423.614 43.01 422.904 42.58 422.264 42.08C421.644 41.58 421.144 40.97 420.764 40.25C420.384 39.53 420.194 38.65 420.194 37.61C420.194 36.45 420.444 35.34 420.944 34.28C421.444 33.2 422.144 32.25 423.044 31.43C423.944 30.59 425.014 29.93 426.254 29.45C427.514 28.95 428.884 28.7 430.364 28.7C432.044 28.7 433.494 28.96 434.714 29.48C435.954 30 437.054 30.78 438.014 31.82L437.324 32.81Z" fill="black"/>
<defs>
<clipPath id="clip0_16_128">
<rect width="233" height="67" fill="white" transform="translate(0 4)"/>
</clipPath>
</defs>
</svg>
