<svg width="287" height="101" viewBox="0 0 287 101" fill="none" xmlns="http://www.w3.org/2000/svg">
<rect width="287" height="100.936" fill="white"/>
<path d="M76.2263 39.153V62.0521C76.2263 62.4233 76.0789 62.7793 75.8164 63.0417C75.5539 63.3042 75.198 63.4517 74.8268 63.4517H67.5985C67.2274 63.4515 66.8715 63.304 66.6091 63.0415C66.3466 62.7791 66.1991 62.4232 66.199 62.0521V24.8056C66.199 24.4344 66.3464 24.0784 66.6089 23.8159C66.8713 23.5534 67.2273 23.406 67.5985 23.406H74.2875C74.6586 23.406 75.0146 23.5534 75.2771 23.8159C75.5395 24.0784 75.687 24.4344 75.687 24.8056V30.0508C75.687 30.0508 78.0781 22.5686 85.1744 22.5686C85.1744 22.5686 92.1935 21.7201 95.0475 29.5109C95.0475 29.5109 97.4386 22.5686 104.689 22.5686C104.689 22.5686 115.472 21.9274 115.472 33.0851L115.554 39.2301V62.1292C115.554 62.5004 115.406 62.8564 115.144 63.1189C114.881 63.3813 114.525 63.5288 114.154 63.5288H106.925C106.554 63.5286 106.198 63.3811 105.936 63.1187C105.674 62.8563 105.526 62.5004 105.526 62.1292L105.46 37.1474C105.665 31.4905 101.089 31.9021 101.089 31.9021C95.3301 32.0052 95.8842 39.2301 95.8842 39.2301V62.1292C95.8842 62.5004 95.7368 62.8564 95.4743 63.1189C95.2118 63.3813 94.8559 63.5288 94.4847 63.5288H87.2564C86.8852 63.5286 86.5294 63.3811 86.2669 63.1187C86.0045 62.8563 85.857 62.5004 85.8569 62.1292V37.7127C85.8569 37.7127 86.2796 31.8503 81.1369 31.8503C81.1375 31.8503 76.0467 31.182 76.2263 39.153ZM262.553 39.0845V61.983C262.553 62.3541 262.405 62.71 262.143 62.9724C261.88 63.2349 261.524 63.3824 261.153 63.3825L253.635 63.5282C253.264 63.528 252.908 63.3805 252.646 63.1181C252.384 62.8556 252.236 62.4997 252.236 62.1286V37.7127C252.236 37.7127 252.659 31.8503 247.517 31.8503C247.517 31.8503 242.605 31.6084 242.605 40.8V62.0515C242.605 62.4226 242.458 62.7785 242.195 63.0409C241.933 63.3034 241.577 63.4509 241.206 63.451H233.977C233.606 63.4509 233.25 63.3034 232.988 63.0409C232.725 62.7785 232.578 62.4226 232.577 62.0515V24.8056C232.578 24.4344 232.725 24.0785 232.988 23.8161C233.25 23.5537 233.606 23.4061 233.977 23.406H240.666C241.037 23.406 241.393 23.5534 241.656 23.8159C241.918 24.0784 242.065 24.4344 242.065 24.8056V30.0508C242.065 30.0508 244.457 22.5686 251.553 22.5686C251.553 22.5686 259.155 21.4152 261.715 29.3659C261.715 29.3653 262.553 31.0055 262.553 39.0845ZM210.361 22.4143C201.118 22.4143 193.623 30.2051 193.623 43.3184C193.623 54.8636 199.408 64.2224 210.361 64.2224C220.697 64.2224 227.099 54.8636 227.099 43.3184C227.099 30.4365 219.605 22.4143 210.361 22.4143ZM216.196 43.7812C216.196 48.7179 215.579 51.3406 215.579 51.3406C214.7 56.5593 210.912 56.5667 210.354 56.539C209.751 56.563 205.931 56.5087 205.14 51.3406C205.14 51.3406 204.523 48.7179 204.523 43.7812V42.9586C204.523 38.0218 205.14 35.3992 205.14 35.3992C205.931 30.231 209.752 30.1767 210.354 30.2002C210.912 30.1724 214.7 30.1792 215.579 35.3992C215.579 35.3992 216.196 38.0218 216.196 42.9586V43.7812ZM189.428 29.999V24.655C189.428 24.2838 189.28 23.928 189.018 23.6655C188.755 23.4031 188.399 23.2556 188.028 23.2554H164.135C163.764 23.2554 163.408 23.4029 163.146 23.6653C162.883 23.9278 162.736 24.2838 162.736 24.655V29.9577C162.736 30.3288 162.884 30.6847 163.146 30.9471C163.408 31.2096 163.764 31.3571 164.135 31.3572H176.598L161.847 52.758C161.847 52.758 161.266 53.6257 161.285 54.584V61.0937C161.285 61.0937 161.188 63.3258 163.72 62.0305C163.72 62.0305 168.216 59.314 175.754 59.314C175.754 59.314 183.199 59.2215 188.163 62.2644C188.163 62.2644 190.223 63.2011 190.223 61.1413V55.4751C190.223 55.4751 190.41 53.9756 188.444 53.0394C188.444 53.0394 182.731 49.9021 175.239 50.4168L189.428 29.999ZM60.6201 56.7907L58.3573 53.3461C57.6372 52.0601 57.689 50.6198 57.689 50.6198V34.7303C57.9975 20.9999 42.7763 22.1829 42.7763 22.1829C29.2453 22.1829 27.2466 32.7136 27.2466 32.7136C26.6826 34.8309 28.3228 34.8821 28.3228 34.8821L34.9347 35.5529C34.9347 35.5529 36.062 35.8108 36.4724 34.4686C36.4724 34.4686 37.3431 29.8744 42.2123 29.8744C47.5105 29.8744 47.4556 34.4217 47.4556 34.4217V38.2286C36.879 38.5822 31.9777 41.5183 31.9777 41.5183C25.4473 45.2209 25.8582 52.5748 25.8582 52.5748C25.8582 64.5562 37.274 64.0416 37.274 64.0416C44.5757 64.0416 48.8952 58.6939 48.8952 58.6939C50.1805 60.9574 52.5464 63.116 52.5464 63.116C53.7299 64.3995 54.9634 63.3221 54.9634 63.3221L60.3115 58.7457C61.4938 57.8707 60.6201 56.7907 60.6201 56.7907ZM40.8375 56.6426C37.4029 56.6426 36.1262 53.2295 36.6964 49.875C37.2672 46.5205 40.2316 43.8842 47.4562 43.9614V46.0009C47.7123 54.9105 43.6964 56.6426 40.8375 56.6426ZM156.676 56.7907L154.414 53.3461C153.694 52.0601 153.745 50.6198 153.745 50.6198V34.7303C154.054 20.9999 138.833 22.1829 138.833 22.1829C125.302 22.1829 123.303 32.7136 123.303 32.7136C122.739 34.8309 124.379 34.8821 124.379 34.8821L130.991 35.5529C130.991 35.5529 132.118 35.8108 132.529 34.4686C132.529 34.4686 133.399 29.8744 138.269 29.8744C143.567 29.8744 143.512 34.4217 143.512 34.4217V38.2286C132.936 38.5822 128.034 41.5183 128.034 41.5183C121.504 45.2209 121.915 52.5748 121.915 52.5748C121.915 64.5562 133.33 64.0416 133.33 64.0416C140.632 64.0416 144.952 58.6939 144.952 58.6939C146.237 60.9574 148.602 63.116 148.602 63.116C149.786 64.3995 151.02 63.3221 151.02 63.3221L156.367 58.7457C157.55 57.8707 156.676 56.7907 156.676 56.7907ZM136.894 56.6426C133.459 56.6426 132.183 53.2295 132.753 49.875C133.323 46.5205 136.288 43.8842 143.512 43.9614V46.0009C143.769 54.9105 139.753 56.6426 136.894 56.6426Z" fill="black"/>
<path d="M174.877 86.8668C174.877 86.8668 174.273 87.9189 175.016 88.154C175.016 88.154 175.855 88.4817 176.901 87.5104C176.901 87.5104 184.534 80.8427 184.718 68.7032C184.718 68.7032 184.774 67.187 184.166 66.7723C184.166 66.7723 181.774 64.657 173.176 65.3006C173.176 65.3006 165.681 65.8066 161.589 69.4394C161.589 69.4394 161.222 69.7609 161.222 70.1744C161.222 70.1744 161.133 71.0673 163.383 70.6804C163.383 70.6804 170.877 69.6221 175.337 70.1744C175.337 70.1744 177.637 70.4502 178.281 71.2327C178.281 71.2327 179.338 72.1065 178.786 75.0025C178.786 75.0038 177.268 82.3607 174.877 86.8668Z" fill="#F3971B"/>
<path d="M173.366 75.2203C173.366 75.2203 174.486 76.6705 172.679 77.9214C172.679 77.9214 153.386 93.3549 120.99 93.3549C120.99 93.3549 87.6421 95 59.7969 69.6992C59.7969 69.6992 58.8207 68.8421 59.4267 68.0454C59.4267 68.0454 59.9685 67.3123 61.3711 68.1096C61.3711 68.1096 87.5649 84.4323 121.966 84.4323C121.966 84.4323 145.878 85.358 170.406 74.8674C170.406 74.8674 172.36 73.8547 173.366 75.2203Z" fill="#F3971B"/>
</svg>
