
<svg width="287" height="101" viewBox="0 0 287 101" fill="none" xmlns="http://www.w3.org/2000/svg">
<g clip-path="url(#clip0_9_54)">
<rect width="287" height="101" fill="white"/>
<path d="M82.0434 36H108.387V40.9905H98.0145V69.123H92.3291V40.9905H82L82.0434 36ZM107.259 45.142H112.119V49.7792H112.206C112.38 49.1167 112.684 48.4984 113.118 47.8801C113.552 47.2618 114.072 46.6877 114.723 46.2019C115.331 45.6719 116.025 45.2744 116.807 44.9653C117.544 44.6561 118.325 44.4795 119.107 44.4795C119.714 44.4795 120.148 44.5237 120.365 44.5237C120.582 44.5678 120.843 44.612 121.06 44.612V49.6909C120.712 49.6025 120.322 49.5584 119.931 49.5142C119.541 49.47 119.193 49.4259 118.803 49.4259C117.935 49.4259 117.11 49.6025 116.329 49.9558C115.548 50.3091 114.897 50.8391 114.289 51.5016C113.725 52.2082 113.248 53.0473 112.901 54.0631C112.553 55.0789 112.38 56.2713 112.38 57.5962V68.9905H107.172L107.259 45.142ZM144.929 69.123H139.808V65.7666H139.722C139.071 67.0032 138.116 67.9306 136.857 68.6814C135.599 69.4322 134.297 69.7855 132.995 69.7855C129.913 69.7855 127.656 69.0347 126.268 67.4448C124.879 65.8991 124.184 63.5142 124.184 60.3785V45.142H129.392V59.8486C129.392 61.9685 129.783 63.47 130.608 64.3091C131.389 65.1924 132.517 65.6341 133.949 65.6341C135.034 65.6341 135.946 65.4574 136.684 65.1041C137.421 64.7508 138.029 64.3092 138.463 63.735C138.94 63.1609 139.244 62.4543 139.461 61.6593C139.678 60.8643 139.765 59.9811 139.765 59.0536V45.142H144.973V69.123H144.929ZM153.783 61.4385C153.957 62.9842 154.521 64.0442 155.519 64.7066C156.517 65.3249 157.732 65.6341 159.121 65.6341C159.599 65.6341 160.163 65.5899 160.77 65.5016C161.378 65.4133 161.986 65.2808 162.506 65.0599C163.071 64.8391 163.505 64.53 163.852 64.0883C164.199 63.6467 164.373 63.1167 164.329 62.4543C164.286 61.7918 164.069 61.2177 163.591 60.776C163.114 60.3344 162.55 60.0252 161.855 59.7161C161.161 59.4511 160.336 59.2303 159.425 59.0536C158.514 58.877 157.602 58.6562 156.647 58.4353C155.693 58.2145 154.738 57.9495 153.826 57.6404C152.915 57.3312 152.134 56.9337 151.396 56.3596C150.702 55.8296 150.094 55.1672 149.703 54.3281C149.269 53.489 149.052 52.5173 149.052 51.2808C149.052 49.9558 149.356 48.8959 150.007 48.0126C150.615 47.1293 151.439 46.4227 152.394 45.8927C153.349 45.3628 154.434 44.9653 155.606 44.7445C156.778 44.5237 157.906 44.4353 158.948 44.4353C160.163 44.4353 161.335 44.5678 162.42 44.8328C163.505 45.0978 164.546 45.4953 165.414 46.1136C166.325 46.6877 167.063 47.4826 167.627 48.4101C168.235 49.3375 168.582 50.4858 168.756 51.8107H163.331C163.071 50.53 162.506 49.6909 161.638 49.2492C160.727 48.8076 159.729 48.5868 158.557 48.5868C158.21 48.5868 157.732 48.6309 157.255 48.6751C156.734 48.7634 156.3 48.8517 155.823 49.0284C155.389 49.2051 154.998 49.47 154.694 49.7792C154.391 50.0883 154.217 50.53 154.217 51.0599C154.217 51.7224 154.434 52.2082 154.868 52.6057C155.302 53.0031 155.866 53.3123 156.604 53.6215C157.298 53.8864 158.123 54.1073 159.034 54.2839C159.946 54.4606 160.901 54.6814 161.855 54.9022C162.81 55.123 163.722 55.388 164.633 55.6972C165.544 56.0063 166.369 56.4038 167.063 56.9779C167.758 57.5079 168.365 58.1704 168.799 58.9653C169.233 59.7603 169.45 60.776 169.45 61.9243C169.45 63.3375 169.146 64.53 168.495 65.5457C167.844 66.5174 167.02 67.3565 166.022 67.9748C165.024 68.5931 163.852 69.0347 162.637 69.3439C161.378 69.6088 160.163 69.7855 158.948 69.7855C157.472 69.7855 156.083 69.6088 154.825 69.2555C153.566 68.9022 152.438 68.3722 151.526 67.7098C150.615 67.0032 149.877 66.164 149.356 65.1041C148.835 64.0883 148.532 62.8517 148.488 61.3943H153.74V61.4385H153.783ZM170.926 45.142H174.875V37.899H180.083V45.0978H184.77V49.0284H180.083V61.836C180.083 62.4101 180.127 62.8517 180.17 63.2934C180.213 63.6909 180.344 64.0442 180.474 64.3091C180.647 64.5741 180.908 64.795 181.212 64.9275C181.559 65.0599 181.993 65.1483 182.6 65.1483C182.948 65.1483 183.338 65.1483 183.685 65.1041C184.033 65.0599 184.423 65.0158 184.77 64.9275V69.0347C184.206 69.123 183.642 69.1672 183.078 69.2114C182.514 69.2997 181.993 69.2997 181.385 69.2997C179.996 69.2997 178.911 69.1672 178.087 68.9022C177.262 68.6372 176.611 68.2398 176.134 67.7539C175.656 67.224 175.353 66.6057 175.179 65.8549C175.005 65.1041 174.919 64.1767 174.875 63.205V49.0725H170.926V45.0536V45.142ZM188.416 45.142H193.32V48.4101H193.407C194.145 46.9968 195.143 46.0252 196.445 45.4069C197.747 44.7886 199.136 44.4795 200.698 44.4795C202.564 44.4795 204.17 44.7886 205.559 45.4953C206.948 46.1577 208.076 47.041 208.987 48.2334C209.899 49.3817 210.593 50.7508 211.027 52.2965C211.461 53.8423 211.722 55.5205 211.722 57.2429C211.722 58.877 211.505 60.4227 211.114 61.9243C210.68 63.4259 210.072 64.795 209.248 65.9432C208.423 67.0915 207.382 68.0189 206.08 68.7255C204.778 69.4322 203.302 69.7855 201.566 69.7855C200.828 69.7855 200.047 69.6972 199.309 69.5647C198.571 69.4322 197.834 69.2114 197.139 68.9022C196.445 68.5931 195.794 68.1956 195.23 67.7098C194.622 67.224 194.145 66.6499 193.754 66.0316H193.667V78H188.459V45.142H188.416ZM206.6 57.1546C206.6 56.0946 206.47 55.0347 206.166 54.0189C205.906 53.0032 205.472 52.1199 204.908 51.3249C204.344 50.53 203.649 49.9117 202.868 49.4259C202.043 48.9401 201.089 48.7192 200.047 48.7192C197.877 48.7192 196.228 49.47 195.099 51.0158C194.014 52.5615 193.45 54.6372 193.45 57.1987C193.45 58.4353 193.58 59.5394 193.884 60.5552C194.188 61.571 194.579 62.4543 195.186 63.205C195.75 63.9558 196.445 64.53 197.269 64.9716C198.094 65.4132 199.005 65.6341 200.09 65.6341C201.306 65.6341 202.26 65.3691 203.085 64.8833C203.91 64.3975 204.561 63.735 205.125 62.9842C205.646 62.1893 206.036 61.306 206.253 60.2902C206.47 59.2303 206.6 58.2145 206.6 57.1546ZM215.758 36H220.966V40.9905H215.758V36ZM215.758 45.142H220.966V69.123H215.758V45.142ZM225.609 36H230.817V69.123H225.609V36ZM246.702 69.7855C244.835 69.7855 243.143 69.4763 241.667 68.8139C240.192 68.1514 238.976 67.3123 237.935 66.2082C236.937 65.1041 236.156 63.735 235.635 62.1893C235.114 60.6435 234.81 58.9211 234.81 57.1104C234.81 55.2997 235.071 53.6215 235.635 52.0757C236.156 50.53 236.937 49.205 237.935 48.0568C238.933 46.9527 240.192 46.0694 241.667 45.4511C243.143 44.8328 244.835 44.4795 246.702 44.4795C248.568 44.4795 250.26 44.7886 251.736 45.4511C253.212 46.0694 254.427 46.9527 255.468 48.0568C256.467 49.1609 257.248 50.53 257.769 52.0757C258.289 53.6215 258.593 55.2997 258.593 57.1104C258.593 58.9653 258.333 60.6435 257.769 62.1893C257.204 63.735 256.467 65.0599 255.468 66.2082C254.47 67.3123 253.212 68.1956 251.736 68.8139C250.26 69.4322 248.611 69.7855 246.702 69.7855ZM246.702 65.5899C247.83 65.5899 248.872 65.3249 249.696 64.8391C250.564 64.3533 251.215 63.6909 251.779 62.8959C252.344 62.101 252.734 61.1735 252.995 60.2019C253.255 59.1861 253.385 58.1703 253.385 57.1104C253.385 56.0946 253.255 55.0789 252.995 54.0631C252.734 53.0473 252.344 52.164 251.779 51.3691C251.215 50.5741 250.521 49.9558 249.696 49.47C248.828 48.9842 247.83 48.7192 246.702 48.7192C245.573 48.7192 244.532 48.9842 243.707 49.47C242.839 49.9558 242.188 50.6183 241.624 51.3691C241.06 52.164 240.669 53.0473 240.409 54.0631C240.148 55.0789 240.018 56.0946 240.018 57.1104C240.018 58.1703 240.148 59.1861 240.409 60.2019C240.669 61.2177 241.06 62.101 241.624 62.8959C242.188 63.6909 242.882 64.3533 243.707 64.8391C244.575 65.3691 245.573 65.5899 246.702 65.5899ZM260.156 45.142H264.105V37.899H269.313V45.0978H274V49.0284H269.313V61.836C269.313 62.4101 269.356 62.8517 269.4 63.2934C269.443 63.6909 269.573 64.0442 269.703 64.3091C269.877 64.5741 270.137 64.795 270.441 64.9275C270.788 65.0599 271.222 65.1483 271.83 65.1483C272.177 65.1483 272.568 65.1483 272.915 65.1041C273.262 65.0599 273.653 65.0158 274 64.9275V69.0347C273.436 69.123 272.872 69.1672 272.307 69.2114C271.743 69.2997 271.222 69.2997 270.615 69.2997C269.226 69.2997 268.141 69.1672 267.316 68.9022C266.492 68.6372 265.841 68.2398 265.363 67.7539C264.886 67.224 264.582 66.6057 264.409 65.8549C264.235 65.1041 264.148 64.1767 264.105 63.205V49.0725H260.156V45.0536V45.142Z" fill="black"/>
<path d="M76 35.9283H52.3132L45.0216 13L37.6868 35.9283L14 35.8843L33.1566 50.0717L25.8219 73L44.9784 58.8126L64.135 73L56.8434 50.0717L76 35.9283Z" fill="#00B67A"/>
<path d="M59 55.3367L57.2949 50L45 59L59 55.3367Z" fill="#005128"/>
</g>
<defs>
<clipPath id="clip0_9_54">
<rect width="287" height="101" fill="white"/>
</clipPath>
</defs>
</svg>
