<svg width="254" height="48" viewBox="0 0 254 48" fill="none" xmlns="http://www.w3.org/2000/svg">
<g clip-path="url(#clip0_15_110)">
<path d="M32.6916 4.84706C31.4147 4.14097 27.7545 4.57758 23.3586 5.93389C15.6652 11.1752 9.1723 18.8972 8.71887 31.2978C8.63652 31.5945 7.87799 31.2573 7.72768 31.1658C5.65004 27.1967 4.82702 23.0175 6.56186 16.9886C6.88531 16.4521 5.82764 15.792 5.63813 15.9799C5.25713 16.3606 3.67012 18.0457 2.61593 19.8683C-2.60993 28.9036 0.807167 40.4805 9.95018 45.5472C19.0907 50.6214 30.6333 47.348 35.7227 38.2346C41.6109 27.7164 36.1434 6.76805 32.6916 4.84706Z" fill="#82B541"/>
<path d="M65.41 9.89494C54.5723 9.89494 46.7053 17.926 46.7053 28.9911C46.7053 40.1461 54.5515 47.9379 65.788 47.9379C71.4633 47.9379 75.9564 46.1692 79.5298 42.5279C80.5974 41.3793 80.712 40.2722 80.712 39.849C80.712 38.0452 79.3661 36.7348 77.5122 36.7348C76.577 36.7348 75.7957 37.0869 74.8988 37.9131C72.8752 39.7921 70.2107 41.7121 65.788 41.7121C59.6374 41.7121 54.6358 37.1096 54.3208 31.1998H78.7991C81.4606 31.1998 82.7539 29.9587 82.7539 27.4088C82.7539 26.6572 82.7539 26.1158 82.6021 25.0467C81.2835 15.56 74.8576 9.89642 65.411 9.89642L65.41 9.89494ZM65.41 15.8186C71.2872 15.8186 75.058 19.5518 75.2907 25.5768H54.3282C54.8789 20.0008 59.6087 15.8186 65.41 15.8186ZM106.128 9.89494C101.205 9.89494 96.33 12.7168 94.425 16.6359V14.2136C94.425 10.4621 91.508 10.2717 90.9236 10.2717C89.1952 10.2717 87.3472 11.3071 87.3472 14.2136V43.4659C87.3472 47.3623 90.4528 47.5591 91.0749 47.5591C91.6975 47.5591 94.804 47.3623 94.804 43.4659V27.7846C94.804 20.962 98.6835 16.1964 104.237 16.1964C109.616 16.1964 112.232 19.715 112.232 26.9544V43.4659C112.232 47.3623 115.339 47.5591 115.961 47.5591C116.584 47.5591 119.689 47.3623 119.689 43.4659V24.6205C119.689 17.5022 116.126 9.89741 106.128 9.89741V9.89494ZM153.428 10.2722C151.705 10.2722 150.455 11.274 149.711 13.2449L139.51 38.8145L129.385 13.2449C128.592 11.2448 127.352 10.2722 125.593 10.2722C123.537 10.2722 121.863 11.8713 121.863 13.8373C121.863 14.3233 121.919 14.9548 122.332 15.9397L134.056 43.5317C135.453 46.8604 137.751 47.5591 139.434 47.5591C141.115 47.5591 143.414 46.8604 144.814 43.5337L156.614 15.7879C157.018 14.8148 157.08 14.1003 157.08 13.7621C157.08 11.7734 155.509 10.2727 153.428 10.2727V10.2722ZM175.103 9.89494C170.334 9.89494 165.892 11.2191 162.597 13.6202C161.48 14.3886 160.936 15.3469 160.936 16.5524C160.936 18.2118 162.207 19.5127 163.834 19.5127C164.536 19.5127 165.324 19.2338 166.046 18.7295C168.879 16.8476 171.54 15.9699 174.421 15.9699C179.934 15.9699 183.099 18.7646 183.099 23.638V24.445C170.723 24.4583 158.136 25.9481 158.136 36.6795C158.136 44.4029 164.758 47.8607 171.32 47.8607C176.547 47.8607 180.721 45.7963 183.399 41.8881V43.7676C183.399 46.5662 185.284 47.5586 186.902 47.5586C187.243 47.5586 190.251 47.4523 190.251 43.7676V24.089C190.251 15.1995 184.587 9.89296 175.102 9.89296L175.103 9.89494ZM181.531 29.9172H183.099V31.6295C183.099 37.8914 179.099 41.9371 172.91 41.9371C171.229 41.9371 165.746 41.5474 165.746 36.5286C165.746 30.6025 174.754 29.9172 181.531 29.9172ZM209.673 17.0256C212.935 17.0256 213.101 14.4949 213.101 13.9881C213.101 12.4834 212.2 10.875 209.673 10.875H202.964V4.11171C202.964 1.09055 200.998 0.0185547 199.312 0.0185547C198.69 0.0185547 195.584 0.21535 195.584 4.11171V36.229C195.584 43.641 199.253 47.5586 206.194 47.5586C207.99 47.5586 209.741 47.2421 210.885 46.7106C212.197 46.0579 212.949 44.9849 212.949 43.7676C212.949 42.0503 211.699 40.8047 209.976 40.8047C209.643 40.8047 209.17 40.8868 208.648 41.0367C208.009 41.1959 207.577 41.2577 207.103 41.2577C204.279 41.2577 202.964 39.4203 202.964 35.4744V17.0221H209.673V17.0256ZM234.327 9.89494C223.049 9.89494 214.867 17.8627 214.867 28.8388C214.867 34.1829 216.85 39.0539 220.448 42.5532C224.019 46.0248 228.947 47.9364 234.328 47.9364C245.465 47.9364 253.864 39.7263 253.864 28.8393C253.864 17.8627 245.646 9.89543 234.328 9.89543L234.327 9.89494ZM234.327 41.6345C226.593 41.6345 222.549 35.1975 222.549 28.8378C222.549 20.0996 228.655 16.1202 234.327 16.1202C240 16.1202 246.106 20.0996 246.106 28.8378C246.106 37.6308 240 41.6345 234.327 41.6345Z" fill="black"/>
</g>
<defs>
<clipPath id="clip0_15_110">
<rect width="254" height="48" fill="white"/>
</clipPath>
</defs>
</svg>
