<svg width="287" height="101" viewBox="0 0 287 101" fill="none" xmlns="http://www.w3.org/2000/svg">
<rect width="287" height="101" fill="white"/>
<g clip-path="url(#clip0_9_50)">
<path d="M82.9266 64.7239V27.6429H104.753V32.2943H87.4469V43.6925H102.986V48.3397H87.4469V59.9596H105.965V64.6068H82.9266V64.7239ZM128.891 64.7239L121.392 54.8733L113.902 64.7239H108.611L118.859 51.5521L108.061 37.9411H114.018L121.392 48.1222L128.891 37.9411H134.732L124.484 51.5521L134.182 64.7239H128.891ZM141.456 60.7376V79H136.936V51.665C136.936 44.6922 142.227 37.276 150.497 37.276C158.871 37.276 165.157 42.5883 165.157 51.3304C165.157 59.8551 158.762 65.7194 151.488 65.7194C147.96 65.7194 143.223 64.1676 141.456 60.7376ZM160.416 51.3304C160.416 45.3573 156.559 41.8144 149.726 42.1449C146.418 42.2578 141.348 44.6922 141.79 53.2127C141.898 55.9817 144.764 61.181 151.047 61.181C156.45 61.181 160.416 58.0857 160.416 51.3304ZM169.011 64.7239V37.9411H173.536V40.8189C175.739 38.2716 179.156 37.389 182.793 37.389V42.2578C182.243 42.1449 176.839 41.484 173.536 48.5656V64.8368H169.011V64.7239ZM184.009 51.3304C184.009 43.5838 189.517 37.276 197.124 37.276C206.602 37.276 210.131 43.5838 210.131 51.665V53.8778H188.967C189.3 58.9683 193.816 61.6244 198.007 61.5157C201.09 61.4027 203.186 60.516 205.39 58.3032L208.364 61.4027C205.611 64.0588 202.082 65.8282 197.782 65.8282C189.738 65.7194 184.009 59.7421 184.009 51.3304ZM196.791 41.8144C192.491 41.8144 189.188 45.579 188.967 49.6698H205.39C205.39 45.6878 202.523 41.8144 196.791 41.8144ZM212.443 60.9593L215.751 57.9728C215.643 57.9728 217.405 59.7421 217.626 59.8551C218.396 60.516 219.167 60.9593 220.159 61.181C223.025 61.9549 228.208 61.7332 228.649 57.7511C228.87 55.5342 227.216 54.3212 225.341 53.5473C222.917 52.6606 220.271 52.3259 217.842 51.2217C215.093 50.0045 213.326 47.9005 213.326 44.801C213.326 36.7239 224.791 35.3938 229.97 39.1541C230.191 39.38 232.728 41.7057 232.615 41.7057L229.312 44.3576C227.658 42.3666 226.112 41.3711 222.587 41.3711C220.821 41.3711 218.396 42.1449 217.955 44.0272C217.296 46.6833 220.271 47.6788 222.254 48.2351C224.9 48.896 227.766 49.3394 230.082 50.7783C233.278 52.7693 234.048 57.086 232.836 60.4072C231.515 64.0588 227.545 65.4977 224.021 65.6065C219.829 65.8282 216.192 64.5022 213.218 61.5157C212.997 61.5157 212.443 60.9593 212.443 60.9593ZM235.702 60.9593L239.01 57.9728C238.898 57.9728 240.664 59.7421 240.885 59.8551C241.656 60.516 242.426 60.9593 243.418 61.181C246.284 61.9549 251.467 61.7332 251.904 57.7511C252.125 55.5342 250.475 54.3212 248.601 53.5473C246.176 52.6606 243.531 52.3259 241.102 51.2217C238.352 50.0045 236.586 47.9005 236.586 44.801C236.586 36.7239 248.047 35.3938 253.229 39.1541C253.45 39.38 255.983 41.7057 255.875 41.7057L252.567 44.3576C250.913 42.3666 249.371 41.3711 245.843 41.3711C244.08 41.3711 241.656 42.1449 241.214 44.0272C240.552 46.6833 243.531 47.6788 245.514 48.2351C248.159 48.896 251.025 49.3394 253.338 50.7783C256.537 52.7693 257.308 57.086 256.096 60.4072C254.771 64.0588 250.805 65.4977 247.276 65.6065C243.089 65.8282 239.452 64.5022 236.473 61.5157C236.252 61.5157 235.702 60.9593 235.702 60.9593ZM257.195 37.9411V35.0633H256.204V34.5112H258.849V35.0633H257.858V37.9411H257.195ZM262.157 37.9411V35.285L261.166 37.9411H260.945L259.953 35.285V37.9411H259.403V34.5112H260.282L261.166 36.8327L262.049 34.5112H262.928V37.9411H262.157Z" fill="#E43225"/>
<path d="M52.2807 64.7239L48.977 55.8688H31.1126L27.8089 64.7239H23.072L37.4035 27.643H42.582L56.8009 64.7197L52.2807 64.7239ZM39.824 32.9552L33.1082 51.3304H47.1064L39.824 32.9552ZM59.7755 64.7239V27.643H64.4083V64.7197L59.7755 64.7239ZM71.3532 64.7239V38.4975H75.9817V64.7239H71.3532ZM80.3895 29.9728V29.7511V29.5294C78.6843 29.469 77.0653 28.7616 75.8591 27.5498C74.653 26.3381 73.9494 24.7121 73.8903 23L73.2238 23C73.1647 24.7121 72.4612 26.3381 71.255 27.5498C70.0489 28.7616 68.4299 29.469 66.7246 29.5294V29.9728C68.4292 30.0331 70.0476 30.74 71.2536 31.9509C72.4597 33.1618 73.1637 34.7867 73.2238 36.4981H73.8903C73.9504 34.7867 74.6544 33.1618 75.8605 31.9509C77.0665 30.74 78.6849 30.0331 80.3895 29.9728Z" fill="#F7971D"/>
</g>
<defs>
<clipPath id="clip0_9_50">
<rect width="240" height="56" fill="white" transform="translate(23 23)"/>
</clipPath>
</defs>
</svg>

