<svg width="116" height="159" viewBox="0 0 116 159" fill="none" xmlns="http://www.w3.org/2000/svg">
<mask id="mask0_1_5" style="mask-type:luminance" maskUnits="userSpaceOnUse" x="0" y="0" width="116" height="159">
<path d="M115.387 0L0 0L0 159H115.387L115.387 0Z" fill="white"/>
</mask>
<g mask="url(#mask0_1_5)">
<path d="M115.386 79.501H46.3581L35.0233 38.4646L26.3506 7.08632C26.0908 6.15489 26.0773 5.17195 26.3114 4.23372C26.5455 3.29551 27.0193 2.43414 27.6862 1.73395C28.3531 1.03375 29.1904 0.518718 30.1162 0.239262C31.0419 -0.0401927 32.0242 -0.0744957 32.9672 0.139707H32.9852C32.9945 0.138506 33.004 0.139511 33.0128 0.142636C33.0217 0.145762 33.0298 0.150924 33.0362 0.157705C33.0542 0.157705 33.0722 0.174205 33.1067 0.174205C33.1324 0.179492 33.1561 0.191375 33.1757 0.208691C33.3927 0.26517 33.6061 0.334784 33.8146 0.417149C34.1876 0.573681 34.5401 0.77513 34.8644 1.01703C35.1291 1.18247 35.3729 1.37936 35.5902 1.60341L105.395 69.7514C105.402 69.7647 105.412 69.7764 105.424 69.7853C105.436 69.7941 105.45 69.8 105.464 69.8024L105.517 69.8549L115.386 79.501Z" fill="#B9FF66"/>
<path d="M46.3585 79.5007L43.836 76.7188L42.5747 75.336L0.950427 29.5486C0.44183 28.9892 0.121152 28.2845 0.0333881 27.5336C-0.0543761 26.7826 0.0951759 26.023 0.461066 25.3613C0.826956 24.6998 1.39082 24.1692 2.07354 23.8443C2.75625 23.5194 3.52356 23.4165 4.26777 23.5498L10.0566 26.3662C10.0746 26.3662 10.1091 26.3827 10.1256 26.3827L23.1881 32.725L33.536 37.752L35.0207 38.4613L46.3585 79.5007Z" fill="url(#paint0_linear_1_5)"/>
<g style="mix-blend-mode:screen" opacity="0.3">
<path d="M82.5231 74.3167H50.3155L34.6616 17.7119L82.5231 74.3167Z" fill="white"/>
</g>
<g style="mix-blend-mode:multiply" opacity="0.15">
<path d="M46.3588 79.5008L42.419 71.5523L23.1884 32.728L33.5363 37.7565L35.0225 38.4644L46.3588 79.5008Z" fill="black"/>
</g>
<g style="mix-blend-mode:screen" opacity="0.5">
<path d="M105.4 69.7557C104.605 69.1169 99.9574 65.3151 93.5641 59.5788C90.0218 56.4294 85.9441 52.7191 81.6415 48.6759C79.4999 46.6543 77.2534 44.5802 75.0233 42.4206C72.7932 40.2611 70.5242 38.0835 68.2506 35.9059C66.0221 33.6954 63.7755 31.4833 61.5635 29.2893C59.3529 27.1297 57.2443 24.9401 55.1537 22.827C51.0236 18.6279 47.2053 14.6371 43.975 11.1803C40.7446 7.72349 38.0991 4.80507 36.268 2.74898C35.6359 1.90474 34.8646 1.17441 33.9869 0.589401C33.6854 0.413884 33.3668 0.269191 33.0361 0.157494C34.0037 0.402541 34.8874 0.903456 35.5946 1.60771L105.4 69.7557Z" fill="white"/>
</g>
<g style="mix-blend-mode:multiply" opacity="0.25">
<path d="M115.386 79.5012H46.358L43.8355 76.7193L42.4198 71.5528L39.7578 61.8257C38.1681 55.7774 36.5619 49.7306 35.0232 43.6478C34.5223 41.6772 34.0214 39.7261 33.5385 37.7555L35.0232 38.4649L26.3505 7.08657C28.4066 13.0134 30.2377 18.9912 32.1903 24.9525C34.0559 30.9303 35.8875 36.9202 37.6852 42.922C39.4849 48.9208 41.2095 54.9316 42.9552 60.9439L47.6717 77.7901C52.9762 77.8245 58.2986 77.8081 63.6196 77.8935C69.3739 77.9625 75.1283 78.033 80.8812 78.1935C86.6175 78.297 92.3719 78.4934 98.1277 78.6944C103.879 78.9478 109.633 79.1203 115.386 79.5012Z" fill="black"/>
</g>
<g style="mix-blend-mode:multiply" opacity="0.25">
<path d="M42.5747 75.336L0.950427 29.5486C0.44183 28.9892 0.121152 28.2845 0.0333881 27.5336C-0.0543761 26.7826 0.0951759 26.023 0.461066 25.3613C0.826956 24.6998 1.39082 24.1692 2.07354 23.8443C2.75625 23.5194 3.52356 23.4165 4.26777 23.5498L10.0566 26.3662C8.05302 25.6569 6.08241 24.9145 4.1298 24.1542C3.54961 24.097 2.96595 24.2208 2.45881 24.5084C1.95166 24.7959 1.54581 25.2332 1.29686 25.7604C1.0547 26.235 0.970935 26.7748 1.05784 27.3006C1.14474 27.8262 1.39774 28.3103 1.77976 28.6818L4.85565 31.8087C5.89195 32.8585 6.92974 33.9172 7.94804 34.988C9.98763 37.1131 12.0437 39.2382 14.0308 41.4368C16.0345 43.5978 18.0576 45.7574 20.0087 47.968C21.9598 50.1785 23.9484 52.3576 25.8665 54.6041C27.7847 56.8507 29.7193 59.0793 31.6029 61.3528C35.3867 65.9194 39.1014 70.516 42.5747 75.336Z" fill="black"/>
</g>
<path d="M115.386 79.5007L105.521 89.1423L105.469 89.1934C105.454 89.1961 105.44 89.2023 105.428 89.2114C105.416 89.2204 105.406 89.2323 105.4 89.2458L35.5946 157.392C35.3773 157.617 35.1336 157.814 34.8688 157.98C34.5445 158.222 34.1921 158.424 33.819 158.58C33.6105 158.663 33.3971 158.732 33.1801 158.788C33.1606 158.806 33.1368 158.818 33.1111 158.823C33.0766 158.823 33.0586 158.839 33.0406 158.839C33.0342 158.847 33.0262 158.851 33.0174 158.854C33.0085 158.857 32.9991 158.859 32.9896 158.857H32.9716C32.0288 159.072 31.0463 159.037 30.1206 158.759C29.1948 158.478 28.3575 157.964 27.6906 157.263C27.0237 156.563 26.5499 155.702 26.3158 154.763C26.0817 153.826 26.0952 152.842 26.3549 151.911L35.0277 120.533L46.3625 79.4964L115.386 79.5007Z" fill="#B9FF66"/>
<path d="M46.3583 79.5009L35.0236 120.537L33.5389 121.247L23.1909 126.274L10.1285 132.616C10.112 132.616 10.0776 132.632 10.0596 132.632L4.27071 135.449C3.52648 135.582 2.75917 135.479 2.07646 135.154C1.39375 134.829 0.829892 134.299 0.464002 133.637C0.0981108 132.976 -0.051447 132.216 0.0363173 131.465C0.124081 130.714 0.444759 130.009 0.953357 129.45L42.5776 83.6626L43.8388 82.2799L46.3583 79.5009Z" fill="url(#paint1_linear_1_5)"/>
<g style="mix-blend-mode:screen" opacity="0.3">
<path d="M82.5231 84.6839H50.3155L34.6616 141.289L82.5231 84.6839Z" fill="white"/>
</g>
<g style="mix-blend-mode:multiply" opacity="0.15">
<path d="M46.3588 79.5009L42.419 87.4493L23.1884 126.274L33.5363 121.245L35.0225 120.537L46.3588 79.5009Z" fill="black"/>
</g>
<g style="mix-blend-mode:screen" opacity="0.5">
<path d="M105.4 89.2459C104.605 89.8848 99.9574 93.6865 93.5641 99.4229C90.0218 102.572 85.9441 106.283 81.6415 110.326C79.4999 112.347 77.2534 114.421 75.0233 116.581C72.7932 118.741 70.5242 120.918 68.2506 123.094C66.0221 125.306 63.7755 127.518 61.5635 129.712C59.3529 131.872 57.2443 134.062 55.1537 136.175C51.0236 140.374 47.2053 144.365 43.975 147.82C40.7446 151.275 38.0991 154.197 36.268 156.253C35.6359 157.097 34.8646 157.827 33.9869 158.412C33.6851 158.588 33.3665 158.732 33.0361 158.844C34.0036 158.598 34.8871 158.097 35.5946 157.392L105.4 89.2459Z" fill="white"/>
</g>
<g style="mix-blend-mode:multiply" opacity="0.25">
<path d="M46.3578 79.5009L35.023 120.537L33.5383 121.247C34.0212 119.276 34.5221 117.323 35.023 115.354C36.5617 109.272 38.1724 103.225 39.7576 97.1764L42.4196 87.4493L43.8353 82.2829L46.3578 79.5009Z" fill="black"/>
</g>
<g style="mix-blend-mode:multiply" opacity="0.25">
<path d="M42.5747 83.6656L0.950427 129.453C0.44183 130.012 0.121152 130.717 0.0333881 131.468C-0.0543761 132.219 0.0951759 132.979 0.461066 133.64C0.826956 134.302 1.39082 134.832 2.07354 135.157C2.75625 135.482 3.52356 135.585 4.26777 135.452L10.0566 132.635C8.05302 133.345 6.08241 134.087 4.1298 134.847C3.54941 134.905 2.96555 134.781 2.45835 134.493C1.95113 134.205 1.5454 133.767 1.29686 133.24C1.05458 132.765 0.970748 132.226 1.05766 131.7C1.14457 131.175 1.39766 130.691 1.77976 130.32L4.85565 127.193C5.89195 126.143 6.92974 125.084 7.94804 124.014C9.98763 121.889 12.0437 119.763 14.0308 117.565C16.0345 115.405 18.0576 113.246 20.0087 111.034C21.9598 108.822 23.9484 106.646 25.8665 104.399C27.7847 102.152 29.7193 99.9239 31.6029 97.6429C35.3867 93.0823 39.1014 88.4857 42.5747 83.6656Z" fill="black"/>
</g>
<g style="mix-blend-mode:screen" opacity="0.5">
<path d="M115.386 79.501C109.633 79.8804 103.879 80.0544 98.1262 80.3123C92.3719 80.5208 86.6175 80.7098 80.8797 80.8147C75.1268 80.9647 69.3724 81.0382 63.6181 81.1147C58.2971 81.2017 52.9702 81.1837 47.6702 81.2182L42.9552 98.0523C41.2095 104.065 39.4819 110.078 37.6852 116.074C35.8886 122.07 34.0559 128.064 32.1903 134.044C30.2407 140.005 28.4066 145.983 26.3505 151.909L35.0232 120.531L46.358 79.495L115.386 79.501Z" fill="white"/>
</g>
</g>
<defs>
<linearGradient id="paint0_linear_1_5" x1="0.00891116" y1="51.4969" x2="46.3585" y2="51.4969" gradientUnits="userSpaceOnUse">
<stop stop-color="#B9FF66"/>
<stop offset="0.238" stop-color="#B9FF66"/>
<stop offset="0.44" stop-color="#99D64F"/>
<stop offset="0.629" stop-color="#B9FF66"/>
<stop offset="0.81" stop-color="#99D64F"/>
<stop offset="0.983" stop-color="#B9FF66"/>
<stop offset="1" stop-color="#B9FF66"/>
</linearGradient>
<linearGradient id="paint1_linear_1_5" x1="0.0118408" y1="107.503" x2="46.3583" y2="107.503" gradientUnits="userSpaceOnUse">
<stop stop-color="#99D64F"/>
<stop offset="0.238" stop-color="#B9FF66"/>
<stop offset="0.44" stop-color="#99D64F"/>
<stop offset="0.629" stop-color="#B9FF66"/>
<stop offset="0.81" stop-color="#99D64F"/>
<stop offset="0.983" stop-color="#B9FF66"/>
<stop offset="1" stop-color="#99D64F"/>
</linearGradient>
</defs>
</svg>
