<svg width="971" height="219" viewBox="0 0 971 219" fill="none" xmlns="http://www.w3.org/2000/svg">
<path d="M192.73 127.56C185.537 127.56 178.907 126.433 172.84 124.18C166.86 121.84 161.617 118.547 157.11 114.3C152.69 110.053 149.223 105.07 146.71 99.35C144.283 93.63 143.07 87.3467 143.07 80.5C143.07 73.6533 144.283 67.37 146.71 61.65C149.223 55.93 152.733 50.9467 157.24 46.7C161.747 42.4533 167.033 39.2033 173.1 36.95C179.167 34.61 185.84 33.44 193.12 33.44C201.18 33.44 208.417 34.7833 214.83 37.47C221.33 40.1567 226.79 44.0567 231.21 49.17L217.69 61.65C214.397 58.1833 210.8 55.6267 206.9 53.98C203 52.2467 198.753 51.38 194.16 51.38C189.74 51.38 185.71 52.0733 182.07 53.46C178.43 54.8467 175.267 56.84 172.58 59.44C169.98 62.04 167.943 65.1167 166.47 68.67C165.083 72.2233 164.39 76.1667 164.39 80.5C164.39 84.7467 165.083 88.6467 166.47 92.2C167.943 95.7533 169.98 98.8733 172.58 101.56C175.267 104.16 178.387 106.153 181.94 107.54C185.58 108.927 189.567 109.62 193.9 109.62C198.06 109.62 202.09 108.97 205.99 107.67C209.977 106.283 213.833 103.987 217.56 100.78L229.52 115.99C224.58 119.717 218.817 122.577 212.23 124.57C205.73 126.563 199.23 127.56 192.73 127.56ZM210.28 113.26V79.07H229.52V115.99L210.28 113.26ZM247.653 126V56.06H267.023V75.82L264.293 70.1C266.373 65.16 269.71 61.4333 274.303 58.92C278.896 56.32 284.486 55.02 291.073 55.02V73.74C290.206 73.6533 289.426 73.61 288.733 73.61C288.04 73.5233 287.303 73.48 286.523 73.48C280.976 73.48 276.47 75.0833 273.003 78.29C269.623 81.41 267.933 86.3067 267.933 92.98V126H247.653ZM335.904 127.04C328.45 127.04 321.82 125.48 316.014 122.36C310.294 119.24 305.744 114.993 302.364 109.62C299.07 104.16 297.424 97.9633 297.424 91.03C297.424 84.01 299.07 77.8133 302.364 72.44C305.744 66.98 310.294 62.7333 316.014 59.7C321.82 56.58 328.45 55.02 335.904 55.02C343.27 55.02 349.857 56.58 355.664 59.7C361.47 62.7333 366.02 66.9367 369.314 72.31C372.607 77.6833 374.254 83.9233 374.254 91.03C374.254 97.9633 372.607 104.16 369.314 109.62C366.02 114.993 361.47 119.24 355.664 122.36C349.857 125.48 343.27 127.04 335.904 127.04ZM335.904 110.4C339.284 110.4 342.317 109.62 345.004 108.06C347.69 106.5 349.814 104.29 351.374 101.43C352.934 98.4833 353.714 95.0167 353.714 91.03C353.714 86.9567 352.934 83.49 351.374 80.63C349.814 77.77 347.69 75.56 345.004 74C342.317 72.44 339.284 71.66 335.904 71.66C332.524 71.66 329.49 72.44 326.804 74C324.117 75.56 321.95 77.77 320.304 80.63C318.744 83.49 317.964 86.9567 317.964 91.03C317.964 95.0167 318.744 98.4833 320.304 101.43C321.95 104.29 324.117 106.5 326.804 108.06C329.49 109.62 332.524 110.4 335.904 110.4ZM401.895 126L376.675 56.06H395.785L416.715 116.25H407.615L429.455 56.06H446.615L467.805 116.25H458.705L480.285 56.06H498.225L472.875 126H453.245L434.655 74.39H440.635L421.395 126H401.895ZM538.157 127.04C529.924 127.04 523.511 124.96 518.917 120.8C514.324 116.553 512.027 110.27 512.027 101.95V40.59H532.307V101.69C532.307 104.637 533.087 106.933 534.647 108.58C536.207 110.14 538.331 110.92 541.017 110.92C544.224 110.92 546.954 110.053 549.207 108.32L554.667 122.62C552.587 124.093 550.074 125.22 547.127 126C544.267 126.693 541.277 127.04 538.157 127.04ZM501.237 73.22V57.62H549.727V73.22H501.237ZM608.561 55.02C614.108 55.02 619.048 56.1467 623.381 58.4C627.801 60.5667 631.268 63.9467 633.781 68.54C636.295 73.0467 637.551 78.8533 637.551 85.96V126H617.271V89.08C617.271 83.4467 616.015 79.2867 613.501 76.6C611.075 73.9133 607.608 72.57 603.101 72.57C599.895 72.57 596.991 73.2633 594.391 74.65C591.878 75.95 589.885 77.9867 588.411 80.76C587.025 83.5333 586.331 87.0867 586.331 91.42V126H566.051V29.54H586.331V75.43L581.781 69.58C584.295 64.9 587.891 61.3033 592.571 58.79C597.251 56.2767 602.581 55.02 608.561 55.02ZM719.764 35H740.824V126H719.764V35ZM678.424 126H657.364V35H678.424V126ZM721.324 88.69H676.864V70.88H721.324V88.69ZM790.434 127.04C784.628 127.04 779.428 125.913 774.834 123.66C770.328 121.407 766.818 117.983 764.304 113.39C761.791 108.71 760.534 102.773 760.534 95.58V56.06H780.814V92.59C780.814 98.3967 782.028 102.687 784.454 105.46C786.968 108.147 790.478 109.49 794.984 109.49C798.104 109.49 800.878 108.84 803.304 107.54C805.731 106.153 807.638 104.073 809.024 101.3C810.411 98.44 811.104 94.8867 811.104 90.64V56.06H831.384V126H812.144V106.76L815.654 112.35C813.314 117.203 809.848 120.887 805.254 123.4C800.748 125.827 795.808 127.04 790.434 127.04ZM891.513 127.04C885.359 127.04 880.073 125.74 875.653 123.14C871.233 120.54 867.853 116.597 865.513 111.31C863.173 105.937 862.003 99.1767 862.003 91.03C862.003 82.7967 863.216 76.0367 865.643 70.75C868.156 65.4633 871.623 61.52 876.043 58.92C880.463 56.32 885.619 55.02 891.513 55.02C898.099 55.02 903.993 56.4933 909.193 59.44C914.479 62.3867 918.639 66.5467 921.673 71.92C924.793 77.2933 926.353 83.6633 926.353 91.03C926.353 98.31 924.793 104.637 921.673 110.01C918.639 115.383 914.479 119.587 909.193 122.62C903.993 125.567 898.099 127.04 891.513 127.04ZM850.173 126V29.54H870.453V70.23L869.153 90.9L869.543 111.7V126H850.173ZM888.003 110.4C891.383 110.4 894.373 109.62 896.973 108.06C899.659 106.5 901.783 104.29 903.343 101.43C904.989 98.4833 905.812 95.0167 905.812 91.03C905.812 86.9567 904.989 83.49 903.343 80.63C901.783 77.77 899.659 75.56 896.973 74C894.373 72.44 891.383 71.66 888.003 71.66C884.623 71.66 881.589 72.44 878.903 74C876.216 75.56 874.093 77.77 872.533 80.63C870.973 83.49 870.193 86.9567 870.193 91.03C870.193 95.0167 870.973 98.4833 872.533 101.43C874.093 104.29 876.216 106.5 878.903 108.06C881.589 109.62 884.623 110.4 888.003 110.4Z" fill="#0C0B10"/>
<mask id="mask0_21_3" style="mask-type:luminance" maskUnits="userSpaceOnUse" x="0" y="5" width="116" height="159">
<path d="M115.387 5L0 5L0 164H115.387L115.387 5Z" fill="white"/>
</mask>
<g mask="url(#mask0_21_3)">
<path d="M115.386 84.5009H46.3578L35.0231 43.4645L26.3503 12.0862C26.0906 11.1548 26.0771 10.1718 26.3112 9.23362C26.5453 8.2954 27.019 7.43403 27.6859 6.73384C28.3529 6.03364 29.1901 5.51861 30.1159 5.23916C31.0417 4.9597 32.024 4.9254 32.967 5.1396H32.985C32.9943 5.1384 33.0037 5.1394 33.0126 5.14253C33.0214 5.14566 33.0295 5.15082 33.036 5.1576C33.054 5.1576 33.072 5.1741 33.1065 5.1741C33.1321 5.17938 33.1558 5.19127 33.1755 5.20858C33.3925 5.26506 33.6059 5.33468 33.8143 5.41704C34.1873 5.57357 34.5399 5.77502 34.8641 6.01693C35.1288 6.18236 35.3727 6.37926 35.59 6.6033L105.395 74.7513C105.402 74.7646 105.411 74.7763 105.423 74.7852C105.435 74.794 105.449 74.7999 105.464 74.8023L105.517 74.8548L115.386 84.5009Z" fill="#FF6396"/>
<path d="M46.3584 84.5007L43.8359 81.7188L42.5746 80.336L0.950305 34.5486C0.441708 33.9892 0.12103 33.2845 0.0332661 32.5336C-0.0544982 31.7826 0.0950538 31.023 0.460944 30.3613C0.826834 29.6998 1.3907 29.1692 2.07342 28.8443C2.75613 28.5194 3.52343 28.4165 4.26765 28.5498L10.0565 31.3662C10.0745 31.3662 10.109 31.3827 10.1255 31.3827L23.188 37.725L33.5359 42.752L35.0206 43.4613L46.3584 84.5007Z" fill="url(#paint0_linear_21_3)"/>
<g style="mix-blend-mode:screen" opacity="0.3">
<path d="M82.5231 79.3167H50.3155L34.6616 22.7119L82.5231 79.3167Z" fill="white"/>
</g>
<g style="mix-blend-mode:multiply" opacity="0.15">
<path d="M46.3589 84.5008L42.4192 76.5523L23.1885 37.728L33.5364 42.7565L35.0226 43.4644L46.3589 84.5008Z" fill="black"/>
</g>
<g style="mix-blend-mode:screen" opacity="0.5">
<path d="M105.4 74.7557C104.605 74.1168 99.9574 70.3151 93.5641 64.5787C90.0218 61.4294 85.9441 57.7191 81.6415 53.6759C79.4999 51.6543 77.2534 49.5802 75.0233 47.4206C72.7932 45.2611 70.5242 43.0835 68.2507 40.9059C66.0221 38.6954 63.7755 36.4833 61.5635 34.2892C59.3529 32.1297 57.2443 29.9401 55.1537 27.827C51.0236 23.6278 47.2053 19.6371 43.975 16.1803C40.7446 12.7235 38.0991 9.80505 36.268 7.74896C35.6359 6.90471 34.8646 6.17439 33.9869 5.58938C33.6854 5.41386 33.3668 5.26917 33.0361 5.15747C34.0037 5.40252 34.8874 5.90343 35.5946 6.60768L105.4 74.7557Z" fill="white"/>
</g>
<g style="mix-blend-mode:multiply" opacity="0.25">
<path d="M115.386 84.5012H46.3576L43.8351 81.7192L42.4194 76.5528L39.7574 66.8257C38.1678 60.7774 36.5616 54.7306 35.0229 48.6478C34.522 46.6772 34.0211 44.7261 33.5382 42.7555L35.0229 43.4648L26.3501 12.0865C28.4062 18.0134 30.2373 23.9912 32.1899 29.9525C34.0556 35.9303 35.8872 41.9201 37.6849 47.9219C39.4845 53.9208 41.2092 59.9316 42.9548 65.9439L47.6714 82.79C52.9758 82.8245 58.2983 82.808 63.6192 82.8935C69.3736 82.9625 75.1279 83.033 80.8808 83.1935C86.6172 83.2969 92.3715 83.4934 98.1274 83.6944C103.879 83.9478 109.633 84.1203 115.386 84.5012Z" fill="black"/>
</g>
<g style="mix-blend-mode:multiply" opacity="0.25">
<path d="M42.5746 80.336L0.950305 34.5486C0.441708 33.9892 0.12103 33.2845 0.0332661 32.5336C-0.0544982 31.7826 0.0950538 31.023 0.460944 30.3613C0.826834 29.6998 1.3907 29.1692 2.07342 28.8443C2.75613 28.5194 3.52343 28.4165 4.26765 28.5498L10.0565 31.3662C8.0529 30.6569 6.08229 29.9145 4.12967 29.1542C3.54948 29.097 2.96583 29.2208 2.45869 29.5084C1.95153 29.7959 1.54569 30.2332 1.29673 30.7604C1.05458 31.235 0.970813 31.7748 1.05772 32.3006C1.14462 32.8262 1.39762 33.3103 1.77964 33.6818L4.85553 36.8087C5.89182 37.8585 6.92962 38.9172 7.94792 39.988C9.98751 42.1131 12.0436 44.2382 14.0307 46.4368C16.0344 48.5978 18.0575 50.7574 20.0086 52.968C21.9597 55.1785 23.9483 57.3576 25.8664 59.6041C27.7845 61.8507 29.7192 64.0793 31.6028 66.3528C35.3865 70.9194 39.1013 75.516 42.5746 80.336Z" fill="black"/>
</g>
<path d="M115.386 84.5007L105.521 94.1423L105.469 94.1934C105.454 94.1961 105.44 94.2023 105.428 94.2114C105.416 94.2204 105.406 94.2323 105.4 94.2458L35.5944 162.392C35.3771 162.617 35.1334 162.814 34.8685 162.98C34.5443 163.222 34.1919 163.424 33.8187 163.58C33.6103 163.662 33.3969 163.731 33.1799 163.788C33.1604 163.806 33.1365 163.818 33.1109 163.823C33.0764 163.823 33.0584 163.839 33.0404 163.839C33.0339 163.847 33.026 163.851 33.0171 163.854C33.0083 163.857 32.9988 163.859 32.9894 163.857H32.9714C32.0285 164.072 31.0461 164.037 30.1203 163.758C29.1945 163.478 28.3573 162.964 27.6903 162.263C27.0234 161.563 26.5497 160.702 26.3156 159.763C26.0815 158.826 26.095 157.842 26.3547 156.911L35.0275 125.533L46.3622 84.4963L115.386 84.5007Z" fill="#FF6396"/>
<path d="M46.3582 84.5009L35.0235 125.537L33.5388 126.247L23.1908 131.274L10.1284 137.616C10.1119 137.616 10.0774 137.632 10.0594 137.632L4.27059 140.449C3.52636 140.582 2.75905 140.479 2.07634 140.154C1.39363 139.829 0.82977 139.299 0.46388 138.637C0.0979887 137.976 -0.051569 137.216 0.0361952 136.465C0.123959 135.714 0.444637 135.009 0.953234 134.45L42.5775 88.6625L43.8387 87.2798L46.3582 84.5009Z" fill="url(#paint1_linear_21_3)"/>
<g style="mix-blend-mode:screen" opacity="0.3">
<path d="M82.5231 89.6838H50.3155L34.6616 146.289L82.5231 89.6838Z" fill="white"/>
</g>
<g style="mix-blend-mode:multiply" opacity="0.15">
<path d="M46.3589 84.5009L42.4192 92.4493L23.1885 131.274L33.5364 126.245L35.0226 125.537L46.3589 84.5009Z" fill="black"/>
</g>
<g style="mix-blend-mode:screen" opacity="0.5">
<path d="M105.4 94.2458C104.605 94.8847 99.9574 98.6865 93.5641 104.423C90.0218 107.572 85.9441 111.282 81.6415 115.326C79.4999 117.347 77.2534 119.421 75.0233 121.581C72.7932 123.741 70.5242 125.918 68.2507 128.094C66.0221 130.306 63.7755 132.518 61.5635 134.712C59.3529 136.872 57.2443 139.061 55.1537 141.175C51.0236 145.374 47.2053 149.364 43.975 152.82C40.7446 156.275 38.0991 159.196 36.268 161.253C35.6359 162.097 34.8646 162.827 33.9869 163.412C33.6851 163.588 33.3665 163.732 33.0361 163.844C34.0036 163.598 34.8871 163.097 35.5946 162.392L105.4 94.2458Z" fill="white"/>
</g>
<g style="mix-blend-mode:multiply" opacity="0.25">
<path d="M46.3575 84.5009L35.0228 125.537L33.5381 126.247C34.021 124.276 34.5219 122.323 35.0228 120.354C36.5615 114.271 38.1722 108.225 39.7574 102.176L42.4193 92.4493L43.835 87.2828L46.3575 84.5009Z" fill="black"/>
</g>
<g style="mix-blend-mode:multiply" opacity="0.25">
<path d="M42.5746 88.6655L0.950305 134.453C0.441708 135.012 0.12103 135.717 0.0332661 136.468C-0.0544982 137.219 0.0950538 137.979 0.460944 138.64C0.826834 139.302 1.3907 139.832 2.07342 140.157C2.75613 140.482 3.52343 140.585 4.26765 140.452L10.0565 137.635C8.0529 138.345 6.08229 139.087 4.12967 139.847C3.54929 139.905 2.96542 139.781 2.45822 139.493C1.95101 139.205 1.54528 138.767 1.29673 138.24C1.05446 137.765 0.970626 137.226 1.05754 136.7C1.14445 136.175 1.39754 135.691 1.77964 135.32L4.85553 132.193C5.89182 131.143 6.92962 130.084 7.94792 129.014C9.98751 126.888 12.0436 124.763 14.0307 122.565C16.0344 120.405 18.0575 118.246 20.0086 116.034C21.9597 113.822 23.9483 111.645 25.8664 109.399C27.7845 107.152 29.7192 104.924 31.6028 102.643C35.3865 98.0822 39.1013 93.4856 42.5746 88.6655Z" fill="black"/>
</g>
<g style="mix-blend-mode:screen" opacity="0.5">
<path d="M115.386 84.501C109.633 84.8804 103.879 85.0544 98.1259 85.3123C92.3715 85.5208 86.6172 85.7098 80.8793 85.8147C75.1264 85.9647 69.3721 86.0382 63.6177 86.1147C58.2968 86.2017 52.9698 86.1837 47.6699 86.2182L42.9548 103.052C41.2092 109.065 39.4815 115.078 37.6849 121.074C35.8882 127.07 34.0556 133.064 32.1899 139.044C30.2403 145.005 28.4062 150.983 26.3501 156.909L35.0229 125.531L46.3576 84.495L115.386 84.501Z" fill="white"/>
</g>
</g>
<path d="M456.3 202.56C452.987 202.56 450.14 201.86 447.76 200.46C445.38 199.06 443.56 196.937 442.3 194.09C441.04 191.197 440.41 187.557 440.41 183.17C440.41 178.737 441.063 175.097 442.37 172.25C443.723 169.403 445.59 167.28 447.97 165.88C450.35 164.48 453.127 163.78 456.3 163.78C459.847 163.78 463.02 164.573 465.82 166.16C468.667 167.747 470.907 169.987 472.54 172.88C474.22 175.773 475.06 179.203 475.06 183.17C475.06 187.09 474.22 190.497 472.54 193.39C470.907 196.283 468.667 198.547 465.82 200.18C463.02 201.767 459.847 202.56 456.3 202.56ZM434.04 202V150.06H444.96V171.97L444.26 183.1L444.47 194.3V202H434.04ZM454.41 193.6C456.23 193.6 457.84 193.18 459.24 192.34C460.687 191.5 461.83 190.31 462.67 188.77C463.557 187.183 464 185.317 464 183.17C464 180.977 463.557 179.11 462.67 177.57C461.83 176.03 460.687 174.84 459.24 174C457.84 173.16 456.23 172.74 454.41 172.74C452.59 172.74 450.957 173.16 449.51 174C448.063 174.84 446.92 176.03 446.08 177.57C445.24 179.11 444.82 180.977 444.82 183.17C444.82 185.317 445.24 187.183 446.08 188.77C446.92 190.31 448.063 191.5 449.51 192.34C450.957 193.18 452.59 193.6 454.41 193.6ZM486.105 216.14C484.145 216.14 482.208 215.837 480.295 215.23C478.381 214.623 476.818 213.783 475.605 212.71L479.595 204.94C480.435 205.687 481.391 206.27 482.465 206.69C483.585 207.11 484.681 207.32 485.755 207.32C487.295 207.32 488.508 206.947 489.395 206.2C490.328 205.5 491.168 204.31 491.915 202.63L493.875 198.01L494.715 196.82L508.225 164.34H518.725L501.715 204.31C500.501 207.343 499.101 209.723 497.515 211.45C495.975 213.177 494.248 214.39 492.335 215.09C490.468 215.79 488.391 216.14 486.105 216.14ZM492.545 203.47L475.745 164.34H487.015L500.035 195.84L492.545 203.47ZM543.775 202V153H566.035C571.355 153 576.045 154.027 580.105 156.08C584.165 158.087 587.338 160.91 589.625 164.55C591.912 168.19 593.055 172.507 593.055 177.5C593.055 182.447 591.912 186.763 589.625 190.45C587.338 194.09 584.165 196.937 580.105 198.99C576.045 200.997 571.355 202 566.035 202H543.775ZM555.115 192.69H565.475C568.742 192.69 571.565 192.083 573.945 190.87C576.372 189.61 578.238 187.837 579.545 185.55C580.898 183.263 581.575 180.58 581.575 177.5C581.575 174.373 580.898 171.69 579.545 169.45C578.238 167.163 576.372 165.413 573.945 164.2C571.565 162.94 568.742 162.31 565.475 162.31H555.115V192.69ZM619.527 202.56C615.234 202.56 611.454 201.72 608.187 200.04C604.967 198.36 602.47 196.073 600.697 193.18C598.924 190.24 598.037 186.903 598.037 183.17C598.037 179.39 598.9 176.053 600.627 173.16C602.4 170.22 604.804 167.933 607.837 166.3C610.87 164.62 614.3 163.78 618.127 163.78C621.814 163.78 625.127 164.573 628.067 166.16C631.054 167.7 633.41 169.94 635.137 172.88C636.864 175.773 637.727 179.25 637.727 183.31C637.727 183.73 637.704 184.22 637.657 184.78C637.61 185.293 637.564 185.783 637.517 186.25H606.927V179.88H631.777L627.577 181.77C627.577 179.81 627.18 178.107 626.387 176.66C625.594 175.213 624.497 174.093 623.097 173.3C621.697 172.46 620.064 172.04 618.197 172.04C616.33 172.04 614.674 172.46 613.227 173.3C611.827 174.093 610.73 175.237 609.937 176.73C609.144 178.177 608.747 179.903 608.747 181.91V183.59C608.747 185.643 609.19 187.463 610.077 189.05C611.01 190.59 612.294 191.78 613.927 192.62C615.607 193.413 617.567 193.81 619.807 193.81C621.814 193.81 623.564 193.507 625.057 192.9C626.597 192.293 627.997 191.383 629.257 190.17L635.067 196.47C633.34 198.43 631.17 199.947 628.557 201.02C625.944 202.047 622.934 202.56 619.527 202.56ZM663.687 202.56C659.394 202.56 655.614 201.72 652.347 200.04C649.127 198.36 646.63 196.073 644.857 193.18C643.084 190.24 642.197 186.903 642.197 183.17C642.197 179.39 643.06 176.053 644.787 173.16C646.56 170.22 648.964 167.933 651.997 166.3C655.03 164.62 658.46 163.78 662.287 163.78C665.974 163.78 669.287 164.573 672.227 166.16C675.214 167.7 677.57 169.94 679.297 172.88C681.024 175.773 681.887 179.25 681.887 183.31C681.887 183.73 681.864 184.22 681.817 184.78C681.77 185.293 681.724 185.783 681.677 186.25H651.087V179.88H675.937L671.737 181.77C671.737 179.81 671.34 178.107 670.547 176.66C669.754 175.213 668.657 174.093 667.257 173.3C665.857 172.46 664.224 172.04 662.357 172.04C660.49 172.04 658.834 172.46 657.387 173.3C655.987 174.093 654.89 175.237 654.097 176.73C653.304 178.177 652.907 179.903 652.907 181.91V183.59C652.907 185.643 653.35 187.463 654.237 189.05C655.17 190.59 656.454 191.78 658.087 192.62C659.767 193.413 661.727 193.81 663.967 193.81C665.974 193.81 667.724 193.507 669.217 192.9C670.757 192.293 672.157 191.383 673.417 190.17L679.227 196.47C677.5 198.43 675.33 199.947 672.717 201.02C670.104 202.047 667.094 202.56 663.687 202.56ZM686.357 216.14C684.677 216.14 683.067 215.953 681.527 215.58C679.987 215.253 678.681 214.74 677.607 214.04L680.547 206.13C681.807 207.017 683.347 207.46 685.167 207.46C686.521 207.46 687.594 206.993 688.387 206.06C689.227 205.173 689.647 203.82 689.647 202V164.34H700.567V201.93C700.567 206.27 699.331 209.723 696.857 212.29C694.384 214.857 690.884 216.14 686.357 216.14ZM695.107 159.09C693.101 159.09 691.467 158.507 690.207 157.34C688.947 156.173 688.317 154.727 688.317 153C688.317 151.273 688.947 149.827 690.207 148.66C691.467 147.493 693.101 146.91 695.107 146.91C697.114 146.91 698.747 147.47 700.007 148.59C701.267 149.663 701.897 151.063 701.897 152.79C701.897 154.61 701.267 156.127 700.007 157.34C698.794 158.507 697.161 159.09 695.107 159.09ZM733.722 202V194.65L733.022 193.04V179.88C733.022 177.547 732.299 175.727 730.852 174.42C729.452 173.113 727.282 172.46 724.342 172.46C722.335 172.46 720.352 172.787 718.392 173.44C716.479 174.047 714.845 174.887 713.492 175.96L709.572 168.33C711.625 166.883 714.099 165.763 716.992 164.97C719.885 164.177 722.825 163.78 725.812 163.78C731.552 163.78 736.009 165.133 739.182 167.84C742.355 170.547 743.942 174.77 743.942 180.51V202H733.722ZM722.242 202.56C719.302 202.56 716.782 202.07 714.682 201.09C712.582 200.063 710.972 198.687 709.852 196.96C708.732 195.233 708.172 193.297 708.172 191.15C708.172 188.91 708.709 186.95 709.782 185.27C710.902 183.59 712.652 182.283 715.032 181.35C717.412 180.37 720.515 179.88 724.342 179.88H734.352V186.25H725.532C722.965 186.25 721.192 186.67 720.212 187.51C719.279 188.35 718.812 189.4 718.812 190.66C718.812 192.06 719.349 193.18 720.422 194.02C721.542 194.813 723.059 195.21 724.972 195.21C726.792 195.21 728.425 194.79 729.872 193.95C731.319 193.063 732.369 191.78 733.022 190.1L734.702 195.14C733.909 197.567 732.462 199.41 730.362 200.67C728.262 201.93 725.555 202.56 722.242 202.56ZM757.902 216.14C755.942 216.14 754.005 215.837 752.092 215.23C750.178 214.623 748.615 213.783 747.402 212.71L751.392 204.94C752.232 205.687 753.188 206.27 754.262 206.69C755.382 207.11 756.478 207.32 757.552 207.32C759.092 207.32 760.305 206.947 761.192 206.2C762.125 205.5 762.965 204.31 763.712 202.63L765.672 198.01L766.512 196.82L780.022 164.34H790.522L773.512 204.31C772.298 207.343 770.898 209.723 769.312 211.45C767.772 213.177 766.045 214.39 764.132 215.09C762.265 215.79 760.188 216.14 757.902 216.14ZM764.342 203.47L747.542 164.34H758.812L771.832 195.84L764.342 203.47ZM795.748 202V153H818.008C823.328 153 828.018 154.027 832.078 156.08C836.138 158.087 839.311 160.91 841.598 164.55C843.884 168.19 845.028 172.507 845.028 177.5C845.028 182.447 843.884 186.763 841.598 190.45C839.311 194.09 836.138 196.937 832.078 198.99C828.018 200.997 823.328 202 818.008 202H795.748ZM807.088 192.69H817.448C820.714 192.69 823.538 192.083 825.917 190.87C828.344 189.61 830.211 187.837 831.518 185.55C832.871 183.263 833.548 180.58 833.548 177.5C833.548 174.373 832.871 171.69 831.518 169.45C830.211 167.163 828.344 165.413 825.917 164.2C823.538 162.94 820.714 162.31 817.448 162.31H807.088V192.69ZM871.5 202.56C867.206 202.56 863.426 201.72 860.16 200.04C856.94 198.36 854.443 196.073 852.67 193.18C850.896 190.24 850.01 186.903 850.01 183.17C850.01 179.39 850.873 176.053 852.6 173.16C854.373 170.22 856.776 167.933 859.81 166.3C862.843 164.62 866.273 163.78 870.1 163.78C873.786 163.78 877.1 164.573 880.04 166.16C883.026 167.7 885.383 169.94 887.11 172.88C888.836 175.773 889.7 179.25 889.7 183.31C889.7 183.73 889.676 184.22 889.63 184.78C889.583 185.293 889.536 185.783 889.49 186.25H858.9V179.88H883.75L879.55 181.77C879.55 179.81 879.153 178.107 878.36 176.66C877.566 175.213 876.47 174.093 875.07 173.3C873.67 172.46 872.036 172.04 870.17 172.04C868.303 172.04 866.646 172.46 865.2 173.3C863.8 174.093 862.703 175.237 861.91 176.73C861.116 178.177 860.72 179.903 860.72 181.91V183.59C860.72 185.643 861.163 187.463 862.05 189.05C862.983 190.59 864.266 191.78 865.9 192.62C867.58 193.413 869.54 193.81 871.78 193.81C873.786 193.81 875.536 193.507 877.03 192.9C878.57 192.293 879.97 191.383 881.23 190.17L887.04 196.47C885.313 198.43 883.143 199.947 880.53 201.02C877.916 202.047 874.906 202.56 871.5 202.56ZM906.506 202L890.686 164.34H901.956L915.116 196.75H909.516L923.166 164.34H933.666L917.776 202H906.506Z" fill="black"/>
<defs>
<linearGradient id="paint0_linear_21_3" x1="0.00878909" y1="56.4969" x2="46.3584" y2="56.4969" gradientUnits="userSpaceOnUse">
<stop stop-color="#FF6396"/>
<stop offset="0.238" stop-color="#D81F26"/>
<stop offset="0.44" stop-color="#FF6396"/>
<stop offset="0.629" stop-color="#D81F26"/>
<stop offset="0.81" stop-color="#FF6396"/>
<stop offset="0.983" stop-color="#D81F26"/>
<stop offset="1" stop-color="#FF6396"/>
</linearGradient>
<linearGradient id="paint1_linear_21_3" x1="0.0117187" y1="112.503" x2="46.3582" y2="112.503" gradientUnits="userSpaceOnUse">
<stop stop-color="#D81F26"/>
<stop offset="0.238" stop-color="#FF6396"/>
<stop offset="0.44" stop-color="#D81F26"/>
<stop offset="0.629" stop-color="#FF6396"/>
<stop offset="0.81" stop-color="#D81F26"/>
<stop offset="0.983" stop-color="#FF6396"/>
<stop offset="1" stop-color="#D81F26"/>
</linearGradient>
</defs>
</svg>
