<svg width="800" height="800" viewBox="0 0 800 800" fill="none" xmlns="http://www.w3.org/2000/svg">
<path d="M430.121 484.44C429.074 471.963 428.687 459.439 428.96 446.92C428.96 445.88 427.441 445.6 427.321 446.92C426.013 459.468 426.147 472.123 427.721 484.64C427.747 484.958 427.899 485.253 428.143 485.459C428.386 485.666 428.702 485.767 429.02 485.74C429.339 485.714 429.633 485.562 429.84 485.318C430.046 485.074 430.147 484.758 430.121 484.44ZM412.001 479.76C412.073 479.922 412.191 480.06 412.34 480.157C412.489 480.253 412.663 480.305 412.841 480.305C413.018 480.305 413.192 480.253 413.341 480.157C413.49 480.06 413.608 479.922 413.68 479.76C413.12 467.16 412.601 454.52 412.041 441.88C412.041 441.668 411.956 441.464 411.806 441.314C411.656 441.164 411.453 441.08 411.24 441.08C411.028 441.08 410.825 441.164 410.675 441.314C410.525 441.464 410.441 441.668 410.441 441.88C409.907 451.423 410.014 460.991 410.761 470.52C410.787 473.64 411.203 476.744 412.001 479.76ZM516.841 481.36C517.233 487.539 516.542 493.739 514.8 499.68C514.8 500.6 517.48 505.68 519.16 491.08C520.214 481.219 518.158 471.275 513.281 462.64C512.761 461.68 511.4 462.64 511.84 463.48C514.609 469.076 516.305 475.14 516.841 481.36ZM468.36 192.2C468.333 195.21 469.351 198.137 471.24 200.48C473.64 202.64 477.36 194.24 488.52 192.92V182.12C480.734 182.69 473.488 186.313 468.36 192.2ZM573.521 481.12C573.521 472.88 572.801 464.68 572.641 456.44C572.641 455.32 570.92 455.56 570.92 456.68C570.92 465.2 570.921 473.8 571.281 482.36C571.441 488 573.641 485.92 573.521 481.12ZM496.001 181.92L496.24 192.72C510.04 193.2 514.041 203.6 515.521 200.36C516.161 198.88 518.76 191.48 517.36 190.2C511.488 184.928 503.892 181.983 496.001 181.92ZM208.921 117C206.841 118.12 208.921 123.04 210.561 121.96C212.201 120.88 211.201 115.68 208.921 117ZM206.281 104.96C203.481 105.24 203.401 108.12 206.281 108.48C208.367 108.642 210.39 109.271 212.201 110.32C213.281 111.04 214.441 109.6 213.801 108.6C212.976 107.387 211.848 106.412 210.528 105.773C209.208 105.135 207.743 104.854 206.281 104.96ZM199.121 119.04C200.191 121.848 201.034 124.737 201.641 127.68C202.321 131.12 202.281 132.04 202.121 132.24C201.474 132.261 200.832 132.341 200.201 132.48C199.041 132.88 199.041 134.36 200.841 135.2C201.329 135.447 201.88 135.541 202.422 135.469C202.965 135.398 203.473 135.165 203.881 134.8C205.961 132.8 205.081 127.16 201.321 118.04C201.188 117.748 200.945 117.521 200.645 117.409C200.345 117.296 200.012 117.308 199.721 117.44C199.429 117.573 199.202 117.816 199.089 118.116C198.977 118.416 198.988 118.748 199.121 119.04Z" fill="#191a23"/>
<path d="M778.88 600.88H722.12C727.36 572.88 696.24 553.16 676.88 563.48C674.892 553.778 669.43 545.136 661.519 539.177C653.609 533.218 643.794 530.353 633.92 531.12C632.867 524.247 630.268 517.702 626.318 511.979C622.369 506.256 617.173 501.504 611.12 498.08C609.24 475.68 610.08 452.88 610.12 430.76C613.52 431 621.68 431.76 620.36 428.52C616.36 418.6 609.52 402.04 604.36 392.52C606.44 392.52 608.8 392.52 608.8 390.4C609.44 352 610.68 271.44 610.68 271.44C611.32 223.76 612.92 168.96 579.44 129.72C578.4 128.48 576.96 128.04 576.04 129.32C562.42 148.603 553.465 170.786 549.88 194.12C548.52 171.32 546.72 145.56 543.2 120.08C537.2 76.8402 522.72 47.8002 499.2 30.5602C496.96 28.9202 493.68 26.2802 492.2 27.3202C455.48 53.3202 444.68 98.6802 442.12 132.16C441.2 146.4 440.92 160.84 441.28 175.16C436.36 156.8 419.48 120.96 413.28 129.6C384.4 170.96 386.84 224.4 389.28 271.56C393.28 361.4 394.48 384.56 395 390.6C395 392.56 395 393.88 400.52 393.28C388.88 424.12 386.48 429.28 387.52 430.16C388.56 431.04 392.68 430.76 394.68 430.64C394.4 444.12 397.6 509.64 397.16 513.12C394.256 516.657 391.922 520.624 390.24 524.88C383.422 526.736 377.094 530.065 371.703 534.634C366.312 539.202 361.989 544.898 359.04 551.32C353.719 550.8 348.354 551.682 343.48 553.88C338.68 500.64 328.84 420.16 316.8 366.56C337.4 369.24 347.24 360 352 352C364 331.08 356 296.32 341.12 277.08C328.526 250.286 310.055 226.674 287.08 208C289.52 203.36 283.08 182.28 266.72 173.6C259.72 169.88 250.4 169.6 246.12 165.6C236.96 156.64 243.12 132.8 224.04 126.56C222.806 116.701 220.759 106.962 217.92 97.4402C241.92 87.1202 240.68 59.2002 226.52 51.2802C213.32 43.9202 206.04 54.3602 197.36 57.2802C185.36 61.2802 175.16 52.6402 159.4 52.6402C129.68 52.6402 122.64 82.5602 121.08 84.0402C119.52 85.5202 118.92 93.9602 105.68 99.1602C91.6005 104.64 73.6805 104.96 66.0405 121.52C59.5605 136 72.0005 153.68 63.4405 167.08C58.4405 175.08 40.4805 175.56 27.4405 196.48C13.4805 218.76 18.1605 249 37.4005 261.56C20.8405 298.76 21.6005 338.32 39.3605 364.96C55.6005 389.24 82.0805 398.36 110.84 397.6C109.4 465.36 110 532.92 106.4 601.12C93.4005 601.12 80.3605 601.4 67.6005 601.64C67.2398 601.64 66.8939 601.784 66.6388 602.039C66.3838 602.294 66.2405 602.64 66.2405 603C66.2405 603.361 66.3838 603.707 66.6388 603.962C66.8939 604.217 67.2398 604.36 67.6005 604.36C79.0005 604.6 92.4805 604.84 106.16 604.84C103.96 644.56 101 684.84 97.3605 724.32C97.0005 728.32 106.36 728.08 110.32 728.32C109.227 733.876 108.81 739.544 109.08 745.2C106.04 747.88 101.6 766.2 101.84 769.6C101.84 770.32 102.16 770.76 102.64 770.84C107.04 771.56 173.52 774.84 176.6 771.2C176.677 771.059 176.718 770.901 176.718 770.74C176.718 770.58 176.677 770.421 176.6 770.28C172.16 758.28 156.6 748.16 143.88 744.88L147.32 729.56C149.96 729.56 155.32 729.96 156.08 728.56C173.96 688.24 190.24 646.6 204.44 604.88H262.6C273.681 640.445 283.46 676.403 291.92 712.68C295.32 727.32 292.96 726.52 302.4 726.96C302.356 732.664 303.042 738.35 304.44 743.88C301.373 751.099 299.521 758.776 298.96 766.6C298.883 766.734 298.843 766.886 298.843 767.04C298.843 767.195 298.883 767.346 298.96 767.48C301.48 770.68 373.28 773.36 378.2 770.44C382.2 767.88 360.28 746.64 340.84 742.72C341.121 737.612 341 732.49 340.48 727.4C343.88 727.4 351.72 728.32 351.72 724.96C351.72 687.2 350.44 646.76 347.72 604.96H779C779.541 604.944 780.054 604.714 780.425 604.32C780.797 603.926 780.996 603.401 780.98 602.86C780.965 602.319 780.734 601.807 780.341 601.435C779.947 601.064 779.421 600.864 778.88 600.88ZM237.08 529.52C247.04 556.92 252.36 573.96 261.36 601.24H205.64C215.36 572.48 228.8 529.24 237.64 492.88C240.64 480.88 246.68 485.96 244.48 495.72C241.92 507.76 236.96 529.24 237.08 529.52ZM338 743.12C331.16 746.24 314 746.04 307.32 744.12C306.88 738.4 305.72 732.68 305.64 726.96L337.08 727.32C337.36 732.6 337.68 737.84 338 743.12ZM114 397.56C147.6 395.88 187.56 380.52 221 356.4C221.72 355.88 222.36 355.76 222.56 355.08C222.76 354.4 222.56 353.84 221.36 352.12C230.754 347.722 240.617 344.408 250.76 342.24C254.76 341.52 266.48 339.28 268.6 332.92L277.32 332.68C285.72 350.08 299.08 362.16 314.04 365.92L322.04 413.48C255.96 436.24 195.64 441.08 114.24 430C114.52 419.24 114.56 408.32 114.12 397.56H114ZM218.84 153.76C213.24 168.28 201.56 168.88 203.44 172.32V173.56C204.2 179.92 205.68 193 195.44 202.24C178.16 195.36 167.44 187.44 159.44 175.92C161.12 173 159.44 160.24 159.44 160.12C156.96 147.08 145.6 144.44 148.16 132.64C148.52 130.92 149.04 129.92 149.72 129.6C151.96 128.6 157.72 136.32 158.92 127.36C160.8 114.56 164.4 104.68 177.08 101.08C188.84 97.7602 200.2 103.44 215.4 98.2002C218.84 112.44 224.76 138.2 218.84 153.76ZM196.04 205.76C202.96 204.04 208.88 187.04 207.44 177.52C218.236 179.045 228.867 181.562 239.2 185.04C276.8 198.44 309.44 227.08 331.48 265.96C316.44 251.56 296.76 243.44 278.96 244.56C273.285 235.26 266.764 226.503 259.48 218.4C259.372 218.28 259.239 218.184 259.091 218.118C258.943 218.053 258.783 218.019 258.62 218.019C258.458 218.019 258.298 218.053 258.15 218.118C258.002 218.184 257.869 218.28 257.76 218.4C257.646 218.512 257.554 218.646 257.492 218.793C257.429 218.941 257.397 219.1 257.397 219.26C257.397 219.421 257.429 219.579 257.492 219.727C257.554 219.875 257.646 220.008 257.76 220.12C264.151 228.067 270.043 236.403 275.4 245.08C270.099 245.88 264.988 247.643 260.32 250.28C259.564 250.354 258.815 250.488 258.08 250.68C255.884 251.177 253.649 251.484 251.4 251.6C242.04 251.6 241.68 247.6 238.32 248.04C231.64 248.72 233.6 261.92 248.96 264.72C246.2 272.44 244.96 289.44 250.12 296.72C243.96 296.72 240 295.44 239.76 301.72C239.68 302.852 239.68 303.988 239.76 305.12C237.777 303.844 235.532 303.03 233.192 302.739C230.852 302.449 228.476 302.688 226.24 303.44C222.04 305.04 214.04 313.4 210 316.88C210 315.2 210 312.64 208.52 312.48C183.12 310.36 144.52 309.76 121.4 310.4C120.133 294.081 120.347 277.681 122.04 261.4C122.109 261.066 122.043 260.718 121.855 260.433C121.668 260.148 121.375 259.949 121.04 259.88C120.706 259.811 120.358 259.878 120.073 260.065C119.788 260.253 119.589 260.546 119.52 260.88C118.24 268.08 115.76 297.44 118.36 310.52L85.6005 312.68C85.3586 312.703 85.1293 312.799 84.943 312.955C84.7567 313.111 84.6221 313.32 84.5571 313.554C84.4921 313.788 84.4996 314.036 84.5788 314.266C84.658 314.496 84.805 314.696 85.0005 314.84C85.1132 314.941 85.2474 315.015 85.3929 315.057C85.5384 315.098 85.6914 315.106 85.8405 315.08C126.225 312.607 166.732 312.874 207.08 315.88C207.266 329.396 211.335 342.572 218.8 353.84C165.44 392.28 77.6405 417.4 41.8005 362.92C16.0005 324 28.8005 256 76.6405 214.48C99.4912 194.888 127.293 181.963 157 177.12C164.24 190.92 190.8 206.96 196 205.68L196.04 205.76ZM255.32 254.24C253.282 256.392 251.571 258.832 250.24 261.48C242.76 260.36 238.52 256.44 237.8 253.2C237.24 250.96 238.56 250.04 241.32 251.92C245.662 254.038 250.527 254.845 255.32 254.24ZM274.76 276.28C274.558 276.513 274.438 276.807 274.419 277.115C274.401 277.424 274.485 277.73 274.658 277.985C274.832 278.241 275.085 278.432 275.378 278.529C275.672 278.626 275.989 278.623 276.28 278.52C279.52 277.24 281.04 277.52 281.28 278.12C281.52 278.72 280.24 281.68 277.64 282.96C275.96 283.8 272.72 284.56 270.24 280.04C268.2 276.36 271.68 272.32 270.24 271.48C268.8 270.64 264.72 276.84 268.2 282.28C267.482 282.807 266.622 283.108 265.731 283.143C264.84 283.179 263.959 282.948 263.2 282.48C261.44 281.12 260.24 277.32 262.28 270.48C263.04 267.84 258.56 267.16 258 278.48C257.76 280.04 256.04 289.64 255.52 292.88C255 296.12 254.28 296.36 254.2 296.4C254.12 296.44 253.76 296.4 253.44 295.96C250.6 292.76 247.2 276.48 252.64 263.96C254.332 259.738 257.221 256.102 260.952 253.501C264.683 250.9 269.094 249.447 273.64 249.32C276.314 249.269 278.961 249.865 281.355 251.056C283.75 252.248 285.82 254.001 287.392 256.165C288.963 258.329 289.988 260.841 290.379 263.487C290.771 266.133 290.517 268.834 289.64 271.36C289.21 272.705 288.478 273.933 287.5 274.952C286.523 275.971 285.326 276.754 284 277.24C283.544 276.459 282.909 275.797 282.149 275.307C281.389 274.817 280.523 274.513 279.624 274.419C278.724 274.326 277.815 274.445 276.97 274.769C276.125 275.092 275.368 275.61 274.76 276.28ZM245.32 310.16C244.83 308.781 243.885 307.61 242.64 306.84L243.12 300.36H262.08C262.08 302.52 262.68 308.88 262.68 308.88C256.871 308.906 251.071 309.333 245.32 310.16ZM257.72 296.76C258.777 292.39 259.538 287.953 260 283.48C261.301 284.896 263.067 285.797 264.977 286.018C266.887 286.238 268.812 285.763 270.4 284.68L271.04 285.12C269.329 292.929 269.112 300.991 270.4 308.88H266.4C266.509 305.094 266.092 301.311 265.16 297.64C264 296.6 259.48 296.76 257.72 296.76ZM226.92 306.44C229.601 305.77 232.412 305.82 235.067 306.586C237.722 307.352 240.128 308.806 242.04 310.8C242.76 312 242.64 312.4 242.6 312.52C242.56 312.64 240.2 312.96 238.6 312.88C236.237 312.499 233.813 312.833 231.64 313.84C228.343 316.486 226.182 320.293 225.6 324.48C225 334.68 254.48 333.4 264.56 333.08C257.12 340.68 234.96 338.96 219.96 349.44C214.719 340.399 211.383 330.38 210.16 320C212.8 318.8 222.68 308.28 226.92 306.44ZM352 344.48C343.36 369.72 316.28 363.24 315.16 362.96C296.28 358.2 285.36 340.6 281.24 332.44C285.72 331.4 284.44 327 284 322.76L318.88 321.96C321.68 327.28 328.32 325.52 328 320.2C328.042 319.043 327.676 317.907 326.968 316.991C326.259 316.074 325.252 315.435 324.122 315.183C322.991 314.931 321.808 315.083 320.778 315.612C319.747 316.141 318.934 317.015 318.48 318.08C313.48 317.64 288.88 318.32 283.72 318.88C283.12 308.16 283.72 308.92 273.84 308.96C272.92 301.442 272.92 293.839 273.84 286.32C275.936 286.711 278.102 286.352 279.96 285.306C281.817 284.261 283.248 282.595 284 280.6C290.64 279.76 297.32 268.24 291.44 255.92C290.34 253.852 288.823 252.034 286.984 250.582C285.146 249.129 283.027 248.073 280.76 247.48C311.28 246.68 338.92 271.28 349.96 300.56C350.88 300.16 350.52 300.56 349.96 300.56C355.643 314.536 356.363 330.038 352 344.48ZM144 729.48C142.728 734.519 141.793 739.637 141.2 744.8C131.471 745.807 121.67 745.914 111.92 745.12C112.56 739.56 113.16 734.04 113.76 728.48L144 729.48ZM677.2 565.84C685.92 558.68 724.48 567.8 718.72 601H347.48L344 556.68C364.28 549.64 379.16 560.36 384.4 573.4C385.32 575.84 390.48 573.76 382.44 563.72C377.331 557.406 370.117 553.146 362.12 551.72C381.48 514.44 436.28 520.4 446.92 560.48C447.48 562.6 450.64 561.56 450.08 559.44C446.871 547.621 439.324 537.445 428.944 530.943C418.565 524.441 406.116 522.091 394.08 524.36C397.472 517.542 402.491 511.664 408.693 507.246C414.896 502.828 422.091 500.006 429.643 499.029C437.196 498.053 444.872 498.952 451.995 501.646C459.117 504.341 465.466 508.749 470.48 514.48C474.16 518.48 486.48 541.92 490.48 544.68C487.192 550.319 485.134 556.59 484.44 563.08C479.495 564.892 474.999 567.749 471.258 571.456C467.516 575.162 464.618 579.632 462.76 584.56C462.628 584.863 462.621 585.205 462.741 585.513C462.861 585.82 463.098 586.068 463.4 586.2C463.703 586.333 464.045 586.34 464.353 586.22C464.661 586.1 464.908 585.863 465.04 585.56C467.46 579.954 471.3 575.076 476.18 571.407C481.061 567.738 486.814 565.404 492.871 564.637C498.929 563.87 505.082 564.695 510.723 567.031C516.365 569.368 521.299 573.135 525.04 577.96C525.306 578.332 525.708 578.582 526.158 578.657C526.608 578.732 527.069 578.625 527.44 578.36C527.812 578.095 528.062 577.693 528.138 577.243C528.213 576.793 528.106 576.332 527.84 575.96C523.232 569.859 516.901 565.279 509.664 562.812C502.426 560.345 494.616 560.104 487.24 562.12C488.416 555.751 490.868 549.686 494.45 544.289C498.031 538.893 502.668 534.277 508.08 530.72C514.625 526.525 522.128 524.061 529.885 523.56C537.643 523.059 545.4 524.537 552.43 527.856C559.46 531.175 565.531 536.225 570.073 542.534C574.616 548.842 577.481 556.201 578.4 563.92C578.487 564.319 578.716 564.672 579.044 564.915C579.372 565.157 579.777 565.272 580.183 565.238C580.59 565.204 580.97 565.023 581.253 564.729C581.536 564.435 581.702 564.048 581.72 563.64C580.661 554.835 577.254 546.477 571.856 539.44C566.459 532.403 559.27 526.946 551.04 523.64C553.709 516.597 558.142 510.357 563.913 505.518C569.684 500.678 576.6 497.401 584 496C607.36 492.4 627.4 510.36 630.36 531.52C624.241 532.533 618.43 534.921 613.366 538.502C608.301 542.084 604.115 546.768 601.12 552.2C600.4 553.56 602.6 554.76 603.36 553.44C607.728 546.058 614.399 540.314 622.348 537.091C630.297 533.869 639.085 533.345 647.36 535.6C655.323 538.136 662.251 543.18 667.11 549.979C671.969 556.777 674.499 564.966 674.32 573.32C674.32 574.4 675.76 575.76 676.84 575C677.28 574.72 678.56 573.8 677.24 565.84H677.2ZM445.8 134.32C473.24 129.52 501.8 128.68 541.2 131.6C547.52 185.96 548.44 237.16 549.44 291.84C541.76 274.88 533.96 250.12 534.08 233.04C534.043 213.171 529.213 193.604 520 176C509.04 155.08 494.2 140.28 478.04 157.64C455.64 181.64 457.24 210.6 457.68 242.72C456.196 257.004 453.124 271.078 448.52 284.68C447.12 218 443.24 168.88 445.8 134.32ZM606.12 389.28C603.178 388.82 600.183 388.82 597.24 389.28L597.64 357.76C597.758 357.046 597.71 356.315 597.503 355.622C597.295 354.928 596.931 354.292 596.44 353.76C587.28 346.08 561.64 321.36 553.16 299.32C553.16 276.12 552.8 252.6 551.88 229.4C572.16 228.8 591.12 229.04 607.08 229.4C608.68 268.4 605.68 336.56 606.12 389.28ZM446.36 496.28C438.262 494.48 429.841 494.753 421.877 497.075C413.912 499.396 406.663 503.691 400.8 509.56C400.52 500.96 398.76 447.52 398.16 430.72L443.6 429.84C443.48 437.96 445.6 488.44 446.36 496.28ZM534.92 260.64C542.24 290.92 555.36 323.28 594.16 356.2C594.16 367 592.92 394.32 593.64 404.72C592.84 404.72 533.96 405.12 529.64 405.48C534.116 357.337 535.878 308.981 534.92 260.64ZM458.56 261.24C461.24 310.24 466.16 359 473.24 406.36C463.44 406.12 417.48 404.72 410.8 405.04C410.8 398.48 409.16 360.72 409 357.04C434.477 330.6 451.699 297.31 458.56 261.24ZM446.56 429.76C449.44 429.76 455.8 430.44 455.44 427.6C453.643 421.346 451.189 415.299 448.12 409.56L473.64 409.92C474.24 413.6 474.8 417.28 475.36 420.96C471.6 424.96 464 448.16 462.96 452.36C462.881 452.639 462.868 452.934 462.924 453.219C462.979 453.504 463.101 453.772 463.28 454C464.24 455.2 466.76 455.36 469.44 455.36C457.8 473.8 464.12 496.6 468.56 507.84C463.025 502.987 456.541 499.337 449.52 497.12C450.44 489.8 447.08 436.48 446.6 429.76H446.56ZM467.04 473.12C467.887 466.946 469.896 460.987 472.96 455.56C491.412 456.3 509.889 456.1 528.32 454.96C530.52 463.64 550.56 486.4 525.68 520.6C518.928 521.515 512.444 523.84 506.649 527.423C500.853 531.007 495.876 535.769 492.04 541.4C477.88 520 463.44 498.88 467.08 473.12H467.04ZM531.4 304.24C530.8 344.56 528.32 379.88 525.36 418.52L478.28 419.76C469.4 358.28 465.6 314.28 462.28 263.76C461.36 249.44 460.44 234.6 460.76 220.08C461.28 195.16 466.36 177.4 476.76 164.08C491.48 145.32 503.4 153.68 515.08 174.44C521.788 186.424 526.401 199.464 528.72 213C532.32 233.4 531.6 292.6 531.44 304.24H531.4ZM548.2 522.6C542.446 520.736 536.403 519.923 530.36 520.2C537.09 510.691 540.84 499.396 541.132 487.75C541.424 476.104 538.245 464.634 532 454.8C534.6 454.8 541.52 454.8 540.72 452.36C539.36 447.8 535.52 438.32 532.44 430.68C530.44 425.64 528.44 421.28 528.44 420.12C528.68 418 529.64 408.56 529.64 408.56C533.36 409.16 551.16 408.56 557.2 408.56C552.12 424.56 552.8 422.56 551.72 425.32C550.92 427.44 550.52 428.48 551.04 429.32C551.56 430.16 553.68 430.12 559.04 430.24C559.04 453.32 561 480 562 503C555.52 507.975 550.718 514.815 548.24 522.6H548.2ZM561.6 430.2L607.16 430.64C605.71 452.419 605.79 474.273 607.4 496.04C600.534 493.029 593.005 491.847 585.546 492.612C578.087 493.376 570.954 496.059 564.84 500.4C564 477 563.36 452.96 561.64 430.2H561.6ZM446 131.32C448.76 98.9602 459.4 55.6402 494 30.7602C527.28 53.6002 536.36 92.6002 540.76 127.92C512.4 125.84 472.48 126.12 446.04 131.32H446ZM392 234.64C401.32 234.64 436 234.16 444 234.12C444.72 253.32 445.454 272.547 446.2 291.8C438.8 311 422.2 340.52 406.64 355C405.84 359 406.88 384.76 407.08 389.4C404.16 389.68 401.24 389.96 398.52 390.36C396.92 336.52 392 266.96 392 234.64Z" fill="#191a23"/>
<path d="M198.361 144.2C187.521 143.36 184.761 135.48 182.361 136.2C181.721 136.2 181.441 137.04 181.281 137.48C177.881 144.88 182.201 154.08 189.761 154.08C192.086 153.831 194.301 152.955 196.167 151.546C198.034 150.137 199.483 148.248 200.361 146.08C200.493 145.804 200.534 145.494 200.478 145.193C200.422 144.893 200.271 144.618 200.049 144.409C199.826 144.199 199.542 144.066 199.239 144.029C198.935 143.991 198.628 144.051 198.361 144.2ZM196.441 146.96C191.041 154.16 182.481 150.96 183.321 141.08C184.98 142.917 187.004 144.388 189.262 145.4C191.521 146.413 193.966 146.944 196.441 146.96ZM500.001 319.08C499.937 318.654 499.722 318.265 499.395 317.984C499.069 317.702 498.652 317.548 498.221 317.548C497.79 317.548 497.373 317.702 497.046 317.984C496.72 318.265 496.505 318.654 496.441 319.08C496.441 325.12 498.441 399.64 499.561 407.72C499.561 408.102 499.713 408.468 499.983 408.738C500.253 409.008 500.619 409.16 501.001 409.16C501.383 409.16 501.749 409.008 502.019 408.738C502.289 408.468 502.441 408.102 502.441 407.72C504.241 382.28 500.841 345.44 500.001 319.08ZM184.001 125.36C185.281 125.36 185.681 124 185.401 122.6C184.841 119.8 182.601 119.64 182.041 121.24C181.481 122.84 182.281 125.36 184.001 125.36ZM179.761 108.44C177.96 108.798 176.337 109.765 175.164 111.178C173.992 112.591 173.341 114.364 173.321 116.2C173.641 118.28 175.361 118.28 175.641 116.76C176.481 112.48 178.281 112.76 180.521 111.4C180.844 111.243 181.102 110.978 181.253 110.652C181.403 110.326 181.437 109.958 181.347 109.61C181.258 109.263 181.051 108.956 180.762 108.743C180.473 108.53 180.12 108.423 179.761 108.44ZM588.321 484.44C588.321 485.2 589.801 484.96 589.961 484.2C590.601 481.48 587.641 450.48 588.121 442.08C588.121 441 586.521 441.04 586.441 442.08C585.702 456.228 586.332 470.414 588.321 484.44ZM496.321 516.96C497.121 517.56 498.361 516.6 497.841 515.72C496.321 513.04 494.161 510.96 491.881 506.84C488.381 500.311 486.363 493.092 485.969 485.694C485.575 478.297 486.815 470.904 489.601 464.04C490.041 463.04 488.441 462.44 487.961 463.48C484.561 471.285 483.178 479.819 483.94 488.297C484.702 496.776 487.584 504.927 492.321 512C493.39 513.85 494.74 515.523 496.321 516.96Z" fill="#191a23"/>
</svg>
