<svg width="927" height="220" viewBox="0 0 927 220" fill="none" xmlns="http://www.w3.org/2000/svg">
<path d="M148.79 126V35H169.85V108.84H215.48V126H148.79ZM269.225 126V112.35L267.925 109.36V84.92C267.925 80.5867 266.582 77.2067 263.895 74.78C261.295 72.3533 257.265 71.14 251.805 71.14C248.078 71.14 244.395 71.7467 240.755 72.96C237.202 74.0867 234.168 75.6467 231.655 77.64L224.375 63.47C228.188 60.7833 232.782 58.7033 238.155 57.23C243.528 55.7567 248.988 55.02 254.535 55.02C265.195 55.02 273.472 57.5333 279.365 62.56C285.258 67.5867 288.205 75.43 288.205 86.09V126H269.225ZM247.905 127.04C242.445 127.04 237.765 126.13 233.865 124.31C229.965 122.403 226.975 119.847 224.895 116.64C222.815 113.433 221.775 109.837 221.775 105.85C221.775 101.69 222.772 98.05 224.765 94.93C226.845 91.81 230.095 89.3833 234.515 87.65C238.935 85.83 244.698 84.92 251.805 84.92H270.395V96.75H254.015C249.248 96.75 245.955 97.53 244.135 99.09C242.402 100.65 241.535 102.6 241.535 104.94C241.535 107.54 242.532 109.62 244.525 111.18C246.605 112.653 249.422 113.39 252.975 113.39C256.355 113.39 259.388 112.61 262.075 111.05C264.762 109.403 266.712 107.02 267.925 103.9L271.045 113.26C269.572 117.767 266.885 121.19 262.985 123.53C259.085 125.87 254.058 127.04 247.905 127.04ZM336.069 127.04C330.263 127.04 325.063 125.913 320.469 123.66C315.963 121.407 312.453 117.983 309.939 113.39C307.426 108.71 306.169 102.773 306.169 95.58V56.06H326.449V92.59C326.449 98.3967 327.663 102.687 330.089 105.46C332.603 108.147 336.113 109.49 340.619 109.49C343.739 109.49 346.513 108.84 348.939 107.54C351.366 106.153 353.273 104.073 354.659 101.3C356.046 98.44 356.739 94.8867 356.739 90.64V56.06H377.019V126H357.779V106.76L361.289 112.35C358.949 117.203 355.483 120.887 350.889 123.4C346.383 125.827 341.443 127.04 336.069 127.04ZM438.317 55.02C443.864 55.02 448.804 56.1467 453.137 58.4C457.557 60.5667 461.024 63.9467 463.537 68.54C466.051 73.0467 467.307 78.8533 467.307 85.96V126H447.027V89.08C447.027 83.4467 445.771 79.2867 443.257 76.6C440.831 73.9133 437.364 72.57 432.857 72.57C429.651 72.57 426.747 73.2633 424.147 74.65C421.634 75.95 419.641 77.9867 418.167 80.76C416.781 83.5333 416.087 87.0867 416.087 91.42V126H395.807V56.06H415.177V75.43L411.537 69.58C414.051 64.9 417.647 61.3033 422.327 58.79C427.007 56.2767 432.337 55.02 438.317 55.02ZM519.998 127.04C512.458 127.04 505.741 125.523 499.848 122.49C493.955 119.37 489.318 115.08 485.938 109.62C482.645 104.16 480.998 97.9633 480.998 91.03C480.998 84.01 482.645 77.8133 485.938 72.44C489.318 66.98 493.955 62.7333 499.848 59.7C505.741 56.58 512.458 55.02 519.998 55.02C527.365 55.02 533.778 56.58 539.238 59.7C544.698 62.7333 548.728 67.11 551.328 72.83L535.598 81.28C533.778 77.9867 531.481 75.56 528.708 74C526.021 72.44 523.075 71.66 519.868 71.66C516.401 71.66 513.281 72.44 510.508 74C507.735 75.56 505.525 77.77 503.878 80.63C502.318 83.49 501.538 86.9567 501.538 91.03C501.538 95.1033 502.318 98.57 503.878 101.43C505.525 104.29 507.735 106.5 510.508 108.06C513.281 109.62 516.401 110.4 519.868 110.4C523.075 110.4 526.021 109.663 528.708 108.19C531.481 106.63 533.778 104.16 535.598 100.78L551.328 109.36C548.728 114.993 544.698 119.37 539.238 122.49C533.778 125.523 527.365 127.04 519.998 127.04ZM605.134 55.02C610.68 55.02 615.62 56.1467 619.954 58.4C624.374 60.5667 627.84 63.9467 630.354 68.54C632.867 73.0467 634.124 78.8533 634.124 85.96V126H613.844V89.08C613.844 83.4467 612.587 79.2867 610.074 76.6C607.647 73.9133 604.18 72.57 599.674 72.57C596.467 72.57 593.564 73.2633 590.964 74.65C588.45 75.95 586.457 77.9867 584.984 80.76C583.597 83.5333 582.904 87.0867 582.904 91.42V126H562.624V29.54H582.904V75.43L578.354 69.58C580.867 64.9 584.464 61.3033 589.144 58.79C593.824 56.2767 599.154 55.02 605.134 55.02ZM653.936 126V35H693.326C701.473 35 708.493 36.3433 714.386 39.03C720.28 41.63 724.83 45.4 728.036 50.34C731.243 55.28 732.846 61.1733 732.846 68.02C732.846 74.78 731.243 80.63 728.036 85.57C724.83 90.51 720.28 94.3233 714.386 97.01C708.493 99.61 701.473 100.91 693.326 100.91H665.636L674.996 91.42V126H653.936ZM674.996 93.76L665.636 83.75H692.156C698.656 83.75 703.51 82.3633 706.716 79.59C709.923 76.8167 711.526 72.96 711.526 68.02C711.526 62.9933 709.923 59.0933 706.716 56.32C703.51 53.5467 698.656 52.16 692.156 52.16H665.636L674.996 42.15V93.76ZM788.717 126V112.35L787.417 109.36V84.92C787.417 80.5867 786.074 77.2067 783.387 74.78C780.787 72.3533 776.757 71.14 771.297 71.14C767.57 71.14 763.887 71.7467 760.247 72.96C756.694 74.0867 753.66 75.6467 751.147 77.64L743.867 63.47C747.68 60.7833 752.274 58.7033 757.647 57.23C763.02 55.7567 768.48 55.02 774.027 55.02C784.687 55.02 792.964 57.5333 798.857 62.56C804.75 67.5867 807.697 75.43 807.697 86.09V126H788.717ZM767.397 127.04C761.937 127.04 757.257 126.13 753.357 124.31C749.457 122.403 746.467 119.847 744.387 116.64C742.307 113.433 741.267 109.837 741.267 105.85C741.267 101.69 742.264 98.05 744.257 94.93C746.337 91.81 749.587 89.3833 754.007 87.65C758.427 85.83 764.19 84.92 771.297 84.92H789.887V96.75H773.507C768.74 96.75 765.447 97.53 763.627 99.09C761.894 100.65 761.027 102.6 761.027 104.94C761.027 107.54 762.024 109.62 764.017 111.18C766.097 112.653 768.914 113.39 772.467 113.39C775.847 113.39 778.88 112.61 781.567 111.05C784.254 109.403 786.204 107.02 787.417 103.9L790.537 113.26C789.064 117.767 786.377 121.19 782.477 123.53C778.577 125.87 773.55 127.04 767.397 127.04ZM856.589 127.04C850.003 127.04 844.066 125.567 838.779 122.62C833.493 119.587 829.289 115.383 826.169 110.01C823.136 104.637 821.619 98.31 821.619 91.03C821.619 83.6633 823.136 77.2933 826.169 71.92C829.289 66.5467 833.493 62.3867 838.779 59.44C844.066 56.4933 850.003 55.02 856.589 55.02C862.483 55.02 867.639 56.32 872.059 58.92C876.479 61.52 879.903 65.4633 882.329 70.75C884.756 76.0367 885.969 82.7967 885.969 91.03C885.969 99.1767 884.799 105.937 882.459 111.31C880.119 116.597 876.739 120.54 872.319 123.14C867.986 125.74 862.743 127.04 856.589 127.04ZM860.099 110.4C863.393 110.4 866.383 109.62 869.069 108.06C871.756 106.5 873.879 104.29 875.439 101.43C877.086 98.4833 877.909 95.0167 877.909 91.03C877.909 86.9567 877.086 83.49 875.439 80.63C873.879 77.77 871.756 75.56 869.069 74C866.383 72.44 863.393 71.66 860.099 71.66C856.719 71.66 853.686 72.44 850.999 74C848.313 75.56 846.146 77.77 844.499 80.63C842.939 83.49 842.159 86.9567 842.159 91.03C842.159 95.0167 842.939 98.4833 844.499 101.43C846.146 104.29 848.313 106.5 850.999 108.06C853.686 109.62 856.719 110.4 860.099 110.4ZM878.429 126V111.7L878.819 90.9L877.519 70.23V29.54H897.799V126H878.429Z" fill="#0C0B10"/>
<mask id="mask0_21_37" style="mask-type:luminance" maskUnits="userSpaceOnUse" x="0" y="5" width="116" height="159">
<path d="M115.387 5L0 5L0 164H115.387L115.387 5Z" fill="white"/>
</mask>
<g mask="url(#mask0_21_37)">
<path d="M115.386 84.5009H46.3578L35.0231 43.4645L26.3503 12.0862C26.0906 11.1548 26.0771 10.1718 26.3112 9.23362C26.5453 8.2954 27.019 7.43403 27.6859 6.73384C28.3529 6.03364 29.1901 5.51861 30.1159 5.23916C31.0417 4.9597 32.024 4.9254 32.967 5.1396H32.985C32.9943 5.1384 33.0037 5.1394 33.0126 5.14253C33.0214 5.14566 33.0295 5.15082 33.036 5.1576C33.054 5.1576 33.072 5.1741 33.1065 5.1741C33.1321 5.17938 33.1558 5.19127 33.1755 5.20858C33.3925 5.26506 33.6059 5.33468 33.8143 5.41704C34.1873 5.57357 34.5399 5.77502 34.8641 6.01693C35.1288 6.18236 35.3727 6.37926 35.59 6.6033L105.395 74.7513C105.402 74.7646 105.411 74.7763 105.423 74.7852C105.435 74.794 105.449 74.7999 105.464 74.8023L105.517 74.8548L115.386 84.5009Z" fill="#B9FF66"/>
<path d="M46.3584 84.5007L43.8359 81.7188L42.5746 80.336L0.950305 34.5486C0.441708 33.9892 0.12103 33.2845 0.0332661 32.5336C-0.0544982 31.7826 0.0950538 31.023 0.460944 30.3613C0.826834 29.6998 1.3907 29.1692 2.07342 28.8443C2.75613 28.5194 3.52343 28.4165 4.26765 28.5498L10.0565 31.3662C10.0745 31.3662 10.109 31.3827 10.1255 31.3827L23.188 37.725L33.5359 42.752L35.0206 43.4613L46.3584 84.5007Z" fill="url(#paint0_linear_21_37)"/>
<g style="mix-blend-mode:screen" opacity="0.3">
<path d="M82.5231 79.3167H50.3155L34.6616 22.7119L82.5231 79.3167Z" fill="white"/>
</g>
<g style="mix-blend-mode:multiply" opacity="0.15">
<path d="M46.3589 84.5008L42.4192 76.5523L23.1885 37.728L33.5364 42.7565L35.0226 43.4644L46.3589 84.5008Z" fill="black"/>
</g>
<g style="mix-blend-mode:screen" opacity="0.5">
<path d="M105.4 74.7557C104.605 74.1168 99.9574 70.3151 93.5641 64.5787C90.0218 61.4294 85.9441 57.7191 81.6415 53.6759C79.4999 51.6543 77.2534 49.5802 75.0233 47.4206C72.7932 45.2611 70.5242 43.0835 68.2507 40.9059C66.0221 38.6954 63.7755 36.4833 61.5635 34.2892C59.3529 32.1297 57.2443 29.9401 55.1537 27.827C51.0236 23.6278 47.2053 19.6371 43.975 16.1803C40.7446 12.7235 38.0991 9.80505 36.268 7.74896C35.6359 6.90471 34.8646 6.17439 33.9869 5.58938C33.6854 5.41386 33.3668 5.26917 33.0361 5.15747C34.0037 5.40252 34.8874 5.90343 35.5946 6.60768L105.4 74.7557Z" fill="white"/>
</g>
<g style="mix-blend-mode:multiply" opacity="0.25">
<path d="M115.386 84.5012H46.3576L43.8351 81.7192L42.4194 76.5528L39.7574 66.8257C38.1678 60.7774 36.5616 54.7306 35.0229 48.6478C34.522 46.6772 34.0211 44.7261 33.5382 42.7555L35.0229 43.4648L26.3501 12.0865C28.4062 18.0134 30.2373 23.9912 32.1899 29.9525C34.0556 35.9303 35.8872 41.9201 37.6849 47.9219C39.4845 53.9208 41.2092 59.9316 42.9548 65.9439L47.6714 82.79C52.9758 82.8245 58.2983 82.808 63.6192 82.8935C69.3736 82.9625 75.1279 83.033 80.8808 83.1935C86.6172 83.2969 92.3715 83.4934 98.1274 83.6944C103.879 83.9478 109.633 84.1203 115.386 84.5012Z" fill="black"/>
</g>
<g style="mix-blend-mode:multiply" opacity="0.25">
<path d="M42.5746 80.336L0.950305 34.5486C0.441708 33.9892 0.12103 33.2845 0.0332661 32.5336C-0.0544982 31.7826 0.0950538 31.023 0.460944 30.3613C0.826834 29.6998 1.3907 29.1692 2.07342 28.8443C2.75613 28.5194 3.52343 28.4165 4.26765 28.5498L10.0565 31.3662C8.0529 30.6569 6.08229 29.9145 4.12967 29.1542C3.54948 29.097 2.96583 29.2208 2.45869 29.5084C1.95153 29.7959 1.54569 30.2332 1.29673 30.7604C1.05458 31.235 0.970813 31.7748 1.05772 32.3006C1.14462 32.8262 1.39762 33.3103 1.77964 33.6818L4.85553 36.8087C5.89182 37.8585 6.92962 38.9172 7.94792 39.988C9.98751 42.1131 12.0436 44.2382 14.0307 46.4368C16.0344 48.5978 18.0575 50.7574 20.0086 52.968C21.9597 55.1785 23.9483 57.3576 25.8664 59.6041C27.7845 61.8507 29.7192 64.0793 31.6028 66.3528C35.3865 70.9194 39.1013 75.516 42.5746 80.336Z" fill="black"/>
</g>
<path d="M115.386 84.5007L105.521 94.1423L105.469 94.1934C105.454 94.1961 105.44 94.2023 105.428 94.2114C105.416 94.2204 105.406 94.2323 105.4 94.2458L35.5944 162.392C35.3771 162.617 35.1334 162.814 34.8685 162.98C34.5443 163.222 34.1919 163.424 33.8187 163.58C33.6103 163.662 33.3969 163.731 33.1799 163.788C33.1604 163.806 33.1365 163.818 33.1109 163.823C33.0764 163.823 33.0584 163.839 33.0404 163.839C33.0339 163.847 33.026 163.851 33.0171 163.854C33.0083 163.857 32.9988 163.859 32.9894 163.857H32.9714C32.0285 164.072 31.0461 164.037 30.1203 163.758C29.1945 163.478 28.3573 162.964 27.6903 162.263C27.0234 161.563 26.5497 160.702 26.3156 159.763C26.0815 158.826 26.095 157.842 26.3547 156.911L35.0275 125.533L46.3622 84.4963L115.386 84.5007Z" fill="#B9FF66"/>
<path d="M46.3582 84.5009L35.0235 125.537L33.5388 126.247L23.1908 131.274L10.1284 137.616C10.1119 137.616 10.0774 137.632 10.0594 137.632L4.27059 140.449C3.52636 140.582 2.75905 140.479 2.07634 140.154C1.39363 139.829 0.82977 139.299 0.46388 138.637C0.0979887 137.976 -0.051569 137.216 0.0361952 136.465C0.123959 135.714 0.444637 135.009 0.953234 134.45L42.5775 88.6625L43.8387 87.2798L46.3582 84.5009Z" fill="url(#paint1_linear_21_37)"/>
<g style="mix-blend-mode:screen" opacity="0.3">
<path d="M82.5231 89.6838H50.3155L34.6616 146.289L82.5231 89.6838Z" fill="white"/>
</g>
<g style="mix-blend-mode:multiply" opacity="0.15">
<path d="M46.3589 84.5009L42.4192 92.4493L23.1885 131.274L33.5364 126.245L35.0226 125.537L46.3589 84.5009Z" fill="black"/>
</g>
<g style="mix-blend-mode:screen" opacity="0.5">
<path d="M105.4 94.2458C104.605 94.8847 99.9574 98.6865 93.5641 104.423C90.0218 107.572 85.9441 111.282 81.6415 115.326C79.4999 117.347 77.2534 119.421 75.0233 121.581C72.7932 123.741 70.5242 125.918 68.2507 128.094C66.0221 130.306 63.7755 132.518 61.5635 134.712C59.3529 136.872 57.2443 139.061 55.1537 141.175C51.0236 145.374 47.2053 149.364 43.975 152.82C40.7446 156.275 38.0991 159.196 36.268 161.253C35.6359 162.097 34.8646 162.827 33.9869 163.412C33.6851 163.588 33.3665 163.732 33.0361 163.844C34.0036 163.598 34.8871 163.097 35.5946 162.392L105.4 94.2458Z" fill="white"/>
</g>
<g style="mix-blend-mode:multiply" opacity="0.25">
<path d="M46.3575 84.5009L35.0228 125.537L33.5381 126.247C34.021 124.276 34.5219 122.323 35.0228 120.354C36.5615 114.271 38.1722 108.225 39.7574 102.176L42.4193 92.4493L43.835 87.2828L46.3575 84.5009Z" fill="black"/>
</g>
<g style="mix-blend-mode:multiply" opacity="0.25">
<path d="M42.5746 88.6655L0.950305 134.453C0.441708 135.012 0.12103 135.717 0.0332661 136.468C-0.0544982 137.219 0.0950538 137.979 0.460944 138.64C0.826834 139.302 1.3907 139.832 2.07342 140.157C2.75613 140.482 3.52343 140.585 4.26765 140.452L10.0565 137.635C8.0529 138.345 6.08229 139.087 4.12967 139.847C3.54929 139.905 2.96542 139.781 2.45822 139.493C1.95101 139.205 1.54528 138.767 1.29673 138.24C1.05446 137.765 0.970626 137.226 1.05754 136.7C1.14445 136.175 1.39754 135.691 1.77964 135.32L4.85553 132.193C5.89182 131.143 6.92962 130.084 7.94792 129.014C9.98751 126.888 12.0436 124.763 14.0307 122.565C16.0344 120.405 18.0575 118.246 20.0086 116.034C21.9597 113.822 23.9483 111.645 25.8664 109.399C27.7845 107.152 29.7192 104.924 31.6028 102.643C35.3865 98.0822 39.1013 93.4856 42.5746 88.6655Z" fill="black"/>
</g>
<g style="mix-blend-mode:screen" opacity="0.5">
<path d="M115.386 84.501C109.633 84.8804 103.879 85.0544 98.1259 85.3123C92.3715 85.5208 86.6172 85.7098 80.8793 85.8147C75.1264 85.9647 69.3721 86.0382 63.6177 86.1147C58.2968 86.2017 52.9698 86.1837 47.6699 86.2182L42.9548 103.052C41.2092 109.065 39.4815 115.078 37.6849 121.074C35.8882 127.07 34.0556 133.064 32.1899 139.044C30.2403 145.005 28.4062 150.983 26.3501 156.909L35.0229 125.531L46.3576 84.495L115.386 84.501Z" fill="white"/>
</g>
</g>
<path d="M427.3 203.56C423.987 203.56 421.14 202.86 418.76 201.46C416.38 200.06 414.56 197.937 413.3 195.09C412.04 192.197 411.41 188.557 411.41 184.17C411.41 179.737 412.063 176.097 413.37 173.25C414.723 170.403 416.59 168.28 418.97 166.88C421.35 165.48 424.127 164.78 427.3 164.78C430.847 164.78 434.02 165.573 436.82 167.16C439.667 168.747 441.907 170.987 443.54 173.88C445.22 176.773 446.06 180.203 446.06 184.17C446.06 188.09 445.22 191.497 443.54 194.39C441.907 197.283 439.667 199.547 436.82 201.18C434.02 202.767 430.847 203.56 427.3 203.56ZM405.04 203V151.06H415.96V172.97L415.26 184.1L415.47 195.3V203H405.04ZM425.41 194.6C427.23 194.6 428.84 194.18 430.24 193.34C431.687 192.5 432.83 191.31 433.67 189.77C434.557 188.183 435 186.317 435 184.17C435 181.977 434.557 180.11 433.67 178.57C432.83 177.03 431.687 175.84 430.24 175C428.84 174.16 427.23 173.74 425.41 173.74C423.59 173.74 421.957 174.16 420.51 175C419.063 175.84 417.92 177.03 417.08 178.57C416.24 180.11 415.82 181.977 415.82 184.17C415.82 186.317 416.24 188.183 417.08 189.77C417.92 191.31 419.063 192.5 420.51 193.34C421.957 194.18 423.59 194.6 425.41 194.6ZM457.105 217.14C455.145 217.14 453.208 216.837 451.295 216.23C449.381 215.623 447.818 214.783 446.605 213.71L450.595 205.94C451.435 206.687 452.391 207.27 453.465 207.69C454.585 208.11 455.681 208.32 456.755 208.32C458.295 208.32 459.508 207.947 460.395 207.2C461.328 206.5 462.168 205.31 462.915 203.63L464.875 199.01L465.715 197.82L479.225 165.34H489.725L472.715 205.31C471.501 208.343 470.101 210.723 468.515 212.45C466.975 214.177 465.248 215.39 463.335 216.09C461.468 216.79 459.391 217.14 457.105 217.14ZM463.545 204.47L446.745 165.34H458.015L471.035 196.84L463.545 204.47ZM514.775 203V154H537.035C542.355 154 547.045 155.027 551.105 157.08C555.165 159.087 558.338 161.91 560.625 165.55C562.912 169.19 564.055 173.507 564.055 178.5C564.055 183.447 562.912 187.763 560.625 191.45C558.338 195.09 555.165 197.937 551.105 199.99C547.045 201.997 542.355 203 537.035 203H514.775ZM526.115 193.69H536.475C539.742 193.69 542.565 193.083 544.945 191.87C547.372 190.61 549.238 188.837 550.545 186.55C551.898 184.263 552.575 181.58 552.575 178.5C552.575 175.373 551.898 172.69 550.545 170.45C549.238 168.163 547.372 166.413 544.945 165.2C542.565 163.94 539.742 163.31 536.475 163.31H526.115V193.69ZM590.527 203.56C586.234 203.56 582.454 202.72 579.187 201.04C575.967 199.36 573.47 197.073 571.697 194.18C569.924 191.24 569.037 187.903 569.037 184.17C569.037 180.39 569.9 177.053 571.627 174.16C573.4 171.22 575.804 168.933 578.837 167.3C581.87 165.62 585.3 164.78 589.127 164.78C592.814 164.78 596.127 165.573 599.067 167.16C602.054 168.7 604.41 170.94 606.137 173.88C607.864 176.773 608.727 180.25 608.727 184.31C608.727 184.73 608.704 185.22 608.657 185.78C608.61 186.293 608.564 186.783 608.517 187.25H577.927V180.88H602.777L598.577 182.77C598.577 180.81 598.18 179.107 597.387 177.66C596.594 176.213 595.497 175.093 594.097 174.3C592.697 173.46 591.064 173.04 589.197 173.04C587.33 173.04 585.674 173.46 584.227 174.3C582.827 175.093 581.73 176.237 580.937 177.73C580.144 179.177 579.747 180.903 579.747 182.91V184.59C579.747 186.643 580.19 188.463 581.077 190.05C582.01 191.59 583.294 192.78 584.927 193.62C586.607 194.413 588.567 194.81 590.807 194.81C592.814 194.81 594.564 194.507 596.057 193.9C597.597 193.293 598.997 192.383 600.257 191.17L606.067 197.47C604.34 199.43 602.17 200.947 599.557 202.02C596.944 203.047 593.934 203.56 590.527 203.56ZM634.687 203.56C630.394 203.56 626.614 202.72 623.347 201.04C620.127 199.36 617.63 197.073 615.857 194.18C614.084 191.24 613.197 187.903 613.197 184.17C613.197 180.39 614.06 177.053 615.787 174.16C617.56 171.22 619.964 168.933 622.997 167.3C626.03 165.62 629.46 164.78 633.287 164.78C636.974 164.78 640.287 165.573 643.227 167.16C646.214 168.7 648.57 170.94 650.297 173.88C652.024 176.773 652.887 180.25 652.887 184.31C652.887 184.73 652.864 185.22 652.817 185.78C652.77 186.293 652.724 186.783 652.677 187.25H622.087V180.88H646.937L642.737 182.77C642.737 180.81 642.34 179.107 641.547 177.66C640.754 176.213 639.657 175.093 638.257 174.3C636.857 173.46 635.224 173.04 633.357 173.04C631.49 173.04 629.834 173.46 628.387 174.3C626.987 175.093 625.89 176.237 625.097 177.73C624.304 179.177 623.907 180.903 623.907 182.91V184.59C623.907 186.643 624.35 188.463 625.237 190.05C626.17 191.59 627.454 192.78 629.087 193.62C630.767 194.413 632.727 194.81 634.967 194.81C636.974 194.81 638.724 194.507 640.217 193.9C641.757 193.293 643.157 192.383 644.417 191.17L650.227 197.47C648.5 199.43 646.33 200.947 643.717 202.02C641.104 203.047 638.094 203.56 634.687 203.56ZM657.357 217.14C655.677 217.14 654.067 216.953 652.527 216.58C650.987 216.253 649.681 215.74 648.607 215.04L651.547 207.13C652.807 208.017 654.347 208.46 656.167 208.46C657.521 208.46 658.594 207.993 659.387 207.06C660.227 206.173 660.647 204.82 660.647 203V165.34H671.567V202.93C671.567 207.27 670.331 210.723 667.857 213.29C665.384 215.857 661.884 217.14 657.357 217.14ZM666.107 160.09C664.101 160.09 662.467 159.507 661.207 158.34C659.947 157.173 659.317 155.727 659.317 154C659.317 152.273 659.947 150.827 661.207 149.66C662.467 148.493 664.101 147.91 666.107 147.91C668.114 147.91 669.747 148.47 671.007 149.59C672.267 150.663 672.897 152.063 672.897 153.79C672.897 155.61 672.267 157.127 671.007 158.34C669.794 159.507 668.161 160.09 666.107 160.09ZM704.722 203V195.65L704.022 194.04V180.88C704.022 178.547 703.299 176.727 701.852 175.42C700.452 174.113 698.282 173.46 695.342 173.46C693.335 173.46 691.352 173.787 689.392 174.44C687.479 175.047 685.845 175.887 684.492 176.96L680.572 169.33C682.625 167.883 685.099 166.763 687.992 165.97C690.885 165.177 693.825 164.78 696.812 164.78C702.552 164.78 707.009 166.133 710.182 168.84C713.355 171.547 714.942 175.77 714.942 181.51V203H704.722ZM693.242 203.56C690.302 203.56 687.782 203.07 685.682 202.09C683.582 201.063 681.972 199.687 680.852 197.96C679.732 196.233 679.172 194.297 679.172 192.15C679.172 189.91 679.709 187.95 680.782 186.27C681.902 184.59 683.652 183.283 686.032 182.35C688.412 181.37 691.515 180.88 695.342 180.88H705.352V187.25H696.532C693.965 187.25 692.192 187.67 691.212 188.51C690.279 189.35 689.812 190.4 689.812 191.66C689.812 193.06 690.349 194.18 691.422 195.02C692.542 195.813 694.059 196.21 695.972 196.21C697.792 196.21 699.425 195.79 700.872 194.95C702.319 194.063 703.369 192.78 704.022 191.1L705.702 196.14C704.909 198.567 703.462 200.41 701.362 201.67C699.262 202.93 696.555 203.56 693.242 203.56ZM728.902 217.14C726.942 217.14 725.005 216.837 723.092 216.23C721.178 215.623 719.615 214.783 718.402 213.71L722.392 205.94C723.232 206.687 724.188 207.27 725.262 207.69C726.382 208.11 727.478 208.32 728.552 208.32C730.092 208.32 731.305 207.947 732.192 207.2C733.125 206.5 733.965 205.31 734.712 203.63L736.672 199.01L737.512 197.82L751.022 165.34H761.522L744.512 205.31C743.298 208.343 741.898 210.723 740.312 212.45C738.772 214.177 737.045 215.39 735.132 216.09C733.265 216.79 731.188 217.14 728.902 217.14ZM735.342 204.47L718.542 165.34H729.812L742.832 196.84L735.342 204.47ZM766.748 203V154H789.008C794.328 154 799.018 155.027 803.078 157.08C807.138 159.087 810.311 161.91 812.598 165.55C814.884 169.19 816.028 173.507 816.028 178.5C816.028 183.447 814.884 187.763 812.598 191.45C810.311 195.09 807.138 197.937 803.078 199.99C799.018 201.997 794.328 203 789.008 203H766.748ZM778.088 193.69H788.448C791.714 193.69 794.538 193.083 796.917 191.87C799.344 190.61 801.211 188.837 802.518 186.55C803.871 184.263 804.548 181.58 804.548 178.5C804.548 175.373 803.871 172.69 802.518 170.45C801.211 168.163 799.344 166.413 796.917 165.2C794.538 163.94 791.714 163.31 788.448 163.31H778.088V193.69ZM842.5 203.56C838.206 203.56 834.426 202.72 831.16 201.04C827.94 199.36 825.443 197.073 823.67 194.18C821.896 191.24 821.01 187.903 821.01 184.17C821.01 180.39 821.873 177.053 823.6 174.16C825.373 171.22 827.776 168.933 830.81 167.3C833.843 165.62 837.273 164.78 841.1 164.78C844.786 164.78 848.1 165.573 851.04 167.16C854.026 168.7 856.383 170.94 858.11 173.88C859.836 176.773 860.7 180.25 860.7 184.31C860.7 184.73 860.676 185.22 860.63 185.78C860.583 186.293 860.536 186.783 860.49 187.25H829.9V180.88H854.75L850.55 182.77C850.55 180.81 850.153 179.107 849.36 177.66C848.566 176.213 847.47 175.093 846.07 174.3C844.67 173.46 843.036 173.04 841.17 173.04C839.303 173.04 837.646 173.46 836.2 174.3C834.8 175.093 833.703 176.237 832.91 177.73C832.116 179.177 831.72 180.903 831.72 182.91V184.59C831.72 186.643 832.163 188.463 833.05 190.05C833.983 191.59 835.266 192.78 836.9 193.62C838.58 194.413 840.54 194.81 842.78 194.81C844.786 194.81 846.536 194.507 848.03 193.9C849.57 193.293 850.97 192.383 852.23 191.17L858.04 197.47C856.313 199.43 854.143 200.947 851.53 202.02C848.916 203.047 845.906 203.56 842.5 203.56ZM877.506 203L861.686 165.34H872.956L886.116 197.75H880.516L894.166 165.34H904.666L888.776 203H877.506Z" fill="black"/>
<defs>
<linearGradient id="paint0_linear_21_37" x1="0.00878909" y1="56.4969" x2="46.3584" y2="56.4969" gradientUnits="userSpaceOnUse">
<stop stop-color="#B9FF66"/>
<stop offset="0.238" stop-color="#B9FF66"/>
<stop offset="0.44" stop-color="#99D64F"/>
<stop offset="0.629" stop-color="#B9FF66"/>
<stop offset="0.81" stop-color="#99D64F"/>
<stop offset="0.983" stop-color="#B9FF66"/>
<stop offset="1" stop-color="#B9FF66"/>
</linearGradient>
<linearGradient id="paint1_linear_21_37" x1="0.0117187" y1="112.503" x2="46.3582" y2="112.503" gradientUnits="userSpaceOnUse">
<stop stop-color="#99D64F"/>
<stop offset="0.238" stop-color="#B9FF66"/>
<stop offset="0.44" stop-color="#99D64F"/>
<stop offset="0.629" stop-color="#B9FF66"/>
<stop offset="0.81" stop-color="#99D64F"/>
<stop offset="0.983" stop-color="#B9FF66"/>
<stop offset="1" stop-color="#99D64F"/>
</linearGradient>
</defs>
</svg>
