<svg width="1206" height="164" viewBox="0 0 1206 164" fill="none" xmlns="http://www.w3.org/2000/svg">
<path d="M192.86 127.56C185.753 127.56 179.123 126.39 172.97 124.05C166.903 121.71 161.617 118.417 157.11 114.17C152.69 109.923 149.223 104.94 146.71 99.22C144.283 93.5 143.07 87.26 143.07 80.5C143.07 73.74 144.283 67.5 146.71 61.78C149.223 56.06 152.733 51.0767 157.24 46.83C161.747 42.5833 167.033 39.29 173.1 36.95C179.167 34.61 185.753 33.44 192.86 33.44C200.053 33.44 206.64 34.61 212.62 36.95C218.687 39.29 223.93 42.5833 228.35 46.83C232.857 50.99 236.367 55.93 238.88 61.65C241.393 67.37 242.65 73.6533 242.65 80.5C242.65 87.26 241.393 93.5433 238.88 99.35C236.367 105.07 232.857 110.053 228.35 114.3C223.93 118.46 218.687 121.71 212.62 124.05C206.64 126.39 200.053 127.56 192.86 127.56ZM222.63 146.93C219.077 146.93 215.697 146.54 212.49 145.76C209.37 144.98 206.25 143.723 203.13 141.99C200.097 140.257 196.89 137.917 193.51 134.97C190.217 132.023 186.62 128.383 182.72 124.05L204.82 118.46C207.16 121.667 209.327 124.223 211.32 126.13C213.313 128.037 215.22 129.38 217.04 130.16C218.947 130.94 220.94 131.33 223.02 131.33C228.567 131.33 233.507 129.077 237.84 124.57L247.2 135.75C241.047 143.203 232.857 146.93 222.63 146.93ZM192.86 109.62C196.933 109.62 200.66 108.927 204.04 107.54C207.507 106.153 210.54 104.16 213.14 101.56C215.74 98.96 217.733 95.8833 219.12 92.33C220.593 88.69 221.33 84.7467 221.33 80.5C221.33 76.1667 220.593 72.2233 219.12 68.67C217.733 65.1167 215.74 62.04 213.14 59.44C210.54 56.84 207.507 54.8467 204.04 53.46C200.66 52.0733 196.933 51.38 192.86 51.38C188.787 51.38 185.017 52.0733 181.55 53.46C178.083 54.8467 175.05 56.84 172.45 59.44C169.937 62.04 167.943 65.1167 166.47 68.67C165.083 72.2233 164.39 76.1667 164.39 80.5C164.39 84.7467 165.083 88.69 166.47 92.33C167.943 95.8833 169.937 98.96 172.45 101.56C175.05 104.16 178.083 106.153 181.55 107.54C185.017 108.927 188.787 109.62 192.86 109.62ZM286.558 127.04C280.751 127.04 275.551 125.913 270.958 123.66C266.451 121.407 262.941 117.983 260.428 113.39C257.914 108.71 256.658 102.773 256.658 95.58V56.06H276.938V92.59C276.938 98.3967 278.151 102.687 280.578 105.46C283.091 108.147 286.601 109.49 291.108 109.49C294.228 109.49 297.001 108.84 299.428 107.54C301.854 106.153 303.761 104.073 305.148 101.3C306.534 98.44 307.228 94.8867 307.228 90.64V56.06H327.508V126H308.268V106.76L311.778 112.35C309.438 117.203 305.971 120.887 301.378 123.4C296.871 125.827 291.931 127.04 286.558 127.04ZM346.296 126V56.06H366.576V126H346.296ZM356.436 46.31C352.709 46.31 349.676 45.2267 347.336 43.06C344.996 40.8933 343.826 38.2067 343.826 35C343.826 31.7933 344.996 29.1067 347.336 26.94C349.676 24.7733 352.709 23.69 356.436 23.69C360.162 23.69 363.196 24.73 365.536 26.81C367.876 28.8033 369.046 31.4033 369.046 34.61C369.046 37.99 367.876 40.8067 365.536 43.06C363.282 45.2267 360.249 46.31 356.436 46.31ZM419.197 127.04C411.657 127.04 404.94 125.523 399.047 122.49C393.154 119.37 388.517 115.08 385.137 109.62C381.844 104.16 380.197 97.9633 380.197 91.03C380.197 84.01 381.844 77.8133 385.137 72.44C388.517 66.98 393.154 62.7333 399.047 59.7C404.94 56.58 411.657 55.02 419.197 55.02C426.564 55.02 432.977 56.58 438.437 59.7C443.897 62.7333 447.927 67.11 450.527 72.83L434.797 81.28C432.977 77.9867 430.68 75.56 427.907 74C425.22 72.44 422.274 71.66 419.067 71.66C415.6 71.66 412.48 72.44 409.707 74C406.934 75.56 404.724 77.77 403.077 80.63C401.517 83.49 400.737 86.9567 400.737 91.03C400.737 95.1033 401.517 98.57 403.077 101.43C404.724 104.29 406.934 106.5 409.707 108.06C412.48 109.62 415.6 110.4 419.067 110.4C422.274 110.4 425.22 109.663 427.907 108.19C430.68 106.63 432.977 104.16 434.797 100.78L450.527 109.36C447.927 114.993 443.897 119.37 438.437 122.49C432.977 125.523 426.564 127.04 419.197 127.04ZM478.593 111.7L479.113 87L511.743 56.06H535.923L504.593 87.91L494.063 96.49L478.593 111.7ZM461.823 126V29.54H482.103V126H461.823ZM513.953 126L490.293 96.62L503.033 80.89L538.523 126H513.953ZM568.443 71.66H612.253V88.04H568.443V71.66ZM570.003 109.1H619.533V126H549.073V35H617.843V51.9H570.003V109.1ZM668.279 127.04C660.739 127.04 654.022 125.523 648.129 122.49C642.236 119.37 637.599 115.08 634.219 109.62C630.926 104.16 629.279 97.9633 629.279 91.03C629.279 84.01 630.926 77.8133 634.219 72.44C637.599 66.98 642.236 62.7333 648.129 59.7C654.022 56.58 660.739 55.02 668.279 55.02C675.646 55.02 682.059 56.58 687.519 59.7C692.979 62.7333 697.009 67.11 699.609 72.83L683.879 81.28C682.059 77.9867 679.762 75.56 676.989 74C674.302 72.44 671.356 71.66 668.149 71.66C664.682 71.66 661.562 72.44 658.789 74C656.016 75.56 653.806 77.77 652.159 80.63C650.599 83.49 649.819 86.9567 649.819 91.03C649.819 95.1033 650.599 98.57 652.159 101.43C653.806 104.29 656.016 106.5 658.789 108.06C661.562 109.62 664.682 110.4 668.149 110.4C671.356 110.4 674.302 109.663 676.989 108.19C679.762 106.63 682.059 104.16 683.879 100.78L699.609 109.36C697.009 114.993 692.979 119.37 687.519 122.49C682.059 125.523 675.646 127.04 668.279 127.04ZM743.677 127.04C736.224 127.04 729.594 125.48 723.787 122.36C718.067 119.24 713.517 114.993 710.137 109.62C706.844 104.16 705.197 97.9633 705.197 91.03C705.197 84.01 706.844 77.8133 710.137 72.44C713.517 66.98 718.067 62.7333 723.787 59.7C729.594 56.58 736.224 55.02 743.677 55.02C751.044 55.02 757.63 56.58 763.437 59.7C769.244 62.7333 773.794 66.9367 777.087 72.31C780.38 77.6833 782.027 83.9233 782.027 91.03C782.027 97.9633 780.38 104.16 777.087 109.62C773.794 114.993 769.244 119.24 763.437 122.36C757.63 125.48 751.044 127.04 743.677 127.04ZM743.677 110.4C747.057 110.4 750.09 109.62 752.777 108.06C755.464 106.5 757.587 104.29 759.147 101.43C760.707 98.4833 761.487 95.0167 761.487 91.03C761.487 86.9567 760.707 83.49 759.147 80.63C757.587 77.77 755.464 75.56 752.777 74C750.09 72.44 747.057 71.66 743.677 71.66C740.297 71.66 737.264 72.44 734.577 74C731.89 75.56 729.724 77.77 728.077 80.63C726.517 83.49 725.737 86.9567 725.737 91.03C725.737 95.0167 726.517 98.4833 728.077 101.43C729.724 104.29 731.89 106.5 734.577 108.06C737.264 109.62 740.297 110.4 743.677 110.4ZM885.153 55.02C890.699 55.02 895.596 56.1467 899.843 58.4C904.176 60.5667 907.556 63.9467 909.983 68.54C912.496 73.0467 913.753 78.8533 913.753 85.96V126H893.473V89.08C893.473 83.4467 892.303 79.2867 889.963 76.6C887.623 73.9133 884.329 72.57 880.083 72.57C877.136 72.57 874.493 73.2633 872.153 74.65C869.813 75.95 867.993 77.9433 866.693 80.63C865.393 83.3167 864.743 86.74 864.743 90.9V126H844.463V89.08C844.463 83.4467 843.293 79.2867 840.953 76.6C838.699 73.9133 835.449 72.57 831.203 72.57C828.256 72.57 825.613 73.2633 823.273 74.65C820.933 75.95 819.113 77.9433 817.813 80.63C816.513 83.3167 815.863 86.74 815.863 90.9V126H795.583V56.06H814.953V75.17L811.313 69.58C813.739 64.8133 817.163 61.2167 821.583 58.79C826.089 56.2767 831.203 55.02 836.923 55.02C843.336 55.02 848.926 56.6667 853.693 59.96C858.546 63.1667 861.753 68.1067 863.313 74.78L856.163 72.83C858.503 67.37 862.229 63.0367 867.343 59.83C872.543 56.6233 878.479 55.02 885.153 55.02ZM963.26 127.56C955.98 127.56 949.004 126.607 942.33 124.7C935.657 122.707 930.284 120.15 926.21 117.03L933.36 101.17C937.26 103.943 941.854 106.24 947.14 108.06C952.514 109.793 957.93 110.66 963.39 110.66C967.55 110.66 970.887 110.27 973.4 109.49C976 108.623 977.907 107.453 979.12 105.98C980.334 104.507 980.94 102.817 980.94 100.91C980.94 98.4833 979.987 96.5767 978.08 95.19C976.174 93.7167 973.66 92.5467 970.54 91.68C967.42 90.7267 963.954 89.86 960.14 89.08C956.414 88.2133 952.644 87.1733 948.83 85.96C945.104 84.7467 941.68 83.1867 938.56 81.28C935.44 79.3733 932.884 76.86 930.89 73.74C928.984 70.62 928.03 66.6333 928.03 61.78C928.03 56.58 929.417 51.8567 932.19 47.61C935.05 43.2767 939.297 39.8533 944.93 37.34C950.65 34.74 957.8 33.44 966.38 33.44C972.1 33.44 977.734 34.1333 983.28 35.52C988.827 36.82 993.724 38.8133 997.97 41.5L991.47 57.49C987.224 55.0633 982.977 53.2867 978.73 52.16C974.484 50.9467 970.324 50.34 966.25 50.34C962.177 50.34 958.84 50.8167 956.24 51.77C953.64 52.7233 951.777 53.98 950.65 55.54C949.524 57.0133 948.96 58.7467 948.96 60.74C948.96 63.08 949.914 64.9867 951.82 66.46C953.727 67.8467 956.24 68.9733 959.36 69.84C962.48 70.7067 965.904 71.5733 969.63 72.44C973.444 73.3067 977.214 74.3033 980.94 75.43C984.754 76.5567 988.22 78.0733 991.34 79.98C994.46 81.8867 996.974 84.4 998.88 87.52C1000.87 90.64 1001.87 94.5833 1001.87 99.35C1001.87 104.463 1000.44 109.143 997.58 113.39C994.72 117.637 990.43 121.06 984.71 123.66C979.077 126.26 971.927 127.56 963.26 127.56ZM1014.83 126V56.06H1035.11V126H1014.83ZM1024.97 46.31C1021.24 46.31 1018.21 45.2267 1015.87 43.06C1013.53 40.8933 1012.36 38.2067 1012.36 35C1012.36 31.7933 1013.53 29.1067 1015.87 26.94C1018.21 24.7733 1021.24 23.69 1024.97 23.69C1028.7 23.69 1031.73 24.73 1034.07 26.81C1036.41 28.8033 1037.58 31.4033 1037.58 34.61C1037.58 37.99 1036.41 40.8067 1034.07 43.06C1031.82 45.2267 1028.78 46.31 1024.97 46.31ZM1082.53 127.04C1074.3 127.04 1067.89 124.96 1063.29 120.8C1058.7 116.553 1056.4 110.27 1056.4 101.95V40.59H1076.68V101.69C1076.68 104.637 1077.46 106.933 1079.02 108.58C1080.58 110.14 1082.71 110.92 1085.39 110.92C1088.6 110.92 1091.33 110.053 1093.58 108.32L1099.04 122.62C1096.96 124.093 1094.45 125.22 1091.5 126C1088.64 126.693 1085.65 127.04 1082.53 127.04ZM1045.61 73.22V57.62H1094.1V73.22H1045.61ZM1142.98 127.04C1135 127.04 1127.98 125.48 1121.92 122.36C1115.94 119.24 1111.3 114.993 1108.01 109.62C1104.71 104.16 1103.07 97.9633 1103.07 91.03C1103.07 84.01 1104.67 77.8133 1107.88 72.44C1111.17 66.98 1115.63 62.7333 1121.27 59.7C1126.9 56.58 1133.27 55.02 1140.38 55.02C1147.22 55.02 1153.38 56.4933 1158.84 59.44C1164.38 62.3 1168.76 66.46 1171.97 71.92C1175.17 77.2933 1176.78 83.75 1176.78 91.29C1176.78 92.07 1176.73 92.98 1176.65 94.02C1176.56 94.9733 1176.47 95.8833 1176.39 96.75H1119.58V84.92H1165.73L1157.93 88.43C1157.93 84.79 1157.19 81.6267 1155.72 78.94C1154.24 76.2533 1152.21 74.1733 1149.61 72.7C1147.01 71.14 1143.97 70.36 1140.51 70.36C1137.04 70.36 1133.96 71.14 1131.28 72.7C1128.68 74.1733 1126.64 76.2967 1125.17 79.07C1123.69 81.7567 1122.96 84.9633 1122.96 88.69V91.81C1122.96 95.6233 1123.78 99.0033 1125.43 101.95C1127.16 104.81 1129.54 107.02 1132.58 108.58C1135.7 110.053 1139.34 110.79 1143.5 110.79C1147.22 110.79 1150.47 110.227 1153.25 109.1C1156.11 107.973 1158.71 106.283 1161.05 104.03L1171.84 115.73C1168.63 119.37 1164.6 122.187 1159.75 124.18C1154.89 126.087 1149.3 127.04 1142.98 127.04Z" fill="#0C0B10"/>
<mask id="mask0_512_180" style="mask-type:luminance" maskUnits="userSpaceOnUse" x="0" y="5" width="116" height="159">
<path d="M115.387 5L0 5L0 164H115.387L115.387 5Z" fill="white"/>
</mask>
<g mask="url(#mask0_512_180)">
<path d="M115.386 84.5009H46.3581L35.0233 43.4645L26.3505 12.0862C26.0908 11.1548 26.0773 10.1718 26.3114 9.23362C26.5455 8.2954 27.0192 7.43403 27.6862 6.73384C28.3531 6.03364 29.1904 5.51861 30.1161 5.23916C31.0419 4.9597 32.0242 4.9254 32.9672 5.1396H32.9852C32.9945 5.1384 33.004 5.1394 33.0128 5.14253C33.0217 5.14566 33.0298 5.15082 33.0362 5.1576C33.0542 5.1576 33.0722 5.1741 33.1067 5.1741C33.1323 5.17938 33.156 5.19127 33.1757 5.20858C33.3927 5.26506 33.6061 5.33468 33.8145 5.41704C34.1875 5.57357 34.5401 5.77502 34.8643 6.01693C35.129 6.18236 35.3729 6.37926 35.5902 6.6033L105.395 74.7513C105.402 74.7646 105.412 74.7763 105.424 74.7852C105.436 74.794 105.45 74.7999 105.464 74.8023L105.517 74.8548L115.386 84.5009Z" fill="#B9FF66"/>
<path d="M46.3584 84.5007L43.8359 81.7188L42.5747 80.336L0.950373 34.5486C0.441776 33.9892 0.121099 33.2845 0.0333347 32.5336C-0.0544295 31.7826 0.0951225 31.023 0.461013 30.3613C0.826903 29.6998 1.39077 29.1692 2.07348 28.8443C2.75619 28.5194 3.5235 28.4165 4.26771 28.5498L10.0566 31.3662C10.0746 31.3662 10.1091 31.3827 10.1256 31.3827L23.188 37.725L33.536 42.752L35.0207 43.4613L46.3584 84.5007Z" fill="url(#paint0_linear_512_180)"/>
<g style="mix-blend-mode:screen" opacity="0.3">
<path d="M82.5231 79.3167H50.3155L34.6616 22.7119L82.5231 79.3167Z" fill="white"/>
</g>
<g style="mix-blend-mode:multiply" opacity="0.15">
<path d="M46.3588 84.5008L42.419 76.5523L23.1884 37.728L33.5363 42.7565L35.0225 43.4644L46.3588 84.5008Z" fill="black"/>
</g>
<g style="mix-blend-mode:screen" opacity="0.5">
<path d="M105.4 74.7557C104.605 74.1168 99.9573 70.3151 93.5641 64.5787C90.0218 61.4294 85.9441 57.7191 81.6414 53.6759C79.4998 51.6543 77.2533 49.5802 75.0232 47.4206C72.7932 45.2611 70.5241 43.0835 68.2506 40.9059C66.022 38.6954 63.7755 36.4833 61.5634 34.2892C59.3528 32.1297 57.2443 29.9401 55.1537 27.827C51.0235 23.6278 47.2052 19.6371 43.9749 16.1803C40.7445 12.7235 38.0991 9.80505 36.2679 7.74896C35.6358 6.90471 34.8645 6.17439 33.9869 5.58938C33.6853 5.41386 33.3667 5.26917 33.0361 5.15747C34.0037 5.40252 34.8873 5.90343 35.5946 6.60768L105.4 74.7557Z" fill="white"/>
</g>
<g style="mix-blend-mode:multiply" opacity="0.25">
<path d="M115.386 84.5012H46.3579L43.8354 81.7192L42.4197 76.5528L39.7577 66.8257C38.168 60.7774 36.5618 54.7306 35.0231 48.6478C34.5222 46.6772 34.0213 44.7261 33.5384 42.7555L35.0231 43.4648L26.3504 12.0865C28.4064 18.0134 30.2376 23.9912 32.1902 29.9525C34.0558 35.9303 35.8874 41.9201 37.6851 47.9219C39.4848 53.9208 41.2094 59.9316 42.9551 65.9439L47.6716 82.79C52.9761 82.8245 58.2985 82.808 63.6195 82.8935C69.3738 82.9625 75.1282 83.033 80.8811 83.1935C86.6174 83.2969 92.3718 83.4934 98.1276 83.6944C103.879 83.9478 109.633 84.1203 115.386 84.5012Z" fill="black"/>
</g>
<g style="mix-blend-mode:multiply" opacity="0.25">
<path d="M42.5747 80.336L0.950374 34.5486C0.441776 33.9892 0.121099 33.2845 0.0333347 32.5336C-0.0544295 31.7826 0.0951225 31.023 0.461013 30.3613C0.826903 29.6998 1.39077 29.1692 2.07348 28.8443C2.75619 28.5194 3.5235 28.4165 4.26771 28.5498L10.0566 31.3662C8.05296 30.6569 6.08236 29.9145 4.12974 29.1542C3.54955 29.097 2.9659 29.2208 2.45876 29.5084C1.9516 29.7959 1.54575 30.2332 1.2968 30.7604C1.05464 31.235 0.970882 31.7748 1.05778 32.3006C1.14469 32.8262 1.39769 33.3103 1.77971 33.6818L4.8556 36.8087C5.89189 37.8585 6.92969 38.9172 7.94799 39.988C9.98758 42.1131 12.0437 44.2382 14.0308 46.4368C16.0344 48.5978 18.0575 50.7574 20.0087 52.968C21.9598 55.1785 23.9484 57.3576 25.8665 59.6041C27.7846 61.8507 29.7192 64.0793 31.6029 66.3528C35.3866 70.9194 39.1014 75.516 42.5747 80.336Z" fill="black"/>
</g>
<path d="M115.386 84.5007L105.521 94.1423L105.469 94.1934C105.454 94.1961 105.44 94.2023 105.428 94.2114C105.416 94.2204 105.406 94.2323 105.4 94.2458L35.5946 162.392C35.3773 162.617 35.1336 162.814 34.8687 162.98C34.5445 163.222 34.1921 163.424 33.819 163.58C33.6105 163.662 33.3971 163.731 33.1801 163.788C33.1606 163.806 33.1367 163.818 33.1111 163.823C33.0766 163.823 33.0586 163.839 33.0406 163.839C33.0342 163.847 33.0262 163.851 33.0174 163.854C33.0085 163.857 32.9991 163.859 32.9896 163.857H32.9716C32.0288 164.072 31.0463 164.037 30.1205 163.758C29.1948 163.478 28.3575 162.964 27.6906 162.263C27.0237 161.563 26.5499 160.702 26.3158 159.763C26.0817 158.826 26.0952 157.842 26.3549 156.911L35.0277 125.533L46.3625 84.4963L115.386 84.5007Z" fill="#B9FF66"/>
<path d="M46.3583 84.5009L35.0235 125.537L33.5388 126.247L23.1909 131.274L10.1285 137.616C10.112 137.616 10.0775 137.632 10.0595 137.632L4.27067 140.449C3.52644 140.582 2.75913 140.479 2.07642 140.154C1.39371 139.829 0.829854 139.299 0.463964 138.637C0.0980726 137.976 -0.0514851 137.216 0.0362792 136.465C0.124043 135.714 0.444721 135.009 0.953318 134.45L42.5776 88.6625L43.8388 87.2798L46.3583 84.5009Z" fill="url(#paint1_linear_512_180)"/>
<g style="mix-blend-mode:screen" opacity="0.3">
<path d="M82.5231 89.6838H50.3155L34.6616 146.289L82.5231 89.6838Z" fill="white"/>
</g>
<g style="mix-blend-mode:multiply" opacity="0.15">
<path d="M46.3588 84.5009L42.419 92.4493L23.1884 131.274L33.5363 126.245L35.0225 125.537L46.3588 84.5009Z" fill="black"/>
</g>
<g style="mix-blend-mode:screen" opacity="0.5">
<path d="M105.4 94.2458C104.605 94.8847 99.9573 98.6865 93.5641 104.423C90.0218 107.572 85.9441 111.282 81.6414 115.326C79.4998 117.347 77.2533 119.421 75.0232 121.581C72.7932 123.741 70.5241 125.918 68.2506 128.094C66.022 130.306 63.7755 132.518 61.5634 134.712C59.3528 136.872 57.2443 139.061 55.1537 141.175C51.0235 145.374 47.2052 149.364 43.9749 152.82C40.7445 156.275 38.0991 159.196 36.2679 161.253C35.6358 162.097 34.8645 162.827 33.9869 163.412C33.685 163.588 33.3664 163.732 33.0361 163.844C34.0035 163.598 34.887 163.097 35.5946 162.392L105.4 94.2458Z" fill="white"/>
</g>
<g style="mix-blend-mode:multiply" opacity="0.25">
<path d="M46.3577 84.5009L35.023 125.537L33.5383 126.247C34.0212 124.276 34.5221 122.323 35.023 120.354C36.5617 114.271 38.1724 108.225 39.7576 102.176L42.4195 92.4493L43.8352 87.2828L46.3577 84.5009Z" fill="black"/>
</g>
<g style="mix-blend-mode:multiply" opacity="0.25">
<path d="M42.5747 88.6655L0.950374 134.453C0.441776 135.012 0.121099 135.717 0.0333347 136.468C-0.0544295 137.219 0.0951225 137.979 0.461013 138.64C0.826903 139.302 1.39077 139.832 2.07348 140.157C2.75619 140.482 3.5235 140.585 4.26771 140.452L10.0566 137.635C8.05296 138.345 6.08236 139.087 4.12974 139.847C3.54936 139.905 2.96549 139.781 2.45829 139.493C1.95108 139.205 1.54535 138.767 1.2968 138.24C1.05453 137.765 0.970695 137.226 1.05761 136.7C1.14452 136.175 1.39761 135.691 1.77971 135.32L4.8556 132.193C5.89189 131.143 6.92969 130.084 7.94799 129.014C9.98758 126.888 12.0437 124.763 14.0308 122.565C16.0344 120.405 18.0575 118.246 20.0087 116.034C21.9598 113.822 23.9484 111.645 25.8665 109.399C27.7846 107.152 29.7192 104.924 31.6029 102.643C35.3866 98.0822 39.1014 93.4856 42.5747 88.6655Z" fill="black"/>
</g>
<g style="mix-blend-mode:screen" opacity="0.5">
<path d="M115.386 84.501C109.633 84.8804 103.879 85.0544 98.1261 85.3123C92.3718 85.5208 86.6174 85.7098 80.8796 85.8147C75.1267 85.9647 69.3723 86.0382 63.618 86.1147C58.297 86.2017 52.9701 86.1837 47.6701 86.2182L42.9551 103.052C41.2094 109.065 39.4818 115.078 37.6851 121.074C35.8885 127.07 34.0558 133.064 32.1902 139.044C30.2406 145.005 28.4064 150.983 26.3504 156.909L35.0231 125.531L46.3579 84.495L115.386 84.501Z" fill="white"/>
</g>
</g>
<defs>
<linearGradient id="paint0_linear_512_180" x1="0.00885775" y1="56.4969" x2="46.3584" y2="56.4969" gradientUnits="userSpaceOnUse">
<stop stop-color="#B9FF66"/>
<stop offset="0.238" stop-color="#B9FF66"/>
<stop offset="0.44" stop-color="#99D64F"/>
<stop offset="0.629" stop-color="#B9FF66"/>
<stop offset="0.81" stop-color="#99D64F"/>
<stop offset="0.983" stop-color="#B9FF66"/>
<stop offset="1" stop-color="#B9FF66"/>
</linearGradient>
<linearGradient id="paint1_linear_512_180" x1="0.0118027" y1="112.503" x2="46.3583" y2="112.503" gradientUnits="userSpaceOnUse">
<stop stop-color="#99D64F"/>
<stop offset="0.238" stop-color="#B9FF66"/>
<stop offset="0.44" stop-color="#99D64F"/>
<stop offset="0.629" stop-color="#B9FF66"/>
<stop offset="0.81" stop-color="#99D64F"/>
<stop offset="0.983" stop-color="#B9FF66"/>
<stop offset="1" stop-color="#99D64F"/>
</linearGradient>
</defs>
</svg>
