<svg width="1206" height="228" viewBox="0 0 1206 228" fill="none" xmlns="http://www.w3.org/2000/svg">
<path d="M178.69 127.56C171.41 127.56 164.433 126.607 157.76 124.7C151.087 122.707 145.713 120.15 141.64 117.03L148.79 101.17C152.69 103.943 157.283 106.24 162.57 108.06C167.943 109.793 173.36 110.66 178.82 110.66C182.98 110.66 186.317 110.27 188.83 109.49C191.43 108.623 193.337 107.453 194.55 105.98C195.763 104.507 196.37 102.817 196.37 100.91C196.37 98.4833 195.417 96.5767 193.51 95.19C191.603 93.7167 189.09 92.5467 185.97 91.68C182.85 90.7267 179.383 89.86 175.57 89.08C171.843 88.2133 168.073 87.1733 164.26 85.96C160.533 84.7467 157.11 83.1867 153.99 81.28C150.87 79.3733 148.313 76.86 146.32 73.74C144.413 70.62 143.46 66.6333 143.46 61.78C143.46 56.58 144.847 51.8567 147.62 47.61C150.48 43.2767 154.727 39.8533 160.36 37.34C166.08 34.74 173.23 33.44 181.81 33.44C187.53 33.44 193.163 34.1333 198.71 35.52C204.257 36.82 209.153 38.8133 213.4 41.5L206.9 57.49C202.653 55.0633 198.407 53.2867 194.16 52.16C189.913 50.9467 185.753 50.34 181.68 50.34C177.607 50.34 174.27 50.8167 171.67 51.77C169.07 52.7233 167.207 53.98 166.08 55.54C164.953 57.0133 164.39 58.7467 164.39 60.74C164.39 63.08 165.343 64.9867 167.25 66.46C169.157 67.8467 171.67 68.9733 174.79 69.84C177.91 70.7067 181.333 71.5733 185.06 72.44C188.873 73.3067 192.643 74.3033 196.37 75.43C200.183 76.5567 203.65 78.0733 206.77 79.98C209.89 81.8867 212.403 84.4 214.31 87.52C216.303 90.64 217.3 94.5833 217.3 99.35C217.3 104.463 215.87 109.143 213.01 113.39C210.15 117.637 205.86 121.06 200.14 123.66C194.507 126.26 187.357 127.56 178.69 127.56ZM259.77 127.04C253.964 127.04 248.764 125.913 244.17 123.66C239.664 121.407 236.154 117.983 233.64 113.39C231.127 108.71 229.87 102.773 229.87 95.58V56.06H250.15V92.59C250.15 98.3967 251.364 102.687 253.79 105.46C256.304 108.147 259.814 109.49 264.32 109.49C267.44 109.49 270.214 108.84 272.64 107.54C275.067 106.153 276.974 104.073 278.36 101.3C279.747 98.44 280.44 94.8867 280.44 90.64V56.06H300.72V126H281.48V106.76L284.99 112.35C282.65 117.203 279.184 120.887 274.59 123.4C270.084 125.827 265.144 127.04 259.77 127.04ZM353.308 127.04C345.768 127.04 339.052 125.523 333.158 122.49C327.265 119.37 322.628 115.08 319.248 109.62C315.955 104.16 314.308 97.9633 314.308 91.03C314.308 84.01 315.955 77.8133 319.248 72.44C322.628 66.98 327.265 62.7333 333.158 59.7C339.052 56.58 345.768 55.02 353.308 55.02C360.675 55.02 367.088 56.58 372.548 59.7C378.008 62.7333 382.038 67.11 384.638 72.83L368.908 81.28C367.088 77.9867 364.792 75.56 362.018 74C359.332 72.44 356.385 71.66 353.178 71.66C349.712 71.66 346.592 72.44 343.818 74C341.045 75.56 338.835 77.77 337.188 80.63C335.628 83.49 334.848 86.9567 334.848 91.03C334.848 95.1033 335.628 98.57 337.188 101.43C338.835 104.29 341.045 106.5 343.818 108.06C346.592 109.62 349.712 110.4 353.178 110.4C356.385 110.4 359.332 109.663 362.018 108.19C364.792 106.63 367.088 104.16 368.908 100.78L384.638 109.36C382.038 114.993 378.008 119.37 372.548 122.49C367.088 125.523 360.675 127.04 353.308 127.04ZM429.226 127.04C421.686 127.04 414.97 125.523 409.076 122.49C403.183 119.37 398.546 115.08 395.166 109.62C391.873 104.16 390.226 97.9633 390.226 91.03C390.226 84.01 391.873 77.8133 395.166 72.44C398.546 66.98 403.183 62.7333 409.076 59.7C414.97 56.58 421.686 55.02 429.226 55.02C436.593 55.02 443.006 56.58 448.466 59.7C453.926 62.7333 457.956 67.11 460.556 72.83L444.826 81.28C443.006 77.9867 440.71 75.56 437.936 74C435.25 72.44 432.303 71.66 429.096 71.66C425.63 71.66 422.51 72.44 419.736 74C416.963 75.56 414.753 77.77 413.106 80.63C411.546 83.49 410.766 86.9567 410.766 91.03C410.766 95.1033 411.546 98.57 413.106 101.43C414.753 104.29 416.963 106.5 419.736 108.06C422.51 109.62 425.63 110.4 429.096 110.4C432.303 110.4 435.25 109.663 437.936 108.19C440.71 106.63 443.006 104.16 444.826 100.78L460.556 109.36C457.956 114.993 453.926 119.37 448.466 122.49C443.006 125.523 436.593 127.04 429.226 127.04ZM506.054 127.04C498.081 127.04 491.061 125.48 484.994 122.36C479.014 119.24 474.378 114.993 471.084 109.62C467.791 104.16 466.144 97.9633 466.144 91.03C466.144 84.01 467.748 77.8133 470.954 72.44C474.248 66.98 478.711 62.7333 484.344 59.7C489.978 56.58 496.348 55.02 503.454 55.02C510.301 55.02 516.454 56.4933 521.914 59.44C527.461 62.3 531.838 66.46 535.044 71.92C538.251 77.2933 539.854 83.75 539.854 91.29C539.854 92.07 539.811 92.98 539.724 94.02C539.638 94.9733 539.551 95.8833 539.464 96.75H482.654V84.92H528.804L521.004 88.43C521.004 84.79 520.268 81.6267 518.794 78.94C517.321 76.2533 515.284 74.1733 512.684 72.7C510.084 71.14 507.051 70.36 503.584 70.36C500.118 70.36 497.041 71.14 494.354 72.7C491.754 74.1733 489.718 76.2967 488.244 79.07C486.771 81.7567 486.034 84.9633 486.034 88.69V91.81C486.034 95.6233 486.858 99.0033 488.504 101.95C490.238 104.81 492.621 107.02 495.654 108.58C498.774 110.053 502.414 110.79 506.574 110.79C510.301 110.79 513.551 110.227 516.324 109.1C519.184 107.973 521.784 106.283 524.124 104.03L534.914 115.73C531.708 119.37 527.678 122.187 522.824 124.18C517.971 126.087 512.381 127.04 506.054 127.04ZM576.886 127.04C570.906 127.04 565.143 126.347 559.596 124.96C554.136 123.487 549.803 121.667 546.596 119.5L553.356 104.94C556.563 106.933 560.333 108.58 564.666 109.88C569.086 111.093 573.419 111.7 577.666 111.7C582.346 111.7 585.639 111.137 587.546 110.01C589.539 108.883 590.536 107.323 590.536 105.33C590.536 103.683 589.756 102.47 588.196 101.69C586.723 100.823 584.729 100.173 582.216 99.74C579.703 99.3067 576.929 98.8733 573.896 98.44C570.949 98.0067 567.959 97.4433 564.926 96.75C561.893 95.97 559.119 94.8433 556.606 93.37C554.093 91.8967 552.056 89.9033 550.496 87.39C549.023 84.8767 548.286 81.6267 548.286 77.64C548.286 73.22 549.543 69.32 552.056 65.94C554.656 62.56 558.383 59.9167 563.236 58.01C568.089 56.0167 573.896 55.02 580.656 55.02C585.423 55.02 590.276 55.54 595.216 56.58C600.156 57.62 604.273 59.1367 607.566 61.13L600.806 75.56C597.426 73.5667 594.003 72.2233 590.536 71.53C587.156 70.75 583.863 70.36 580.656 70.36C576.149 70.36 572.856 70.9667 570.776 72.18C568.696 73.3933 567.656 74.9533 567.656 76.86C567.656 78.5933 568.393 79.8933 569.866 80.76C571.426 81.6267 573.463 82.32 575.976 82.84C578.489 83.36 581.219 83.8367 584.166 84.27C587.199 84.6167 590.233 85.18 593.266 85.96C596.299 86.74 599.029 87.8667 601.456 89.34C603.969 90.7267 606.006 92.6767 607.566 95.19C609.126 97.6167 609.906 100.823 609.906 104.81C609.906 109.143 608.606 113 606.006 116.38C603.406 119.673 599.636 122.273 594.696 124.18C589.843 126.087 583.906 127.04 576.886 127.04ZM645.949 127.04C639.969 127.04 634.205 126.347 628.659 124.96C623.199 123.487 618.865 121.667 615.659 119.5L622.419 104.94C625.625 106.933 629.395 108.58 633.729 109.88C638.149 111.093 642.482 111.7 646.729 111.7C651.409 111.7 654.702 111.137 656.609 110.01C658.602 108.883 659.599 107.323 659.599 105.33C659.599 103.683 658.819 102.47 657.259 101.69C655.785 100.823 653.792 100.173 651.279 99.74C648.765 99.3067 645.992 98.8733 642.959 98.44C640.012 98.0067 637.022 97.4433 633.989 96.75C630.955 95.97 628.182 94.8433 625.669 93.37C623.155 91.8967 621.119 89.9033 619.559 87.39C618.085 84.8767 617.349 81.6267 617.349 77.64C617.349 73.22 618.605 69.32 621.119 65.94C623.719 62.56 627.445 59.9167 632.299 58.01C637.152 56.0167 642.959 55.02 649.719 55.02C654.485 55.02 659.339 55.54 664.279 56.58C669.219 57.62 673.335 59.1367 676.629 61.13L669.869 75.56C666.489 73.5667 663.065 72.2233 659.599 71.53C656.219 70.75 652.925 70.36 649.719 70.36C645.212 70.36 641.919 70.9667 639.839 72.18C637.759 73.3933 636.719 74.9533 636.719 76.86C636.719 78.5933 637.455 79.8933 638.929 80.76C640.489 81.6267 642.525 82.32 645.039 82.84C647.552 83.36 650.282 83.8367 653.229 84.27C656.262 84.6167 659.295 85.18 662.329 85.96C665.362 86.74 668.092 87.8667 670.519 89.34C673.032 90.7267 675.069 92.6767 676.629 95.19C678.189 97.6167 678.969 100.823 678.969 104.81C678.969 109.143 677.669 113 675.069 116.38C672.469 119.673 668.699 122.273 663.759 124.18C658.905 126.087 652.969 127.04 645.949 127.04ZM712.281 71.66H756.091V88.04H712.281V71.66ZM713.841 109.1H763.371V126H692.911V35H761.681V51.9H713.841V109.1ZM821.208 55.02C826.755 55.02 831.695 56.1467 836.028 58.4C840.448 60.5667 843.915 63.9467 846.428 68.54C848.941 73.0467 850.198 78.8533 850.198 85.96V126H829.918V89.08C829.918 83.4467 828.661 79.2867 826.148 76.6C823.721 73.9133 820.255 72.57 815.748 72.57C812.541 72.57 809.638 73.2633 807.038 74.65C804.525 75.95 802.531 77.9867 801.058 80.76C799.671 83.5333 798.978 87.0867 798.978 91.42V126H778.698V56.06H798.068V75.43L794.428 69.58C796.941 64.9 800.538 61.3033 805.218 58.79C809.898 56.2767 815.228 55.02 821.208 55.02ZM901.979 152.26C895.392 152.26 889.022 151.437 882.869 149.79C876.802 148.23 871.732 145.847 867.659 142.64L875.719 128.08C878.665 130.507 882.392 132.413 886.899 133.8C891.492 135.273 895.999 136.01 900.419 136.01C907.612 136.01 912.812 134.407 916.019 131.2C919.312 127.993 920.959 123.227 920.959 116.9V106.37L922.259 88.82L921.999 71.14V56.06H941.239V114.3C941.239 127.3 937.859 136.877 931.099 143.03C924.339 149.183 914.632 152.26 901.979 152.26ZM898.859 122.62C892.359 122.62 886.465 121.233 881.179 118.46C875.979 115.6 871.775 111.657 868.569 106.63C865.449 101.517 863.889 95.58 863.889 88.82C863.889 81.9733 865.449 76.0367 868.569 71.01C871.775 65.8967 875.979 61.9533 881.179 59.18C886.465 56.4067 892.359 55.02 898.859 55.02C904.752 55.02 909.952 56.2333 914.459 58.66C918.965 61 922.475 64.6833 924.989 69.71C927.502 74.65 928.759 81.02 928.759 88.82C928.759 96.5333 927.502 102.903 924.989 107.93C922.475 112.87 918.965 116.553 914.459 118.98C909.952 121.407 904.752 122.62 898.859 122.62ZM902.889 105.98C906.442 105.98 909.605 105.287 912.379 103.9C915.152 102.427 917.319 100.39 918.879 97.79C920.439 95.19 921.219 92.2 921.219 88.82C921.219 85.3533 920.439 82.3633 918.879 79.85C917.319 77.25 915.152 75.2567 912.379 73.87C909.605 72.3967 906.442 71.66 902.889 71.66C899.335 71.66 896.172 72.3967 893.399 73.87C890.625 75.2567 888.415 77.25 886.769 79.85C885.209 82.3633 884.429 85.3533 884.429 88.82C884.429 92.2 885.209 95.19 886.769 97.79C888.415 100.39 890.625 102.427 893.399 103.9C896.172 105.287 899.335 105.98 902.889 105.98ZM960.114 126V56.06H980.394V126H960.114ZM970.254 46.31C966.527 46.31 963.494 45.2267 961.154 43.06C958.814 40.8933 957.644 38.2067 957.644 35C957.644 31.7933 958.814 29.1067 961.154 26.94C963.494 24.7733 966.527 23.69 970.254 23.69C973.981 23.69 977.014 24.73 979.354 26.81C981.694 28.8033 982.864 31.4033 982.864 34.61C982.864 37.99 981.694 40.8067 979.354 43.06C977.101 45.2267 974.067 46.31 970.254 46.31ZM1041.73 55.02C1047.27 55.02 1052.21 56.1467 1056.55 58.4C1060.97 60.5667 1064.43 63.9467 1066.95 68.54C1069.46 73.0467 1070.72 78.8533 1070.72 85.96V126H1050.44V89.08C1050.44 83.4467 1049.18 79.2867 1046.67 76.6C1044.24 73.9133 1040.77 72.57 1036.27 72.57C1033.06 72.57 1030.16 73.2633 1027.56 74.65C1025.04 75.95 1023.05 77.9867 1021.58 80.76C1020.19 83.5333 1019.5 87.0867 1019.5 91.42V126H999.215V56.06H1018.59V75.43L1014.95 69.58C1017.46 64.9 1021.06 61.3033 1025.74 58.79C1030.42 56.2767 1035.75 55.02 1041.73 55.02ZM1124.32 127.04C1116.34 127.04 1109.32 125.48 1103.26 122.36C1097.28 119.24 1092.64 114.993 1089.35 109.62C1086.05 104.16 1084.41 97.9633 1084.41 91.03C1084.41 84.01 1086.01 77.8133 1089.22 72.44C1092.51 66.98 1096.97 62.7333 1102.61 59.7C1108.24 56.58 1114.61 55.02 1121.72 55.02C1128.56 55.02 1134.72 56.4933 1140.18 59.44C1145.72 62.3 1150.1 66.46 1153.31 71.92C1156.51 77.2933 1158.12 83.75 1158.12 91.29C1158.12 92.07 1158.07 92.98 1157.99 94.02C1157.9 94.9733 1157.81 95.8833 1157.73 96.75H1100.92V84.92H1147.07L1139.27 88.43C1139.27 84.79 1138.53 81.6267 1137.06 78.94C1135.58 76.2533 1133.55 74.1733 1130.95 72.7C1128.35 71.14 1125.31 70.36 1121.85 70.36C1118.38 70.36 1115.3 71.14 1112.62 72.7C1110.02 74.1733 1107.98 76.2967 1106.51 79.07C1105.03 81.7567 1104.3 84.9633 1104.3 88.69V91.81C1104.3 95.6233 1105.12 99.0033 1106.77 101.95C1108.5 104.81 1110.88 107.02 1113.92 108.58C1117.04 110.053 1120.68 110.79 1124.84 110.79C1128.56 110.79 1131.81 110.227 1134.59 109.1C1137.45 107.973 1140.05 106.283 1142.39 104.03L1153.18 115.73C1149.97 119.37 1145.94 122.187 1141.09 124.18C1136.23 126.087 1130.64 127.04 1124.32 127.04Z" fill="#0C0B10"/>
<mask id="mask0_21_71" style="mask-type:luminance" maskUnits="userSpaceOnUse" x="0" y="5" width="116" height="159">
<path d="M115.387 5L0 5L0 164H115.387L115.387 5Z" fill="white"/>
</mask>
<g mask="url(#mask0_21_71)">
<path d="M115.386 84.5009H46.3578L35.0231 43.4645L26.3503 12.0862C26.0906 11.1548 26.0771 10.1718 26.3112 9.23362C26.5453 8.2954 27.019 7.43403 27.6859 6.73384C28.3529 6.03364 29.1901 5.51861 30.1159 5.23916C31.0417 4.9597 32.024 4.9254 32.967 5.1396H32.985C32.9943 5.1384 33.0037 5.1394 33.0126 5.14253C33.0214 5.14566 33.0295 5.15082 33.036 5.1576C33.054 5.1576 33.072 5.1741 33.1065 5.1741C33.1321 5.17938 33.1558 5.19127 33.1755 5.20858C33.3925 5.26506 33.6059 5.33468 33.8143 5.41704C34.1873 5.57357 34.5399 5.77502 34.8641 6.01693C35.1288 6.18236 35.3727 6.37926 35.59 6.6033L105.395 74.7513C105.402 74.7646 105.411 74.7763 105.423 74.7852C105.435 74.794 105.449 74.7999 105.464 74.8023L105.517 74.8548L115.386 84.5009Z" fill="#FFB703"/>
<path d="M46.3584 84.5007L43.8359 81.7188L42.5746 80.336L0.950305 34.5486C0.441708 33.9892 0.12103 33.2845 0.0332661 32.5336C-0.0544982 31.7826 0.0950538 31.023 0.460944 30.3613C0.826834 29.6998 1.3907 29.1692 2.07342 28.8443C2.75613 28.5194 3.52343 28.4165 4.26765 28.5498L10.0565 31.3662C10.0745 31.3662 10.109 31.3827 10.1255 31.3827L23.188 37.725L33.5359 42.752L35.0206 43.4613L46.3584 84.5007Z" fill="url(#paint0_linear_21_71)"/>
<g style="mix-blend-mode:screen" opacity="0.3">
<path d="M82.5231 79.3167H50.3155L34.6616 22.7119L82.5231 79.3167Z" fill="white"/>
</g>
<g style="mix-blend-mode:multiply" opacity="0.15">
<path d="M46.3589 84.5008L42.4192 76.5523L23.1885 37.728L33.5364 42.7565L35.0226 43.4644L46.3589 84.5008Z" fill="black"/>
</g>
<g style="mix-blend-mode:screen" opacity="0.5">
<path d="M105.4 74.7557C104.605 74.1168 99.9574 70.3151 93.5641 64.5787C90.0218 61.4294 85.9441 57.7191 81.6415 53.6759C79.4999 51.6543 77.2534 49.5802 75.0233 47.4206C72.7932 45.2611 70.5242 43.0835 68.2507 40.9059C66.0221 38.6954 63.7755 36.4833 61.5635 34.2892C59.3529 32.1297 57.2443 29.9401 55.1537 27.827C51.0236 23.6278 47.2053 19.6371 43.975 16.1803C40.7446 12.7235 38.0991 9.80505 36.268 7.74896C35.6359 6.90471 34.8646 6.17439 33.9869 5.58938C33.6854 5.41386 33.3668 5.26917 33.0361 5.15747C34.0037 5.40252 34.8874 5.90343 35.5946 6.60768L105.4 74.7557Z" fill="white"/>
</g>
<g style="mix-blend-mode:multiply" opacity="0.25">
<path d="M115.386 84.5012H46.3576L43.8351 81.7192L42.4194 76.5528L39.7574 66.8257C38.1678 60.7774 36.5616 54.7306 35.0229 48.6478C34.522 46.6772 34.0211 44.7261 33.5382 42.7555L35.0229 43.4648L26.3501 12.0865C28.4062 18.0134 30.2373 23.9912 32.1899 29.9525C34.0556 35.9303 35.8872 41.9201 37.6849 47.9219C39.4845 53.9208 41.2092 59.9316 42.9548 65.9439L47.6714 82.79C52.9758 82.8245 58.2983 82.808 63.6192 82.8935C69.3736 82.9625 75.1279 83.033 80.8808 83.1935C86.6172 83.2969 92.3715 83.4934 98.1274 83.6944C103.879 83.9478 109.633 84.1203 115.386 84.5012Z" fill="black"/>
</g>
<g style="mix-blend-mode:multiply" opacity="0.25">
<path d="M42.5746 80.336L0.950305 34.5486C0.441708 33.9892 0.12103 33.2845 0.0332661 32.5336C-0.0544982 31.7826 0.0950538 31.023 0.460944 30.3613C0.826834 29.6998 1.3907 29.1692 2.07342 28.8443C2.75613 28.5194 3.52343 28.4165 4.26765 28.5498L10.0565 31.3662C8.0529 30.6569 6.08229 29.9145 4.12967 29.1542C3.54948 29.097 2.96583 29.2208 2.45869 29.5084C1.95153 29.7959 1.54569 30.2332 1.29673 30.7604C1.05458 31.235 0.970813 31.7748 1.05772 32.3006C1.14462 32.8262 1.39762 33.3103 1.77964 33.6818L4.85553 36.8087C5.89182 37.8585 6.92962 38.9172 7.94792 39.988C9.98751 42.1131 12.0436 44.2382 14.0307 46.4368C16.0344 48.5978 18.0575 50.7574 20.0086 52.968C21.9597 55.1785 23.9483 57.3576 25.8664 59.6041C27.7845 61.8507 29.7192 64.0793 31.6028 66.3528C35.3865 70.9194 39.1013 75.516 42.5746 80.336Z" fill="black"/>
</g>
<path d="M115.386 84.5007L105.521 94.1423L105.469 94.1934C105.454 94.1961 105.44 94.2023 105.428 94.2114C105.416 94.2204 105.406 94.2323 105.4 94.2458L35.5944 162.392C35.3771 162.617 35.1334 162.814 34.8685 162.98C34.5443 163.222 34.1919 163.424 33.8187 163.58C33.6103 163.662 33.3969 163.731 33.1799 163.788C33.1604 163.806 33.1365 163.818 33.1109 163.823C33.0764 163.823 33.0584 163.839 33.0404 163.839C33.0339 163.847 33.026 163.851 33.0171 163.854C33.0083 163.857 32.9988 163.859 32.9894 163.857H32.9714C32.0285 164.072 31.0461 164.037 30.1203 163.758C29.1945 163.478 28.3573 162.964 27.6903 162.263C27.0234 161.563 26.5497 160.702 26.3156 159.763C26.0815 158.826 26.095 157.842 26.3547 156.911L35.0275 125.533L46.3622 84.4963L115.386 84.5007Z" fill="#FFB703"/>
<path d="M46.3582 84.5009L35.0235 125.537L33.5388 126.247L23.1908 131.274L10.1284 137.616C10.1119 137.616 10.0774 137.632 10.0594 137.632L4.27059 140.449C3.52636 140.582 2.75905 140.479 2.07634 140.154C1.39363 139.829 0.82977 139.299 0.46388 138.637C0.0979887 137.976 -0.051569 137.216 0.0361952 136.465C0.123959 135.714 0.444637 135.009 0.953234 134.45L42.5775 88.6625L43.8387 87.2798L46.3582 84.5009Z" fill="url(#paint1_linear_21_71)"/>
<g style="mix-blend-mode:screen" opacity="0.3">
<path d="M82.5231 89.6838H50.3155L34.6616 146.289L82.5231 89.6838Z" fill="white"/>
</g>
<g style="mix-blend-mode:multiply" opacity="0.15">
<path d="M46.3589 84.5009L42.4192 92.4493L23.1885 131.274L33.5364 126.245L35.0226 125.537L46.3589 84.5009Z" fill="black"/>
</g>
<g style="mix-blend-mode:screen" opacity="0.5">
<path d="M105.4 94.2458C104.605 94.8847 99.9574 98.6865 93.5641 104.423C90.0218 107.572 85.9441 111.282 81.6415 115.326C79.4999 117.347 77.2534 119.421 75.0233 121.581C72.7932 123.741 70.5242 125.918 68.2507 128.094C66.0221 130.306 63.7755 132.518 61.5635 134.712C59.3529 136.872 57.2443 139.061 55.1537 141.175C51.0236 145.374 47.2053 149.364 43.975 152.82C40.7446 156.275 38.0991 159.196 36.268 161.253C35.6359 162.097 34.8646 162.827 33.9869 163.412C33.6851 163.588 33.3665 163.732 33.0361 163.844C34.0036 163.598 34.8871 163.097 35.5946 162.392L105.4 94.2458Z" fill="white"/>
</g>
<g style="mix-blend-mode:multiply" opacity="0.25">
<path d="M46.3575 84.5009L35.0228 125.537L33.5381 126.247C34.021 124.276 34.5219 122.323 35.0228 120.354C36.5615 114.271 38.1722 108.225 39.7574 102.176L42.4193 92.4493L43.835 87.2828L46.3575 84.5009Z" fill="black"/>
</g>
<g style="mix-blend-mode:multiply" opacity="0.25">
<path d="M42.5746 88.6655L0.950305 134.453C0.441708 135.012 0.12103 135.717 0.0332661 136.468C-0.0544982 137.219 0.0950538 137.979 0.460944 138.64C0.826834 139.302 1.3907 139.832 2.07342 140.157C2.75613 140.482 3.52343 140.585 4.26765 140.452L10.0565 137.635C8.0529 138.345 6.08229 139.087 4.12967 139.847C3.54929 139.905 2.96542 139.781 2.45822 139.493C1.95101 139.205 1.54528 138.767 1.29673 138.24C1.05446 137.765 0.970626 137.226 1.05754 136.7C1.14445 136.175 1.39754 135.691 1.77964 135.32L4.85553 132.193C5.89182 131.143 6.92962 130.084 7.94792 129.014C9.98751 126.888 12.0436 124.763 14.0307 122.565C16.0344 120.405 18.0575 118.246 20.0086 116.034C21.9597 113.822 23.9483 111.645 25.8664 109.399C27.7845 107.152 29.7192 104.924 31.6028 102.643C35.3865 98.0822 39.1013 93.4856 42.5746 88.6655Z" fill="black"/>
</g>
<g style="mix-blend-mode:screen" opacity="0.5">
<path d="M115.386 84.501C109.633 84.8804 103.879 85.0544 98.1259 85.3123C92.3715 85.5208 86.6172 85.7098 80.8793 85.8147C75.1264 85.9647 69.3721 86.0382 63.6177 86.1147C58.2968 86.2017 52.9698 86.1837 47.6699 86.2182L42.9548 103.052C41.2092 109.065 39.4815 115.078 37.6849 121.074C35.8882 127.07 34.0556 133.064 32.1899 139.044C30.2403 145.005 28.4062 150.983 26.3501 156.909L35.0229 125.531L46.3576 84.495L115.386 84.501Z" fill="white"/>
</g>
</g>
<path d="M677.3 211.56C673.987 211.56 671.14 210.86 668.76 209.46C666.38 208.06 664.56 205.937 663.3 203.09C662.04 200.197 661.41 196.557 661.41 192.17C661.41 187.737 662.063 184.097 663.37 181.25C664.723 178.403 666.59 176.28 668.97 174.88C671.35 173.48 674.127 172.78 677.3 172.78C680.847 172.78 684.02 173.573 686.82 175.16C689.667 176.747 691.907 178.987 693.54 181.88C695.22 184.773 696.06 188.203 696.06 192.17C696.06 196.09 695.22 199.497 693.54 202.39C691.907 205.283 689.667 207.547 686.82 209.18C684.02 210.767 680.847 211.56 677.3 211.56ZM655.04 211V159.06H665.96V180.97L665.26 192.1L665.47 203.3V211H655.04ZM675.41 202.6C677.23 202.6 678.84 202.18 680.24 201.34C681.687 200.5 682.83 199.31 683.67 197.77C684.557 196.183 685 194.317 685 192.17C685 189.977 684.557 188.11 683.67 186.57C682.83 185.03 681.687 183.84 680.24 183C678.84 182.16 677.23 181.74 675.41 181.74C673.59 181.74 671.957 182.16 670.51 183C669.063 183.84 667.92 185.03 667.08 186.57C666.24 188.11 665.82 189.977 665.82 192.17C665.82 194.317 666.24 196.183 667.08 197.77C667.92 199.31 669.063 200.5 670.51 201.34C671.957 202.18 673.59 202.6 675.41 202.6ZM707.105 225.14C705.145 225.14 703.208 224.837 701.295 224.23C699.381 223.623 697.818 222.783 696.605 221.71L700.595 213.94C701.435 214.687 702.391 215.27 703.465 215.69C704.585 216.11 705.681 216.32 706.755 216.32C708.295 216.32 709.508 215.947 710.395 215.2C711.328 214.5 712.168 213.31 712.915 211.63L714.875 207.01L715.715 205.82L729.225 173.34H739.725L722.715 213.31C721.501 216.343 720.101 218.723 718.515 220.45C716.975 222.177 715.248 223.39 713.335 224.09C711.468 224.79 709.391 225.14 707.105 225.14ZM713.545 212.47L696.745 173.34H708.015L721.035 204.84L713.545 212.47ZM764.775 211V162H787.035C792.355 162 797.045 163.027 801.105 165.08C805.165 167.087 808.338 169.91 810.625 173.55C812.912 177.19 814.055 181.507 814.055 186.5C814.055 191.447 812.912 195.763 810.625 199.45C808.338 203.09 805.165 205.937 801.105 207.99C797.045 209.997 792.355 211 787.035 211H764.775ZM776.115 201.69H786.475C789.742 201.69 792.565 201.083 794.945 199.87C797.372 198.61 799.238 196.837 800.545 194.55C801.898 192.263 802.575 189.58 802.575 186.5C802.575 183.373 801.898 180.69 800.545 178.45C799.238 176.163 797.372 174.413 794.945 173.2C792.565 171.94 789.742 171.31 786.475 171.31H776.115V201.69ZM840.527 211.56C836.234 211.56 832.454 210.72 829.187 209.04C825.967 207.36 823.47 205.073 821.697 202.18C819.924 199.24 819.037 195.903 819.037 192.17C819.037 188.39 819.9 185.053 821.627 182.16C823.4 179.22 825.804 176.933 828.837 175.3C831.87 173.62 835.3 172.78 839.127 172.78C842.814 172.78 846.127 173.573 849.067 175.16C852.054 176.7 854.41 178.94 856.137 181.88C857.864 184.773 858.727 188.25 858.727 192.31C858.727 192.73 858.704 193.22 858.657 193.78C858.61 194.293 858.564 194.783 858.517 195.25H827.927V188.88H852.777L848.577 190.77C848.577 188.81 848.18 187.107 847.387 185.66C846.594 184.213 845.497 183.093 844.097 182.3C842.697 181.46 841.064 181.04 839.197 181.04C837.33 181.04 835.674 181.46 834.227 182.3C832.827 183.093 831.73 184.237 830.937 185.73C830.144 187.177 829.747 188.903 829.747 190.91V192.59C829.747 194.643 830.19 196.463 831.077 198.05C832.01 199.59 833.294 200.78 834.927 201.62C836.607 202.413 838.567 202.81 840.807 202.81C842.814 202.81 844.564 202.507 846.057 201.9C847.597 201.293 848.997 200.383 850.257 199.17L856.067 205.47C854.34 207.43 852.17 208.947 849.557 210.02C846.944 211.047 843.934 211.56 840.527 211.56ZM884.687 211.56C880.394 211.56 876.614 210.72 873.347 209.04C870.127 207.36 867.63 205.073 865.857 202.18C864.084 199.24 863.197 195.903 863.197 192.17C863.197 188.39 864.06 185.053 865.787 182.16C867.56 179.22 869.964 176.933 872.997 175.3C876.03 173.62 879.46 172.78 883.287 172.78C886.974 172.78 890.287 173.573 893.227 175.16C896.214 176.7 898.57 178.94 900.297 181.88C902.024 184.773 902.887 188.25 902.887 192.31C902.887 192.73 902.864 193.22 902.817 193.78C902.77 194.293 902.724 194.783 902.677 195.25H872.087V188.88H896.937L892.737 190.77C892.737 188.81 892.34 187.107 891.547 185.66C890.754 184.213 889.657 183.093 888.257 182.3C886.857 181.46 885.224 181.04 883.357 181.04C881.49 181.04 879.834 181.46 878.387 182.3C876.987 183.093 875.89 184.237 875.097 185.73C874.304 187.177 873.907 188.903 873.907 190.91V192.59C873.907 194.643 874.35 196.463 875.237 198.05C876.17 199.59 877.454 200.78 879.087 201.62C880.767 202.413 882.727 202.81 884.967 202.81C886.974 202.81 888.724 202.507 890.217 201.9C891.757 201.293 893.157 200.383 894.417 199.17L900.227 205.47C898.5 207.43 896.33 208.947 893.717 210.02C891.104 211.047 888.094 211.56 884.687 211.56ZM907.357 225.14C905.677 225.14 904.067 224.953 902.527 224.58C900.987 224.253 899.681 223.74 898.607 223.04L901.547 215.13C902.807 216.017 904.347 216.46 906.167 216.46C907.521 216.46 908.594 215.993 909.387 215.06C910.227 214.173 910.647 212.82 910.647 211V173.34H921.567V210.93C921.567 215.27 920.331 218.723 917.857 221.29C915.384 223.857 911.884 225.14 907.357 225.14ZM916.107 168.09C914.101 168.09 912.467 167.507 911.207 166.34C909.947 165.173 909.317 163.727 909.317 162C909.317 160.273 909.947 158.827 911.207 157.66C912.467 156.493 914.101 155.91 916.107 155.91C918.114 155.91 919.747 156.47 921.007 157.59C922.267 158.663 922.897 160.063 922.897 161.79C922.897 163.61 922.267 165.127 921.007 166.34C919.794 167.507 918.161 168.09 916.107 168.09ZM954.722 211V203.65L954.022 202.04V188.88C954.022 186.547 953.299 184.727 951.852 183.42C950.452 182.113 948.282 181.46 945.342 181.46C943.335 181.46 941.352 181.787 939.392 182.44C937.479 183.047 935.845 183.887 934.492 184.96L930.572 177.33C932.625 175.883 935.099 174.763 937.992 173.97C940.885 173.177 943.825 172.78 946.812 172.78C952.552 172.78 957.009 174.133 960.182 176.84C963.355 179.547 964.942 183.77 964.942 189.51V211H954.722ZM943.242 211.56C940.302 211.56 937.782 211.07 935.682 210.09C933.582 209.063 931.972 207.687 930.852 205.96C929.732 204.233 929.172 202.297 929.172 200.15C929.172 197.91 929.709 195.95 930.782 194.27C931.902 192.59 933.652 191.283 936.032 190.35C938.412 189.37 941.515 188.88 945.342 188.88H955.352V195.25H946.532C943.965 195.25 942.192 195.67 941.212 196.51C940.279 197.35 939.812 198.4 939.812 199.66C939.812 201.06 940.349 202.18 941.422 203.02C942.542 203.813 944.059 204.21 945.972 204.21C947.792 204.21 949.425 203.79 950.872 202.95C952.319 202.063 953.369 200.78 954.022 199.1L955.702 204.14C954.909 206.567 953.462 208.41 951.362 209.67C949.262 210.93 946.555 211.56 943.242 211.56ZM978.902 225.14C976.942 225.14 975.005 224.837 973.092 224.23C971.178 223.623 969.615 222.783 968.402 221.71L972.392 213.94C973.232 214.687 974.188 215.27 975.262 215.69C976.382 216.11 977.478 216.32 978.552 216.32C980.092 216.32 981.305 215.947 982.192 215.2C983.125 214.5 983.965 213.31 984.712 211.63L986.672 207.01L987.512 205.82L1001.02 173.34H1011.52L994.512 213.31C993.298 216.343 991.898 218.723 990.312 220.45C988.772 222.177 987.045 223.39 985.132 224.09C983.265 224.79 981.188 225.14 978.902 225.14ZM985.342 212.47L968.542 173.34H979.812L992.832 204.84L985.342 212.47ZM1016.75 211V162H1039.01C1044.33 162 1049.02 163.027 1053.08 165.08C1057.14 167.087 1060.31 169.91 1062.6 173.55C1064.88 177.19 1066.03 181.507 1066.03 186.5C1066.03 191.447 1064.88 195.763 1062.6 199.45C1060.31 203.09 1057.14 205.937 1053.08 207.99C1049.02 209.997 1044.33 211 1039.01 211H1016.75ZM1028.09 201.69H1038.45C1041.71 201.69 1044.54 201.083 1046.92 199.87C1049.34 198.61 1051.21 196.837 1052.52 194.55C1053.87 192.263 1054.55 189.58 1054.55 186.5C1054.55 183.373 1053.87 180.69 1052.52 178.45C1051.21 176.163 1049.34 174.413 1046.92 173.2C1044.54 171.94 1041.71 171.31 1038.45 171.31H1028.09V201.69ZM1092.5 211.56C1088.21 211.56 1084.43 210.72 1081.16 209.04C1077.94 207.36 1075.44 205.073 1073.67 202.18C1071.9 199.24 1071.01 195.903 1071.01 192.17C1071.01 188.39 1071.87 185.053 1073.6 182.16C1075.37 179.22 1077.78 176.933 1080.81 175.3C1083.84 173.62 1087.27 172.78 1091.1 172.78C1094.79 172.78 1098.1 173.573 1101.04 175.16C1104.03 176.7 1106.38 178.94 1108.11 181.88C1109.84 184.773 1110.7 188.25 1110.7 192.31C1110.7 192.73 1110.68 193.22 1110.63 193.78C1110.58 194.293 1110.54 194.783 1110.49 195.25H1079.9V188.88H1104.75L1100.55 190.77C1100.55 188.81 1100.15 187.107 1099.36 185.66C1098.57 184.213 1097.47 183.093 1096.07 182.3C1094.67 181.46 1093.04 181.04 1091.17 181.04C1089.3 181.04 1087.65 181.46 1086.2 182.3C1084.8 183.093 1083.7 184.237 1082.91 185.73C1082.12 187.177 1081.72 188.903 1081.72 190.91V192.59C1081.72 194.643 1082.16 196.463 1083.05 198.05C1083.98 199.59 1085.27 200.78 1086.9 201.62C1088.58 202.413 1090.54 202.81 1092.78 202.81C1094.79 202.81 1096.54 202.507 1098.03 201.9C1099.57 201.293 1100.97 200.383 1102.23 199.17L1108.04 205.47C1106.31 207.43 1104.14 208.947 1101.53 210.02C1098.92 211.047 1095.91 211.56 1092.5 211.56ZM1127.51 211L1111.69 173.34H1122.96L1136.12 205.75H1130.52L1144.17 173.34H1154.67L1138.78 211H1127.51Z" fill="black"/>
<defs>
<linearGradient id="paint0_linear_21_71" x1="0.00878909" y1="56.4969" x2="46.3584" y2="56.4969" gradientUnits="userSpaceOnUse">
<stop stop-color="#FFB703"/>
<stop offset="0.238" stop-color="#FF9900"/>
<stop offset="0.44" stop-color="#FFB703"/>
<stop offset="0.629" stop-color="#FF9900"/>
<stop offset="0.81" stop-color="#FFB703"/>
<stop offset="0.983" stop-color="#FF9900"/>
<stop offset="1" stop-color="#FFB703"/>
</linearGradient>
<linearGradient id="paint1_linear_21_71" x1="0.0117187" y1="112.503" x2="46.3582" y2="112.503" gradientUnits="userSpaceOnUse">
<stop stop-color="#F7971D"/>
<stop offset="0.238" stop-color="#FFB703"/>
<stop offset="0.44" stop-color="#F7971D"/>
<stop offset="0.629" stop-color="#FFB703"/>
<stop offset="0.81" stop-color="#F7971D"/>
<stop offset="0.983" stop-color="#FFB703"/>
<stop offset="1" stop-color="#F7971D"/>
</linearGradient>
</defs>
</svg>
